%TF.GenerationSoftware,KiCad,Pcbnew,(7.0.0-0)*%
%TF.CreationDate,2023-02-25T18:04:37+01:00*%
%TF.ProjectId,208_Timbre_Workshop,3230385f-5469-46d6-9272-655f576f726b,1*%
%TF.SameCoordinates,Original*%
%TF.FileFunction,Legend,Bot*%
%TF.FilePolarity,Positive*%
%FSLAX46Y46*%
G04 Gerber Fmt 4.6, Leading zero omitted, Abs format (unit mm)*
G04 Created by KiCad (PCBNEW (7.0.0-0)) date 2023-02-25 18:04:37*
%MOMM*%
%LPD*%
G01*
G04 APERTURE LIST*
G04 Aperture macros list*
%AMRoundRect*
0 Rectangle with rounded corners*
0 $1 Rounding radius*
0 $2 $3 $4 $5 $6 $7 $8 $9 X,Y pos of 4 corners*
0 Add a 4 corners polygon primitive as box body*
4,1,4,$2,$3,$4,$5,$6,$7,$8,$9,$2,$3,0*
0 Add four circle primitives for the rounded corners*
1,1,$1+$1,$2,$3*
1,1,$1+$1,$4,$5*
1,1,$1+$1,$6,$7*
1,1,$1+$1,$8,$9*
0 Add four rect primitives between the rounded corners*
20,1,$1+$1,$2,$3,$4,$5,0*
20,1,$1+$1,$4,$5,$6,$7,0*
20,1,$1+$1,$6,$7,$8,$9,0*
20,1,$1+$1,$8,$9,$2,$3,0*%
G04 Aperture macros list end*
%ADD10C,0.150000*%
%ADD11C,0.120000*%
%ADD12C,1.600000*%
%ADD13O,1.600000X1.600000*%
%ADD14C,4.000000*%
%ADD15RoundRect,0.165000X-0.985000X-0.385000X0.985000X-0.385000X0.985000X0.385000X-0.985000X0.385000X0*%
%ADD16O,2.400000X1.300000*%
%ADD17C,3.200000*%
%ADD18R,1.600000X1.600000*%
%ADD19C,1.676400*%
%ADD20R,1.300000X1.300000*%
%ADD21C,1.300000*%
%ADD22C,2.000000*%
%ADD23RoundRect,0.125000X1.125000X1.125000X-1.125000X1.125000X-1.125000X-1.125000X1.125000X-1.125000X0*%
%ADD24C,2.500000*%
%ADD25R,1.650000X1.650000*%
%ADD26C,1.650000*%
%ADD27R,1.700000X1.700000*%
%ADD28O,1.700000X1.700000*%
G04 APERTURE END LIST*
D10*
%TO.C,J6*%
X51855933Y57164020D02*
X51855933Y56449734D01*
X51855933Y56449734D02*
X51903552Y56306877D01*
X51903552Y56306877D02*
X51998790Y56211639D01*
X51998790Y56211639D02*
X52141647Y56164020D01*
X52141647Y56164020D02*
X52236885Y56164020D01*
X50951171Y57164020D02*
X51141647Y57164020D01*
X51141647Y57164020D02*
X51236885Y57116400D01*
X51236885Y57116400D02*
X51284504Y57068781D01*
X51284504Y57068781D02*
X51379742Y56925924D01*
X51379742Y56925924D02*
X51427361Y56735448D01*
X51427361Y56735448D02*
X51427361Y56354496D01*
X51427361Y56354496D02*
X51379742Y56259258D01*
X51379742Y56259258D02*
X51332123Y56211639D01*
X51332123Y56211639D02*
X51236885Y56164020D01*
X51236885Y56164020D02*
X51046409Y56164020D01*
X51046409Y56164020D02*
X50951171Y56211639D01*
X50951171Y56211639D02*
X50903552Y56259258D01*
X50903552Y56259258D02*
X50855933Y56354496D01*
X50855933Y56354496D02*
X50855933Y56592591D01*
X50855933Y56592591D02*
X50903552Y56687829D01*
X50903552Y56687829D02*
X50951171Y56735448D01*
X50951171Y56735448D02*
X51046409Y56783067D01*
X51046409Y56783067D02*
X51236885Y56783067D01*
X51236885Y56783067D02*
X51332123Y56735448D01*
X51332123Y56735448D02*
X51379742Y56687829D01*
X51379742Y56687829D02*
X51427361Y56592591D01*
%TO.C,J5*%
X47855933Y57304020D02*
X47855933Y56589734D01*
X47855933Y56589734D02*
X47903552Y56446877D01*
X47903552Y56446877D02*
X47998790Y56351639D01*
X47998790Y56351639D02*
X48141647Y56304020D01*
X48141647Y56304020D02*
X48236885Y56304020D01*
X46903552Y57304020D02*
X47379742Y57304020D01*
X47379742Y57304020D02*
X47427361Y56827829D01*
X47427361Y56827829D02*
X47379742Y56875448D01*
X47379742Y56875448D02*
X47284504Y56923067D01*
X47284504Y56923067D02*
X47046409Y56923067D01*
X47046409Y56923067D02*
X46951171Y56875448D01*
X46951171Y56875448D02*
X46903552Y56827829D01*
X46903552Y56827829D02*
X46855933Y56732591D01*
X46855933Y56732591D02*
X46855933Y56494496D01*
X46855933Y56494496D02*
X46903552Y56399258D01*
X46903552Y56399258D02*
X46951171Y56351639D01*
X46951171Y56351639D02*
X47046409Y56304020D01*
X47046409Y56304020D02*
X47284504Y56304020D01*
X47284504Y56304020D02*
X47379742Y56351639D01*
X47379742Y56351639D02*
X47427361Y56399258D01*
D11*
%TO.C,J6*%
X52852600Y42271400D02*
X50192600Y42271400D01*
X52852600Y52491400D02*
X52852600Y42271400D01*
X52852600Y52491400D02*
X50192600Y52491400D01*
X51522600Y55091400D02*
X50192600Y55091400D01*
X50192600Y52491400D02*
X50192600Y42271400D01*
X50192600Y55091400D02*
X50192600Y53761400D01*
%TO.C,G\u002A\u002A\u002A*%
G36*
X31137722Y13578458D02*
G01*
X31137722Y13165212D01*
X31468283Y13578458D01*
X31798844Y13991705D01*
X31932989Y13991705D01*
X32067134Y13991705D01*
X32067134Y13321116D01*
X32067134Y12650528D01*
X31908310Y12650528D01*
X31749487Y12650528D01*
X31749487Y13069874D01*
X31749487Y13489219D01*
X31417134Y13072815D01*
X31084781Y12656410D01*
X30952428Y12653084D01*
X30820075Y12649758D01*
X30820075Y13320731D01*
X30820075Y13991705D01*
X30978898Y13991705D01*
X31137722Y13991705D01*
X31137722Y13578458D01*
G37*
G36*
X28711251Y13989095D02*
G01*
X28873016Y13985822D01*
X28876072Y13332881D01*
X28876397Y13254775D01*
X28876727Y13136848D01*
X28876843Y13027204D01*
X28876753Y12928019D01*
X28876464Y12841473D01*
X28875987Y12769743D01*
X28875328Y12715008D01*
X28874496Y12679446D01*
X28873500Y12665234D01*
X28873486Y12665198D01*
X28866358Y12660830D01*
X28847515Y12657352D01*
X28814989Y12654684D01*
X28766811Y12652747D01*
X28701012Y12651461D01*
X28615624Y12650748D01*
X28508679Y12650528D01*
X28149487Y12650528D01*
X28149487Y12803469D01*
X28149487Y12956410D01*
X28349487Y12956410D01*
X28549487Y12956410D01*
X28549487Y13474390D01*
X28549487Y13992369D01*
X28711251Y13989095D01*
G37*
G36*
X30252542Y13332881D02*
G01*
X30252867Y13254775D01*
X30253198Y13136848D01*
X30253314Y13027204D01*
X30253223Y12928019D01*
X30252935Y12841473D01*
X30252457Y12769743D01*
X30251798Y12715008D01*
X30250967Y12679446D01*
X30249970Y12665234D01*
X30247850Y12663051D01*
X30235568Y12659328D01*
X30210986Y12656361D01*
X30172234Y12654083D01*
X30117439Y12652427D01*
X30044731Y12651328D01*
X29952239Y12650717D01*
X29838091Y12650528D01*
X29431840Y12650528D01*
X29431840Y12791705D01*
X29431840Y12932881D01*
X29678898Y12932881D01*
X29925957Y12932881D01*
X29925957Y13079940D01*
X29925957Y13226999D01*
X29696546Y13226999D01*
X29467134Y13226999D01*
X29467134Y13362293D01*
X29467134Y13497587D01*
X29696546Y13497587D01*
X29925957Y13497587D01*
X29925957Y13603231D01*
X29925957Y13708874D01*
X29681840Y13712054D01*
X29437722Y13715234D01*
X29437722Y13850528D01*
X29437722Y13985822D01*
X29843604Y13985822D01*
X30249487Y13985822D01*
X30252542Y13332881D01*
G37*
G36*
X24973674Y14002963D02*
G01*
X25087131Y13973020D01*
X25193792Y13924954D01*
X25291350Y13859957D01*
X25377496Y13779223D01*
X25449926Y13683944D01*
X25506331Y13575312D01*
X25544404Y13454520D01*
X25550963Y13420873D01*
X25559756Y13301684D01*
X25547086Y13185035D01*
X25514559Y13073300D01*
X25463785Y12968855D01*
X25396370Y12874076D01*
X25313923Y12791337D01*
X25218051Y12723015D01*
X25110363Y12671485D01*
X24992467Y12639122D01*
X24980268Y12637139D01*
X24899638Y12631607D01*
X24809258Y12635706D01*
X24717291Y12648375D01*
X24631901Y12668553D01*
X24561251Y12695178D01*
X24520075Y12715234D01*
X24516827Y12894697D01*
X24513579Y13074161D01*
X24575651Y13027086D01*
X24649807Y12980859D01*
X24736106Y12950839D01*
X24831840Y12941186D01*
X24893346Y12945384D01*
X24984038Y12969035D01*
X25063555Y13012486D01*
X25129942Y13074547D01*
X25181247Y13154027D01*
X25198075Y13191726D01*
X25208226Y13226575D01*
X25213000Y13266669D01*
X25214193Y13321116D01*
X25213098Y13373740D01*
X25208487Y13414323D01*
X25198580Y13449215D01*
X25181599Y13487487D01*
X25170123Y13508788D01*
X25119852Y13576789D01*
X25056369Y13635266D01*
X24986848Y13677230D01*
X24980332Y13680024D01*
X24908958Y13699006D01*
X24828393Y13703515D01*
X24746969Y13693747D01*
X24673016Y13669895D01*
X24639492Y13653182D01*
X24593829Y13626819D01*
X24558310Y13602347D01*
X24514193Y13567066D01*
X24514193Y13748525D01*
X24514193Y13929984D01*
X24574396Y13955882D01*
X24615595Y13972133D01*
X24735599Y14003712D01*
X24855727Y14013592D01*
X24973674Y14002963D01*
G37*
G36*
X35003722Y13709352D02*
G01*
X35005484Y13332881D01*
X35005808Y13254775D01*
X35006139Y13136848D01*
X35006255Y13027204D01*
X35006165Y12928019D01*
X35005876Y12841473D01*
X35005398Y12769743D01*
X35004739Y12715008D01*
X35003908Y12679446D01*
X35002912Y12665234D01*
X35001470Y12663096D01*
X34987335Y12657271D01*
X34957019Y12653380D01*
X34908084Y12651205D01*
X34838091Y12650528D01*
X34678898Y12650528D01*
X34678898Y12885822D01*
X34678898Y13121116D01*
X34575488Y13121116D01*
X34542827Y13121726D01*
X34425424Y13135377D01*
X34322082Y13166666D01*
X34233597Y13215187D01*
X34160764Y13280531D01*
X34104379Y13362293D01*
X34100535Y13369586D01*
X34088019Y13396236D01*
X34079988Y13422188D01*
X34075463Y13453498D01*
X34073465Y13496221D01*
X34073029Y13554695D01*
X34396546Y13554695D01*
X34396550Y13552091D01*
X34399056Y13509015D01*
X34408148Y13478861D01*
X34426714Y13451775D01*
X34429585Y13448521D01*
X34462955Y13421505D01*
X34500243Y13403879D01*
X34519885Y13399631D01*
X34564531Y13394003D01*
X34611251Y13391770D01*
X34678898Y13391705D01*
X34678898Y13550528D01*
X34678898Y13709352D01*
X34596168Y13709352D01*
X34584625Y13709266D01*
X34511835Y13703052D01*
X34458538Y13685965D01*
X34422827Y13656527D01*
X34402798Y13613263D01*
X34396546Y13554695D01*
X34073029Y13554695D01*
X34073016Y13556410D01*
X34073035Y13572874D01*
X34073770Y13628301D01*
X34076291Y13667723D01*
X34081577Y13697198D01*
X34090605Y13722781D01*
X34104353Y13750528D01*
X34138640Y13803779D01*
X34204671Y13872223D01*
X34284781Y13924171D01*
X34307343Y13934931D01*
X34347405Y13951519D01*
X34388310Y13964143D01*
X34433837Y13973319D01*
X34487763Y13979561D01*
X34553867Y13983382D01*
X34635927Y13985298D01*
X34737722Y13985822D01*
X35002428Y13985822D01*
X35003722Y13709352D01*
G37*
G36*
X26909604Y13709352D02*
G01*
X26911366Y13332881D01*
X26911691Y13254775D01*
X26912021Y13136848D01*
X26912137Y13027204D01*
X26912047Y12928019D01*
X26911759Y12841473D01*
X26911281Y12769743D01*
X26910622Y12715008D01*
X26909790Y12679446D01*
X26908794Y12665234D01*
X26907352Y12663096D01*
X26893218Y12657271D01*
X26862901Y12653380D01*
X26813966Y12651205D01*
X26743974Y12650528D01*
X26584781Y12650528D01*
X26584781Y12885822D01*
X26584781Y13121116D01*
X26481370Y13121116D01*
X26448709Y13121726D01*
X26331306Y13135377D01*
X26227964Y13166666D01*
X26139479Y13215187D01*
X26066646Y13280531D01*
X26010261Y13362293D01*
X26006417Y13369586D01*
X25993902Y13396236D01*
X25985870Y13422188D01*
X25981345Y13453498D01*
X25979347Y13496221D01*
X25978911Y13554695D01*
X26302428Y13554695D01*
X26302432Y13552091D01*
X26304939Y13509015D01*
X26314030Y13478861D01*
X26332596Y13451775D01*
X26335467Y13448521D01*
X26368837Y13421505D01*
X26406125Y13403879D01*
X26425768Y13399631D01*
X26470414Y13394003D01*
X26517134Y13391770D01*
X26584781Y13391705D01*
X26584781Y13550528D01*
X26584781Y13709352D01*
X26502050Y13709352D01*
X26490507Y13709266D01*
X26417717Y13703052D01*
X26364420Y13685965D01*
X26328710Y13656527D01*
X26308681Y13613263D01*
X26302428Y13554695D01*
X25978911Y13554695D01*
X25978898Y13556410D01*
X25978918Y13572874D01*
X25979652Y13628301D01*
X25982173Y13667723D01*
X25987459Y13697198D01*
X25996487Y13722781D01*
X26010235Y13750528D01*
X26044523Y13803779D01*
X26110553Y13872223D01*
X26190663Y13924171D01*
X26213225Y13934931D01*
X26253288Y13951519D01*
X26294193Y13964143D01*
X26339719Y13973319D01*
X26393645Y13979561D01*
X26459749Y13983382D01*
X26541809Y13985298D01*
X26643604Y13985822D01*
X26908310Y13985822D01*
X26909604Y13709352D01*
G37*
G36*
X24008310Y13735622D02*
G01*
X24008310Y13322502D01*
X24008310Y13215234D01*
X24008310Y12650528D01*
X23746546Y12650617D01*
X23739766Y12650622D01*
X23615278Y12651947D01*
X23511226Y12656002D01*
X23424751Y12663365D01*
X23353000Y12674612D01*
X23293114Y12690322D01*
X23242237Y12711071D01*
X23197514Y12737438D01*
X23156088Y12770000D01*
X23127601Y12797217D01*
X23084132Y12854628D01*
X23058036Y12919714D01*
X23046177Y12999010D01*
X23047022Y13066284D01*
X23048128Y13071271D01*
X23363195Y13071271D01*
X23369011Y13021405D01*
X23392474Y12975707D01*
X23433839Y12939454D01*
X23465926Y12926445D01*
X23513643Y12917450D01*
X23580708Y12911897D01*
X23690663Y12906146D01*
X23690663Y13060690D01*
X23690663Y13215234D01*
X23593604Y13214976D01*
X23539398Y13213180D01*
X23487791Y13205856D01*
X23446103Y13191823D01*
X23403477Y13162409D01*
X23374769Y13120031D01*
X23363195Y13071271D01*
X23048128Y13071271D01*
X23065950Y13151651D01*
X23104868Y13225516D01*
X23162991Y13286519D01*
X23239532Y13333301D01*
X23297916Y13360085D01*
X23247816Y13406265D01*
X23212150Y13443080D01*
X23175505Y13498966D01*
X23155533Y13562483D01*
X23152808Y13597496D01*
X23457496Y13597496D01*
X23465199Y13548057D01*
X23488145Y13504220D01*
X23525774Y13472325D01*
X23526595Y13471893D01*
X23573046Y13456327D01*
X23628715Y13450528D01*
X23690663Y13450528D01*
X23690663Y13593075D01*
X23690663Y13735622D01*
X23614319Y13730761D01*
X23597176Y13729407D01*
X23542655Y13719595D01*
X23505496Y13701792D01*
X23490057Y13687830D01*
X23465595Y13646200D01*
X23457496Y13597496D01*
X23152808Y13597496D01*
X23149487Y13640168D01*
X23149489Y13641670D01*
X23159450Y13730660D01*
X23188845Y13806572D01*
X23237851Y13869636D01*
X23306646Y13920080D01*
X23395406Y13958132D01*
X23419824Y13965423D01*
X23449367Y13972217D01*
X23483406Y13977403D01*
X23525749Y13981321D01*
X23580202Y13984308D01*
X23650571Y13986703D01*
X23740663Y13988846D01*
X24008310Y13994476D01*
X24008310Y13735622D01*
G37*
G36*
X33648532Y13165813D02*
G01*
X33687307Y13071459D01*
X33726052Y12976971D01*
X33761477Y12890349D01*
X33792628Y12813906D01*
X33818548Y12749955D01*
X33838285Y12700809D01*
X33850882Y12668781D01*
X33851544Y12662733D01*
X33845340Y12657414D01*
X33828468Y12653881D01*
X33797712Y12651787D01*
X33749860Y12650785D01*
X33681696Y12650528D01*
X33505505Y12650528D01*
X33459655Y12776999D01*
X33413804Y12903469D01*
X33170932Y12906646D01*
X32928060Y12909823D01*
X32884859Y12780175D01*
X32841659Y12650528D01*
X32658907Y12650528D01*
X32637314Y12650539D01*
X32574042Y12650862D01*
X32530103Y12651919D01*
X32502215Y12654090D01*
X32487100Y12657759D01*
X32481478Y12663307D01*
X32482070Y12671116D01*
X32482755Y12673179D01*
X32490653Y12693946D01*
X32506225Y12733470D01*
X32528503Y12789364D01*
X32556518Y12859241D01*
X32589303Y12940713D01*
X32625887Y13031394D01*
X32665302Y13128896D01*
X32680017Y13165234D01*
X33019965Y13165234D01*
X33020105Y13164854D01*
X33033439Y13161561D01*
X33065361Y13158878D01*
X33111412Y13157072D01*
X33167134Y13156410D01*
X33173489Y13156419D01*
X33228365Y13157269D01*
X33273078Y13159308D01*
X33303171Y13162251D01*
X33314193Y13165813D01*
X33314191Y13165887D01*
X33310235Y13179891D01*
X33299550Y13212326D01*
X33283374Y13259574D01*
X33262944Y13318018D01*
X33239500Y13384041D01*
X33164808Y13592866D01*
X33092331Y13383462D01*
X33091818Y13381979D01*
X33069122Y13315922D01*
X33049389Y13257599D01*
X33033818Y13210631D01*
X33023610Y13178636D01*
X33019965Y13165234D01*
X32680017Y13165234D01*
X32706580Y13230832D01*
X32748752Y13334815D01*
X32790849Y13438458D01*
X32831903Y13539373D01*
X32870945Y13635174D01*
X32907006Y13723473D01*
X32939117Y13801884D01*
X32966310Y13868018D01*
X32987617Y13919489D01*
X33002068Y13953909D01*
X33008694Y13968893D01*
X33010772Y13972454D01*
X33019252Y13981099D01*
X33034164Y13986704D01*
X33059781Y13989911D01*
X33100377Y13991363D01*
X33160225Y13991705D01*
X33207918Y13991267D01*
X33262028Y13988847D01*
X33295757Y13984151D01*
X33310954Y13976999D01*
X33314978Y13968490D01*
X33327243Y13940130D01*
X33346689Y13894193D01*
X33372361Y13832993D01*
X33403303Y13758842D01*
X33438563Y13674054D01*
X33477184Y13580941D01*
X33518212Y13481816D01*
X33560693Y13378992D01*
X33603672Y13274783D01*
X33646195Y13171501D01*
X33648532Y13165813D01*
G37*
G36*
X30145307Y96426958D02*
G01*
X30145307Y95862252D01*
X27880601Y95862252D01*
X25615895Y95862252D01*
X25615895Y96426958D01*
X25615895Y96991664D01*
X27880601Y96991664D01*
X30145307Y96991664D01*
X30145307Y96426958D01*
G37*
G36*
X33321778Y83921075D02*
G01*
X33321778Y83756369D01*
X32657072Y83756369D01*
X31992366Y83756369D01*
X31992366Y83921075D01*
X31992366Y84085781D01*
X32657072Y84085781D01*
X33321778Y84085781D01*
X33321778Y83921075D01*
G37*
G36*
X33321778Y95626958D02*
G01*
X33321778Y95262252D01*
X33168836Y95262252D01*
X33015895Y95262252D01*
X33015895Y95462252D01*
X33015895Y95662252D01*
X32504131Y95662252D01*
X31992366Y95662252D01*
X31992366Y95826958D01*
X31992366Y95991664D01*
X32657072Y95991664D01*
X33321778Y95991664D01*
X33321778Y95626958D01*
G37*
G36*
X26130601Y101565317D02*
G01*
X26645307Y101562252D01*
X26648379Y101076958D01*
X26651450Y100591664D01*
X28398379Y100591664D01*
X30145307Y100591664D01*
X30145307Y100015193D01*
X30145307Y99438722D01*
X28398379Y99438722D01*
X26651450Y99438722D01*
X26648379Y98953428D01*
X26645307Y98468134D01*
X26130601Y98465069D01*
X25615895Y98462005D01*
X25615895Y100015193D01*
X25615895Y101568382D01*
X26130601Y101565317D01*
G37*
G36*
X32142366Y93353780D02*
G01*
X32292366Y93350487D01*
X32295680Y93212252D01*
X32298995Y93074017D01*
X32810386Y93074017D01*
X33321778Y93074017D01*
X33321778Y92903428D01*
X33321778Y92732840D01*
X32810375Y92732840D01*
X32298972Y92732840D01*
X32295669Y92588722D01*
X32292366Y92444605D01*
X32142366Y92441312D01*
X31992366Y92438019D01*
X31992366Y92897546D01*
X31992366Y93357072D01*
X32142366Y93353780D01*
G37*
G36*
X33321778Y81150638D02*
G01*
X33321778Y80991965D01*
X32908699Y80988873D01*
X32495621Y80985781D01*
X32908699Y80657408D01*
X33321778Y80329034D01*
X33321778Y80195643D01*
X33321778Y80062252D01*
X32657072Y80062252D01*
X31992366Y80062252D01*
X31992366Y80220923D01*
X31992366Y80379594D01*
X32399146Y80382688D01*
X32805927Y80385781D01*
X32399735Y80709311D01*
X31993544Y81032840D01*
X31992955Y81171075D01*
X31992366Y81309311D01*
X32657072Y81309311D01*
X33321778Y81309311D01*
X33321778Y81150638D01*
G37*
G36*
X33321778Y91591664D02*
G01*
X33321778Y91179899D01*
X33186484Y91179899D01*
X33051189Y91179899D01*
X33051189Y91426958D01*
X33051189Y91674017D01*
X32904385Y91674017D01*
X32757580Y91674017D01*
X32754385Y91447546D01*
X32751189Y91221075D01*
X32618836Y91217749D01*
X32486484Y91214422D01*
X32486484Y91444219D01*
X32486484Y91674017D01*
X32374719Y91674017D01*
X32262954Y91674017D01*
X32262954Y91432840D01*
X32262954Y91191664D01*
X32127660Y91191664D01*
X31992366Y91191664D01*
X31992366Y91597546D01*
X31992366Y92003428D01*
X32657072Y92003428D01*
X33321778Y92003428D01*
X33321778Y91591664D01*
G37*
G36*
X33321778Y87921075D02*
G01*
X33321778Y87509311D01*
X33186484Y87509311D01*
X33051189Y87509311D01*
X33051189Y87756369D01*
X33051189Y88003428D01*
X32904385Y88003428D01*
X32757580Y88003428D01*
X32754385Y87776958D01*
X32751189Y87550487D01*
X32618836Y87547161D01*
X32486484Y87543834D01*
X32486484Y87773631D01*
X32486484Y88003428D01*
X32374719Y88003428D01*
X32262954Y88003428D01*
X32262954Y87762252D01*
X32262954Y87521075D01*
X32127660Y87521075D01*
X31992366Y87521075D01*
X31992366Y87926958D01*
X31992366Y88332840D01*
X32657072Y88332840D01*
X33321778Y88332840D01*
X33321778Y87921075D01*
G37*
G36*
X30145307Y75585781D02*
G01*
X30145307Y74191664D01*
X29680601Y74191664D01*
X29215895Y74191664D01*
X29215895Y75026958D01*
X29215895Y75862252D01*
X28715895Y75862252D01*
X28215895Y75862252D01*
X28215895Y75079899D01*
X28215895Y74297546D01*
X27762954Y74297546D01*
X27310013Y74297546D01*
X27310013Y75079899D01*
X27310013Y75862252D01*
X26927660Y75862252D01*
X26545307Y75862252D01*
X26545307Y75038722D01*
X26545307Y74215193D01*
X26080601Y74215193D01*
X25615895Y74215193D01*
X25615895Y75597546D01*
X25615895Y76979899D01*
X27880601Y76979899D01*
X30145307Y76979899D01*
X30145307Y75585781D01*
G37*
G36*
X32048248Y90028038D02*
G01*
X32058277Y90024053D01*
X32091395Y90010847D01*
X32142856Y89990299D01*
X32210455Y89963288D01*
X32291986Y89930697D01*
X32385246Y89893407D01*
X32488030Y89852300D01*
X32598133Y89808256D01*
X32713351Y89762156D01*
X33322571Y89518381D01*
X33319233Y89399146D01*
X33315895Y89279911D01*
X32686484Y89024655D01*
X32595694Y88987849D01*
X32483970Y88942596D01*
X32379666Y88900392D01*
X32284837Y88862065D01*
X32201538Y88828445D01*
X32131822Y88800361D01*
X32077744Y88778642D01*
X32041358Y88764116D01*
X32024719Y88757614D01*
X31992366Y88745829D01*
X31992442Y88924629D01*
X31992519Y89103428D01*
X32330678Y89220332D01*
X32350623Y89227229D01*
X32439738Y89258101D01*
X32525110Y89287757D01*
X32603038Y89314907D01*
X32669822Y89338261D01*
X32721762Y89356527D01*
X32755158Y89368414D01*
X32841480Y89399593D01*
X32417039Y89545628D01*
X31992598Y89691664D01*
X31992482Y89870904D01*
X31992366Y90050144D01*
X32048248Y90028038D01*
G37*
G36*
X32815895Y94732515D02*
G01*
X32877870Y94757835D01*
X32980414Y94799618D01*
X33072685Y94837097D01*
X33152768Y94869499D01*
X33218748Y94896049D01*
X33268711Y94915972D01*
X33300743Y94928494D01*
X33312929Y94932840D01*
X33314417Y94930367D01*
X33317324Y94909746D01*
X33319659Y94871600D01*
X33321213Y94820029D01*
X33321778Y94759131D01*
X33321778Y94585422D01*
X33260013Y94563615D01*
X33240296Y94556608D01*
X33186452Y94537181D01*
X33136484Y94518832D01*
X33074719Y94495855D01*
X33074719Y94251957D01*
X33074719Y94008059D01*
X33198248Y93968134D01*
X33321778Y93928209D01*
X33321778Y93743241D01*
X33321778Y93558272D01*
X32854131Y93747425D01*
X32827486Y93758202D01*
X32718746Y93802176D01*
X32609929Y93846170D01*
X32504682Y93888710D01*
X32406654Y93928322D01*
X32319493Y93963531D01*
X32246848Y93992864D01*
X32192366Y94014846D01*
X31998248Y94093114D01*
X31998248Y94245231D01*
X31998248Y94246395D01*
X32396655Y94246395D01*
X32398248Y94240816D01*
X32412193Y94236880D01*
X32445956Y94226101D01*
X32494390Y94210013D01*
X32553387Y94189983D01*
X32618836Y94167379D01*
X32815895Y94098769D01*
X32815895Y94250591D01*
X32815895Y94402412D01*
X32701189Y94360403D01*
X32680815Y94352974D01*
X32612724Y94328472D01*
X32541846Y94303349D01*
X32480601Y94282018D01*
X32455585Y94273159D01*
X32416266Y94257425D01*
X32396655Y94246395D01*
X31998248Y94246395D01*
X31998248Y94397349D01*
X32651164Y94665094D01*
X32766967Y94712525D01*
X32815895Y94732515D01*
G37*
G36*
X33321778Y100833816D02*
G01*
X33321778Y100285781D01*
X33174973Y100285781D01*
X33028168Y100285781D01*
X33024973Y100511881D01*
X33021778Y100737980D01*
X32862626Y100584832D01*
X32815760Y100540099D01*
X32749781Y100479084D01*
X32694843Y100431589D01*
X32647860Y100395298D01*
X32605745Y100367894D01*
X32565411Y100347060D01*
X32523773Y100330480D01*
X32477159Y100317809D01*
X32400886Y100307849D01*
X32323685Y100308136D01*
X32256376Y100319129D01*
X32177184Y100353150D01*
X32106414Y100407560D01*
X32047047Y100479828D01*
X32001526Y100567571D01*
X31999351Y100573102D01*
X31989020Y100603431D01*
X31982119Y100634844D01*
X31977997Y100672949D01*
X31976002Y100723353D01*
X31975482Y100791664D01*
X31975505Y100809629D01*
X31976289Y100872938D01*
X31978681Y100919726D01*
X31983351Y100955654D01*
X31990969Y100986380D01*
X32002203Y101017565D01*
X32024344Y101062468D01*
X32070997Y101129280D01*
X32127997Y101189377D01*
X32188267Y101234507D01*
X32202842Y101242580D01*
X32258095Y101267655D01*
X32318980Y101288966D01*
X32376876Y101303767D01*
X32423158Y101309311D01*
X32463618Y101309311D01*
X32460345Y101148763D01*
X32457072Y100988215D01*
X32398248Y100971294D01*
X32372759Y100962524D01*
X32315725Y100928746D01*
X32276461Y100882067D01*
X32256701Y100825099D01*
X32258185Y100760458D01*
X32274730Y100712766D01*
X32308951Y100671840D01*
X32356729Y100647749D01*
X32415387Y100641752D01*
X32482248Y100655107D01*
X32508269Y100665185D01*
X32538727Y100680634D01*
X32572720Y100702068D01*
X32612114Y100731013D01*
X32658779Y100768994D01*
X32714580Y100817538D01*
X32781387Y100878171D01*
X32861066Y100952420D01*
X32955485Y101041810D01*
X32989029Y101073704D01*
X33056740Y101137894D01*
X33119799Y101197430D01*
X33175735Y101249993D01*
X33222074Y101293262D01*
X33256344Y101324917D01*
X33276073Y101342639D01*
X33321778Y101381850D01*
X33321778Y100833816D01*
G37*
G36*
X32635058Y83249006D02*
G01*
X32657072Y83250487D01*
X32729242Y83247551D01*
X32847443Y83227414D01*
X32954567Y83187355D01*
X33052908Y83126397D01*
X33144761Y83043569D01*
X33189106Y82992571D01*
X33257554Y82891283D01*
X33307756Y82783477D01*
X33337179Y82674017D01*
X33337907Y82668712D01*
X33340337Y82638042D01*
X33342398Y82593763D01*
X33343705Y82543546D01*
X33343413Y82505750D01*
X33328081Y82376588D01*
X33290708Y82255333D01*
X33231631Y82142869D01*
X33151189Y82040080D01*
X33096788Y81986658D01*
X33000054Y81914242D01*
X32895742Y81863619D01*
X32782024Y81833990D01*
X32657072Y81824559D01*
X32587469Y81827689D01*
X32467969Y81849014D01*
X32358470Y81891132D01*
X32257288Y81954780D01*
X32162737Y82040696D01*
X32099835Y82117525D01*
X32036507Y82226438D01*
X31993398Y82344412D01*
X31971177Y82468760D01*
X31971017Y82499646D01*
X32277316Y82499646D01*
X32292230Y82414402D01*
X32326845Y82339639D01*
X32382245Y82272415D01*
X32409825Y82247781D01*
X32481238Y82202635D01*
X32562471Y82176535D01*
X32657072Y82168134D01*
X32716156Y82171510D01*
X32807752Y82192540D01*
X32886446Y82232140D01*
X32950844Y82289514D01*
X32999553Y82363865D01*
X33004920Y82375623D01*
X33025587Y82442857D01*
X33036076Y82518580D01*
X33035616Y82593317D01*
X33023436Y82657589D01*
X33008265Y82697050D01*
X32961879Y82774362D01*
X32899790Y82835034D01*
X32823572Y82878055D01*
X32734803Y82902412D01*
X32635058Y82907092D01*
X32627749Y82906660D01*
X32530231Y82890296D01*
X32446840Y82855692D01*
X32378718Y82803965D01*
X32327007Y82736231D01*
X32292848Y82653606D01*
X32277383Y82557208D01*
X32277316Y82499646D01*
X31971017Y82499646D01*
X31970513Y82596794D01*
X31992077Y82725828D01*
X32009384Y82784687D01*
X32049840Y82879496D01*
X32105635Y82966064D01*
X32180598Y83050996D01*
X32242981Y83108451D01*
X32334754Y83173145D01*
X32431651Y83217247D01*
X32537735Y83242461D01*
X32635058Y83249006D01*
G37*
G36*
X32689216Y99839956D02*
G01*
X32765176Y99836312D01*
X32893090Y99815284D01*
X33006154Y99777612D01*
X33105894Y99722753D01*
X33193839Y99650162D01*
X33235603Y99604873D01*
X33290151Y99524884D01*
X33329555Y99432840D01*
X33335751Y99406810D01*
X33341289Y99348186D01*
X33341191Y99271470D01*
X33340145Y99245475D01*
X33336461Y99195046D01*
X33329721Y99156425D01*
X33318119Y99121300D01*
X33299845Y99081360D01*
X33295241Y99072260D01*
X33236712Y98984371D01*
X33159316Y98907479D01*
X33065672Y98843410D01*
X32958397Y98793988D01*
X32840112Y98761037D01*
X32820939Y98757531D01*
X32705883Y98745587D01*
X32586659Y98746945D01*
X32471420Y98761145D01*
X32368317Y98787725D01*
X32320065Y98805802D01*
X32218546Y98856068D01*
X32135280Y98917756D01*
X32067606Y98993089D01*
X32012859Y99084289D01*
X32009787Y99090682D01*
X31979897Y99180206D01*
X31968408Y99277589D01*
X31971193Y99319760D01*
X32265062Y99319760D01*
X32267094Y99264830D01*
X32268208Y99258548D01*
X32286154Y99208775D01*
X32320847Y99167484D01*
X32375681Y99130480D01*
X32392315Y99121950D01*
X32478760Y99092288D01*
X32583313Y99077291D01*
X32705700Y99077003D01*
X32787010Y99084890D01*
X32881078Y99105671D01*
X32956226Y99137767D01*
X33011706Y99180833D01*
X33046769Y99234523D01*
X33057015Y99265927D01*
X33059252Y99322801D01*
X33038706Y99374688D01*
X32995604Y99421143D01*
X32930176Y99461720D01*
X32867374Y99486715D01*
X32780899Y99507250D01*
X32689216Y99516519D01*
X32596823Y99514914D01*
X32508217Y99502828D01*
X32427896Y99480654D01*
X32360357Y99448784D01*
X32310097Y99407609D01*
X32280627Y99366882D01*
X32265062Y99319760D01*
X31971193Y99319760D01*
X31974970Y99376957D01*
X31999238Y99472436D01*
X32040865Y99558153D01*
X32045933Y99565929D01*
X32109145Y99642523D01*
X32188613Y99709942D01*
X32277895Y99762629D01*
X32317115Y99780387D01*
X32396315Y99810104D01*
X32473953Y99829068D01*
X32558162Y99838968D01*
X32657072Y99841498D01*
X32689216Y99839956D01*
G37*
G36*
X32259541Y86956369D02*
G01*
X32657072Y86956369D01*
X33321778Y86956369D01*
X33321778Y86791664D01*
X33321778Y86626958D01*
X33080601Y86626958D01*
X33059749Y86626946D01*
X32981302Y86626555D01*
X32923106Y86625484D01*
X32882491Y86623552D01*
X32856785Y86620582D01*
X32843320Y86616393D01*
X32839425Y86610809D01*
X32843716Y86605212D01*
X32865297Y86588088D01*
X32902570Y86562196D01*
X32952741Y86529394D01*
X33013016Y86491539D01*
X33080601Y86450487D01*
X33321778Y86306314D01*
X33321778Y86113695D01*
X33321583Y86067786D01*
X33320699Y86009439D01*
X33319225Y85962943D01*
X33317296Y85932191D01*
X33315048Y85921075D01*
X33306860Y85925819D01*
X33281735Y85942597D01*
X33242364Y85969746D01*
X33191375Y86005435D01*
X33131394Y86047837D01*
X33065048Y86095121D01*
X33009660Y86134711D01*
X32947449Y86179080D01*
X32893414Y86217512D01*
X32850292Y86248065D01*
X32820820Y86268794D01*
X32807735Y86277759D01*
X32802598Y86278722D01*
X32785293Y86266118D01*
X32762699Y86233467D01*
X32747811Y86210596D01*
X32704556Y86158681D01*
X32652689Y86110048D01*
X32598808Y86070503D01*
X32549511Y86045853D01*
X32515193Y86037270D01*
X32462402Y86029806D01*
X32408358Y86026958D01*
X32323745Y86034331D01*
X32234073Y86061716D01*
X32156916Y86108542D01*
X32093269Y86173981D01*
X32044131Y86257206D01*
X32010499Y86357389D01*
X32009721Y86360772D01*
X32003164Y86398787D01*
X31998329Y86448135D01*
X31995055Y86511858D01*
X31993179Y86593001D01*
X31992965Y86626958D01*
X32259541Y86626958D01*
X32266512Y86543808D01*
X32274295Y86486950D01*
X32293616Y86427609D01*
X32324300Y86387186D01*
X32367733Y86364043D01*
X32425303Y86356543D01*
X32481168Y86363604D01*
X32528841Y86388177D01*
X32560798Y86429958D01*
X32570115Y86456314D01*
X32580425Y86500448D01*
X32587538Y86548123D01*
X32595615Y86626958D01*
X32427578Y86626958D01*
X32259541Y86626958D01*
X31992965Y86626958D01*
X31992540Y86694605D01*
X31992366Y86956369D01*
X32259541Y86956369D01*
G37*
G36*
X33102588Y85555943D02*
G01*
X33116822Y85546926D01*
X33142278Y85525995D01*
X33173952Y85497231D01*
X33235988Y85425789D01*
X33289890Y85335516D01*
X33327428Y85237401D01*
X33334750Y85203965D01*
X33341311Y85136528D01*
X33341520Y85049778D01*
X33339914Y85006496D01*
X33336257Y84958593D01*
X33329675Y84921341D01*
X33318664Y84887125D01*
X33301717Y84848327D01*
X33259438Y84773456D01*
X33196544Y84699417D01*
X33122244Y84645355D01*
X33037448Y84611902D01*
X32943070Y84599691D01*
X32908334Y84599971D01*
X32827734Y84608937D01*
X32758947Y84631302D01*
X32695392Y84668905D01*
X32659714Y84698716D01*
X32620197Y84743123D01*
X32581619Y84800504D01*
X32541806Y84874153D01*
X32498585Y84967366D01*
X32468478Y85033808D01*
X32441909Y85085648D01*
X32418655Y85120930D01*
X32396368Y85142548D01*
X32372701Y85153397D01*
X32345307Y85156369D01*
X32322688Y85154233D01*
X32282656Y85135166D01*
X32255612Y85096986D01*
X32242252Y85040478D01*
X32241962Y85037297D01*
X32244363Y84970499D01*
X32265074Y84907696D01*
X32306019Y84842931D01*
X32323324Y84819501D01*
X32338716Y84796548D01*
X32343171Y84786578D01*
X32336207Y84780973D01*
X32314222Y84763069D01*
X32281081Y84735995D01*
X32240672Y84702924D01*
X32141920Y84622044D01*
X32107215Y84662736D01*
X32074713Y84703121D01*
X32023219Y84783636D01*
X31990101Y84866360D01*
X31973329Y84957248D01*
X31970870Y85062252D01*
X31972609Y85103171D01*
X31976537Y85151806D01*
X31983372Y85189679D01*
X31994694Y85224534D01*
X32012086Y85264118D01*
X32037146Y85311134D01*
X32095319Y85387407D01*
X32165749Y85443807D01*
X32247937Y85479984D01*
X32341384Y85495587D01*
X32405463Y85495157D01*
X32477240Y85482351D01*
X32540709Y85454324D01*
X32597869Y85409426D01*
X32650718Y85346007D01*
X32701253Y85262419D01*
X32751473Y85157012D01*
X32770049Y85115754D01*
X32794909Y85064545D01*
X32817370Y85022399D01*
X32834173Y84995673D01*
X32852899Y84975282D01*
X32896304Y84948198D01*
X32943820Y84938287D01*
X32990094Y84945240D01*
X33029770Y84968750D01*
X33057495Y85008509D01*
X33066712Y85035335D01*
X33074438Y85106028D01*
X33060835Y85179022D01*
X33026768Y85251132D01*
X32973102Y85319173D01*
X32908308Y85385781D01*
X33000337Y85470737D01*
X33030337Y85497982D01*
X33064648Y85527898D01*
X33089830Y85548365D01*
X33101894Y85556031D01*
X33102588Y85555943D01*
G37*
G36*
X32914117Y98312043D02*
G01*
X32919317Y98313013D01*
X33003473Y98309502D01*
X33081682Y98287175D01*
X33118297Y98268134D01*
X33187273Y98214117D01*
X33246757Y98142498D01*
X33294105Y98056806D01*
X33326667Y97960570D01*
X33341145Y97874092D01*
X33341854Y97754737D01*
X33321496Y97637108D01*
X33280642Y97526600D01*
X33274984Y97515287D01*
X33221773Y97434254D01*
X33156226Y97370822D01*
X33080930Y97326178D01*
X32998470Y97301503D01*
X32911433Y97297982D01*
X32822403Y97316800D01*
X32788504Y97332435D01*
X32736669Y97368064D01*
X32687575Y97413524D01*
X32649044Y97462252D01*
X32630336Y97491664D01*
X32582382Y97437421D01*
X32558250Y97412492D01*
X32492239Y97365144D01*
X32417901Y97339670D01*
X32333985Y97335558D01*
X32294064Y97340133D01*
X32227550Y97358725D01*
X32167749Y97393096D01*
X32107833Y97446596D01*
X32101590Y97453136D01*
X32038629Y97535449D01*
X31996340Y97626946D01*
X31974203Y97729138D01*
X31972749Y97795610D01*
X32229110Y97795610D01*
X32240152Y97740004D01*
X32269634Y97698026D01*
X32315948Y97671500D01*
X32377482Y97662252D01*
X32397521Y97662522D01*
X32430523Y97666505D01*
X32455136Y97678417D01*
X32481778Y97702252D01*
X32486847Y97707385D01*
X32509374Y97734709D01*
X32519457Y97762165D01*
X32521778Y97801349D01*
X32521115Y97817857D01*
X32745252Y97817857D01*
X32748714Y97761748D01*
X32772012Y97708109D01*
X32804169Y97671364D01*
X32854291Y97640982D01*
X32909938Y97629689D01*
X32966516Y97637454D01*
X33019431Y97664247D01*
X33064091Y97710038D01*
X33082463Y97743590D01*
X33094019Y97798513D01*
X33086649Y97852760D01*
X33062663Y97902175D01*
X33024372Y97942601D01*
X32974087Y97969880D01*
X32914117Y97979855D01*
X32882529Y97976679D01*
X32830264Y97955848D01*
X32788389Y97919423D01*
X32759264Y97871921D01*
X32745252Y97817857D01*
X32521115Y97817857D01*
X32520669Y97828943D01*
X32512074Y97864941D01*
X32491981Y97895858D01*
X32470925Y97916797D01*
X32423905Y97943452D01*
X32373380Y97951912D01*
X32324090Y97943403D01*
X32280779Y97919153D01*
X32248188Y97880388D01*
X32231059Y97828336D01*
X32229110Y97795610D01*
X31972749Y97795610D01*
X31971700Y97843538D01*
X31978088Y97902072D01*
X32004701Y98004227D01*
X32049205Y98095162D01*
X32110113Y98172176D01*
X32185939Y98232571D01*
X32202847Y98242557D01*
X32238492Y98258784D01*
X32277602Y98267768D01*
X32330178Y98272260D01*
X32332689Y98272383D01*
X32373380Y98271499D01*
X32408173Y98270743D01*
X32469416Y98256087D01*
X32523102Y98225832D01*
X32575919Y98177399D01*
X32581628Y98171311D01*
X32609310Y98143007D01*
X32626286Y98129721D01*
X32636690Y98129139D01*
X32644655Y98138948D01*
X32659705Y98161927D01*
X32703307Y98211519D01*
X32755505Y98255747D01*
X32807342Y98286491D01*
X32837371Y98297729D01*
X32914117Y98312043D01*
G37*
G36*
X26545307Y81991664D02*
G01*
X27880601Y81991664D01*
X30145307Y81991664D01*
X30145307Y81432840D01*
X30145307Y80874017D01*
X29315895Y80874017D01*
X28486484Y80874017D01*
X28486484Y80822925D01*
X28486484Y80771834D01*
X29315781Y80272925D01*
X30145079Y79774017D01*
X30145193Y79106369D01*
X30145145Y79013246D01*
X30144893Y78895667D01*
X30144445Y78786981D01*
X30143822Y78689281D01*
X30143042Y78604655D01*
X30142126Y78535196D01*
X30141095Y78482993D01*
X30139969Y78450139D01*
X30138767Y78438722D01*
X30138434Y78438862D01*
X30125500Y78447426D01*
X30094972Y78468590D01*
X30048197Y78501399D01*
X29986522Y78544897D01*
X29911296Y78598128D01*
X29823867Y78660136D01*
X29725581Y78729966D01*
X29617788Y78806662D01*
X29501834Y78889268D01*
X29379068Y78976828D01*
X29250836Y79068386D01*
X29233740Y79080599D01*
X29105905Y79171857D01*
X28983555Y79259095D01*
X28868054Y79341346D01*
X28760769Y79417642D01*
X28663063Y79487017D01*
X28576301Y79548502D01*
X28501850Y79601131D01*
X28441072Y79643935D01*
X28395334Y79675948D01*
X28366000Y79696202D01*
X28354436Y79703729D01*
X28353353Y79703977D01*
X28339451Y79694398D01*
X28318752Y79665121D01*
X28292725Y79618183D01*
X28225243Y79498446D01*
X28129690Y79358942D01*
X28023314Y79231704D01*
X27908765Y79119546D01*
X27788692Y79025284D01*
X27665743Y78951735D01*
X27525664Y78892952D01*
X27370428Y78850004D01*
X27206887Y78824413D01*
X27038860Y78816165D01*
X26870164Y78825246D01*
X26704617Y78851643D01*
X26546040Y78895341D01*
X26398248Y78956326D01*
X26345417Y78983991D01*
X26205272Y79075032D01*
X26079577Y79184489D01*
X25968501Y79312118D01*
X25872214Y79457676D01*
X25790884Y79620918D01*
X25724681Y79801602D01*
X25673774Y79999484D01*
X25667995Y80027527D01*
X25657904Y80079643D01*
X25649190Y80130552D01*
X25641756Y80182315D01*
X25635501Y80236994D01*
X25630327Y80296649D01*
X25626133Y80363342D01*
X25622821Y80439135D01*
X25620291Y80526089D01*
X25618443Y80626265D01*
X25617180Y80741724D01*
X25616403Y80874017D01*
X26545307Y80874017D01*
X26545511Y80747546D01*
X26545662Y80721187D01*
X26552100Y80560975D01*
X26568365Y80421351D01*
X26594975Y80301402D01*
X26632449Y80200212D01*
X26681304Y80116866D01*
X26742059Y80050451D01*
X26815232Y80000050D01*
X26901342Y79964749D01*
X27000906Y79943634D01*
X27114721Y79937332D01*
X27222984Y79949289D01*
X27321775Y79978770D01*
X27408184Y80024904D01*
X27479302Y80086821D01*
X27499309Y80110297D01*
X27547170Y80180736D01*
X27585394Y80262787D01*
X27616879Y80362252D01*
X27624865Y80395812D01*
X27633485Y80445309D01*
X27639880Y80503385D01*
X27644563Y80575019D01*
X27648048Y80665193D01*
X27654359Y80874017D01*
X27099833Y80874017D01*
X26545307Y80874017D01*
X25616403Y80874017D01*
X25616400Y80874528D01*
X25616005Y81026738D01*
X25615895Y81200415D01*
X25615895Y81991664D01*
X26545307Y81991664D01*
G37*
G36*
X26474719Y86979899D02*
G01*
X27881215Y86979899D01*
X28225279Y86979899D01*
X30146535Y86979899D01*
X30142008Y85988722D01*
X30141824Y85948599D01*
X30141013Y85777242D01*
X30140230Y85627366D01*
X30139432Y85497289D01*
X30138573Y85385329D01*
X30137610Y85289801D01*
X30136498Y85209025D01*
X30135193Y85141315D01*
X30133650Y85084991D01*
X30131825Y85038368D01*
X30129674Y84999765D01*
X30127153Y84967497D01*
X30124216Y84939884D01*
X30120820Y84915240D01*
X30116921Y84891885D01*
X30112473Y84868134D01*
X30107539Y84843088D01*
X30065380Y84661835D01*
X30015280Y84500526D01*
X29956171Y84356857D01*
X29886986Y84228525D01*
X29806658Y84113227D01*
X29714118Y84008660D01*
X29604012Y83910147D01*
X29481946Y83827585D01*
X29350363Y83764539D01*
X29207532Y83720337D01*
X29051721Y83694308D01*
X28881198Y83685781D01*
X28874279Y83685792D01*
X28779772Y83688227D01*
X28696337Y83694603D01*
X28630105Y83704466D01*
X28516405Y83734573D01*
X28372679Y83793350D01*
X28238787Y83872484D01*
X28116066Y83970865D01*
X28005857Y84087379D01*
X27909499Y84220915D01*
X27828330Y84370360D01*
X27820844Y84386668D01*
X27798731Y84437400D01*
X27780103Y84483671D01*
X27768372Y84517135D01*
X27753946Y84566135D01*
X27707063Y84495927D01*
X27634083Y84400671D01*
X27528401Y84296363D01*
X27406692Y84206691D01*
X27271474Y84133462D01*
X27125267Y84078484D01*
X27100173Y84071540D01*
X26999660Y84052278D01*
X26886559Y84041475D01*
X26768258Y84039340D01*
X26652142Y84046086D01*
X26545598Y84061923D01*
X26468767Y84079827D01*
X26347704Y84119258D01*
X26239891Y84171313D01*
X26139664Y84238947D01*
X26041358Y84325118D01*
X25995064Y84372573D01*
X25924843Y84457661D01*
X25862990Y84552466D01*
X25804691Y84663877D01*
X25801903Y84669763D01*
X25741943Y84817387D01*
X25693196Y84982064D01*
X25655313Y85165184D01*
X25627947Y85368134D01*
X25627690Y85370778D01*
X25625640Y85405071D01*
X25623704Y85460218D01*
X25621914Y85533835D01*
X25620305Y85623538D01*
X25618908Y85726943D01*
X25617756Y85841666D01*
X25617444Y85885781D01*
X26474719Y85885781D01*
X26474719Y85726462D01*
X26474942Y85696322D01*
X26482919Y85557003D01*
X26502665Y85437554D01*
X26534631Y85337300D01*
X26579268Y85255569D01*
X26637027Y85191687D01*
X26708357Y85144979D01*
X26793709Y85114773D01*
X26893535Y85100395D01*
X26996653Y85100492D01*
X27103979Y85118037D01*
X27197309Y85154483D01*
X27276808Y85209948D01*
X27342642Y85284553D01*
X27394977Y85378418D01*
X27433979Y85491664D01*
X27434689Y85494458D01*
X27442280Y85535338D01*
X27449467Y85591963D01*
X27455470Y85657225D01*
X27459509Y85724017D01*
X27466446Y85885781D01*
X28225279Y85885781D01*
X28230788Y85594605D01*
X28233062Y85500553D01*
X28237298Y85400237D01*
X28243654Y85316837D01*
X28252768Y85246678D01*
X28265276Y85186083D01*
X28281817Y85131376D01*
X28303028Y85078882D01*
X28329545Y85024924D01*
X28376117Y84950856D01*
X28441869Y84881452D01*
X28520502Y84830897D01*
X28613358Y84798361D01*
X28721778Y84783019D01*
X28731462Y84782500D01*
X28844532Y84786972D01*
X28945308Y84811451D01*
X29033566Y84855752D01*
X29109083Y84919688D01*
X29171633Y85003073D01*
X29220993Y85105721D01*
X29256938Y85227445D01*
X29263536Y85264012D01*
X29270142Y85320993D01*
X29275481Y85394516D01*
X29279716Y85486906D01*
X29283009Y85600487D01*
X29289577Y85885781D01*
X28757428Y85885781D01*
X28225279Y85885781D01*
X27466446Y85885781D01*
X26970582Y85885781D01*
X26474719Y85885781D01*
X25617444Y85885781D01*
X25616882Y85965322D01*
X25616319Y86095528D01*
X25616099Y86229899D01*
X25615895Y86979899D01*
X26474719Y86979899D01*
G37*
G36*
X30134597Y94181238D02*
G01*
X30137457Y94165983D01*
X30139797Y94138586D01*
X30141659Y94097419D01*
X30143087Y94040856D01*
X30144123Y93967271D01*
X30144809Y93875037D01*
X30145190Y93762527D01*
X30145307Y93628116D01*
X30145307Y93065307D01*
X30012954Y93045273D01*
X29821181Y93016191D01*
X29583205Y92979954D01*
X29353607Y92944825D01*
X29133379Y92910963D01*
X28923515Y92878526D01*
X28725007Y92847672D01*
X28538849Y92818558D01*
X28366033Y92791342D01*
X28207552Y92766182D01*
X28064399Y92743235D01*
X27937567Y92722660D01*
X27828049Y92704615D01*
X27736838Y92689256D01*
X27664926Y92676742D01*
X27613307Y92667230D01*
X27582973Y92660879D01*
X27574918Y92657846D01*
X27577302Y92656953D01*
X27598537Y92649139D01*
X27639960Y92633964D01*
X27700147Y92611946D01*
X27777675Y92583607D01*
X27871118Y92549467D01*
X27979051Y92510046D01*
X28100051Y92465863D01*
X28232693Y92417440D01*
X28375552Y92365297D01*
X28527205Y92309953D01*
X28686225Y92251930D01*
X28851189Y92191746D01*
X28909207Y92170581D01*
X29072185Y92111119D01*
X29228682Y92054012D01*
X29377277Y91999779D01*
X29516551Y91948939D01*
X29645084Y91902011D01*
X29761453Y91859513D01*
X29864240Y91821965D01*
X29952024Y91789884D01*
X30023384Y91763790D01*
X30076900Y91744202D01*
X30111152Y91731637D01*
X30124719Y91726616D01*
X30129265Y91724145D01*
X30134737Y91717113D01*
X30138811Y91703556D01*
X30141690Y91680641D01*
X30143576Y91645533D01*
X30144673Y91595399D01*
X30145182Y91527404D01*
X30145307Y91438715D01*
X30145307Y91158872D01*
X30071778Y91129684D01*
X30070669Y91129245D01*
X30047822Y91120294D01*
X30004705Y91103484D01*
X29942834Y91079404D01*
X29863728Y91048644D01*
X29768901Y91011792D01*
X29659871Y90969438D01*
X29538155Y90922170D01*
X29405270Y90870579D01*
X29262731Y90815252D01*
X29112057Y90756779D01*
X28954763Y90695750D01*
X28792366Y90632752D01*
X28764400Y90621903D01*
X28604480Y90559822D01*
X28450944Y90500144D01*
X28305207Y90443424D01*
X28168683Y90390216D01*
X28042787Y90341072D01*
X27928932Y90296548D01*
X27828534Y90257195D01*
X27743007Y90223569D01*
X27673765Y90196222D01*
X27622222Y90175708D01*
X27589794Y90162580D01*
X27577894Y90157393D01*
X27578022Y90157179D01*
X27592012Y90154155D01*
X27627605Y90148302D01*
X27683323Y90139828D01*
X27757685Y90128939D01*
X27849213Y90115843D01*
X27956427Y90100747D01*
X28077850Y90083858D01*
X28212000Y90065383D01*
X28357400Y90045529D01*
X28512571Y90024503D01*
X28676032Y90002513D01*
X28846306Y89979766D01*
X28871577Y89976400D01*
X29041453Y89953722D01*
X29204608Y89931847D01*
X29359534Y89910983D01*
X29504720Y89891336D01*
X29638656Y89873115D01*
X29759834Y89856526D01*
X29866743Y89841777D01*
X29957873Y89829075D01*
X30031716Y89818628D01*
X30086761Y89810642D01*
X30121499Y89805326D01*
X30134421Y89802885D01*
X30135709Y89799255D01*
X30138032Y89774992D01*
X30139935Y89729237D01*
X30141398Y89663352D01*
X30142403Y89578704D01*
X30142931Y89476655D01*
X30142963Y89358569D01*
X30142479Y89225812D01*
X30139425Y88655606D01*
X27892366Y89040687D01*
X27855108Y89047071D01*
X27629325Y89085751D01*
X27409858Y89123329D01*
X27197832Y89159614D01*
X26994371Y89194414D01*
X26800601Y89227537D01*
X26617647Y89258792D01*
X26446634Y89287986D01*
X26288686Y89314928D01*
X26144928Y89339425D01*
X26016487Y89361287D01*
X25904486Y89380321D01*
X25810050Y89396336D01*
X25734305Y89409139D01*
X25678376Y89418539D01*
X25643388Y89424344D01*
X25630465Y89426362D01*
X25629369Y89426706D01*
X25625714Y89433925D01*
X25622816Y89451884D01*
X25620628Y89482408D01*
X25619103Y89527325D01*
X25618194Y89588460D01*
X25617855Y89667641D01*
X25618039Y89766695D01*
X25618700Y89887447D01*
X25621778Y90347937D01*
X26973414Y90868733D01*
X27121887Y90925949D01*
X27287708Y90989871D01*
X27446480Y91051098D01*
X27596846Y91109105D01*
X27737453Y91163369D01*
X27866944Y91213367D01*
X27983964Y91258574D01*
X28087158Y91298468D01*
X28175171Y91332524D01*
X28246647Y91360220D01*
X28300231Y91381030D01*
X28334568Y91394433D01*
X28348303Y91399904D01*
X28349019Y91400636D01*
X28344528Y91405156D01*
X28329334Y91413395D01*
X28302563Y91425694D01*
X28263340Y91442393D01*
X28210788Y91463831D01*
X28144035Y91490349D01*
X28062204Y91522287D01*
X27964421Y91559984D01*
X27849810Y91603780D01*
X27717498Y91654015D01*
X27566608Y91711030D01*
X27396266Y91775164D01*
X27205597Y91846756D01*
X26993726Y91926147D01*
X25615895Y92442015D01*
X25615895Y92904282D01*
X25615895Y92912962D01*
X25615963Y93028194D01*
X25616218Y93122223D01*
X25616755Y93197229D01*
X25617672Y93255389D01*
X25619062Y93298884D01*
X25621023Y93329890D01*
X25623650Y93350587D01*
X25627038Y93363153D01*
X25631284Y93369766D01*
X25636484Y93372606D01*
X25636835Y93372695D01*
X25652713Y93375789D01*
X25690499Y93382818D01*
X25749062Y93393577D01*
X25827271Y93407861D01*
X25923996Y93425466D01*
X26038104Y93446186D01*
X26168466Y93469818D01*
X26313949Y93496157D01*
X26473424Y93524998D01*
X26645758Y93556136D01*
X26829821Y93589367D01*
X27024482Y93624485D01*
X27228610Y93661288D01*
X27441073Y93699568D01*
X27660742Y93739123D01*
X27886484Y93779748D01*
X27911627Y93784271D01*
X28136653Y93824769D01*
X28355427Y93864167D01*
X28566821Y93902259D01*
X28769709Y93938842D01*
X28962964Y93973711D01*
X29145457Y94006664D01*
X29316063Y94037496D01*
X29473655Y94066003D01*
X29617104Y94091980D01*
X29745284Y94115225D01*
X29857069Y94135533D01*
X29951330Y94152699D01*
X30026941Y94166521D01*
X30082774Y94176794D01*
X30117704Y94183315D01*
X30130601Y94185878D01*
X30131173Y94185976D01*
X30134597Y94181238D01*
G37*
%TO.C,J5*%
X48852600Y42411400D02*
X46192600Y42411400D01*
X48852600Y52631400D02*
X48852600Y42411400D01*
X48852600Y52631400D02*
X46192600Y52631400D01*
X47522600Y55231400D02*
X46192600Y55231400D01*
X46192600Y52631400D02*
X46192600Y42411400D01*
X46192600Y55231400D02*
X46192600Y53901400D01*
%TO.C,G\u002A\u002A\u002A*%
G36*
X71521881Y13849095D02*
G01*
X71683646Y13845822D01*
X71686702Y13192881D01*
X71687026Y13114775D01*
X71687357Y12996848D01*
X71687473Y12887204D01*
X71687383Y12788019D01*
X71687094Y12701473D01*
X71686616Y12629743D01*
X71685957Y12575008D01*
X71685126Y12539446D01*
X71684130Y12525234D01*
X71682688Y12523096D01*
X71668553Y12517271D01*
X71638237Y12513380D01*
X71589302Y12511205D01*
X71519309Y12510528D01*
X71360117Y12510528D01*
X71360117Y13181448D01*
X71360117Y13852369D01*
X71521881Y13849095D01*
G37*
G36*
X70654234Y13848425D02*
G01*
X70789528Y13845822D01*
X70792584Y13192881D01*
X70792908Y13114829D01*
X70793233Y12996879D01*
X70793340Y12887201D01*
X70793237Y12787973D01*
X70792933Y12701377D01*
X70792436Y12629591D01*
X70791756Y12574795D01*
X70790901Y12539168D01*
X70789880Y12524891D01*
X70787071Y12521396D01*
X70772269Y12516214D01*
X70742775Y12513250D01*
X70695662Y12512292D01*
X70628001Y12513126D01*
X70471881Y12516410D01*
X70471881Y12931119D01*
X70471858Y13017802D01*
X70471782Y13106978D01*
X70471659Y13185889D01*
X70471496Y13251882D01*
X70471299Y13302304D01*
X70471077Y13334503D01*
X70470834Y13345825D01*
X70465700Y13339618D01*
X70447281Y13316795D01*
X70416870Y13278926D01*
X70375931Y13227838D01*
X70325925Y13165355D01*
X70268314Y13093306D01*
X70204563Y13013516D01*
X70136132Y12927812D01*
X69802478Y12509801D01*
X69672474Y12513106D01*
X69542469Y12516410D01*
X69542469Y13181116D01*
X69542469Y13845822D01*
X69701293Y13845822D01*
X69860117Y13845822D01*
X69855973Y13435561D01*
X69855338Y13351961D01*
X69855165Y13263696D01*
X69855547Y13185895D01*
X69856445Y13121170D01*
X69857821Y13072134D01*
X69859637Y13041399D01*
X69861855Y13031578D01*
X69866891Y13036973D01*
X69885456Y13059048D01*
X69916031Y13096330D01*
X69957082Y13146921D01*
X70007078Y13208925D01*
X70064487Y13280444D01*
X70127775Y13359582D01*
X70195411Y13444442D01*
X70518940Y13851027D01*
X70654234Y13848425D01*
G37*
G36*
X66243127Y13862963D02*
G01*
X66356584Y13833020D01*
X66463245Y13784954D01*
X66560803Y13719957D01*
X66646950Y13639223D01*
X66719379Y13543944D01*
X66775784Y13435312D01*
X66813857Y13314520D01*
X66820416Y13280873D01*
X66829210Y13161684D01*
X66816539Y13045035D01*
X66784013Y12933300D01*
X66733238Y12828855D01*
X66665823Y12734076D01*
X66583376Y12651337D01*
X66487505Y12583015D01*
X66379817Y12531485D01*
X66261920Y12499122D01*
X66249721Y12497139D01*
X66169092Y12491607D01*
X66078711Y12495706D01*
X65986744Y12508375D01*
X65901354Y12528553D01*
X65830705Y12555178D01*
X65789528Y12575234D01*
X65786280Y12754697D01*
X65783033Y12934161D01*
X65845104Y12887086D01*
X65919260Y12840859D01*
X66005559Y12810839D01*
X66101293Y12801186D01*
X66162799Y12805384D01*
X66253492Y12829035D01*
X66333008Y12872486D01*
X66399396Y12934547D01*
X66450701Y13014027D01*
X66467528Y13051726D01*
X66477680Y13086575D01*
X66482454Y13126669D01*
X66483646Y13181116D01*
X66482552Y13233740D01*
X66477941Y13274323D01*
X66468033Y13309215D01*
X66451052Y13347487D01*
X66439576Y13368788D01*
X66389305Y13436789D01*
X66325822Y13495266D01*
X66256301Y13537230D01*
X66249785Y13540024D01*
X66178411Y13559006D01*
X66097846Y13563515D01*
X66016422Y13553747D01*
X65942469Y13529895D01*
X65908946Y13513182D01*
X65863282Y13486819D01*
X65827764Y13462347D01*
X65783646Y13427066D01*
X65783646Y13608525D01*
X65783646Y13789984D01*
X65843849Y13815882D01*
X65885048Y13832133D01*
X66005052Y13863712D01*
X66125181Y13873592D01*
X66243127Y13862963D01*
G37*
G36*
X68179058Y13569352D02*
G01*
X68180819Y13192881D01*
X68181144Y13114775D01*
X68181475Y12996848D01*
X68181591Y12887204D01*
X68181500Y12788019D01*
X68181212Y12701473D01*
X68180734Y12629743D01*
X68180075Y12575008D01*
X68179243Y12539446D01*
X68178247Y12525234D01*
X68176805Y12523096D01*
X68162671Y12517271D01*
X68132355Y12513380D01*
X68083419Y12511205D01*
X68013427Y12510528D01*
X67854234Y12510528D01*
X67854234Y12745822D01*
X67854234Y12981116D01*
X67750824Y12981116D01*
X67718163Y12981726D01*
X67600759Y12995377D01*
X67497418Y13026666D01*
X67408932Y13075187D01*
X67336100Y13140531D01*
X67279714Y13222293D01*
X67275871Y13229586D01*
X67263355Y13256236D01*
X67255324Y13282188D01*
X67250798Y13313498D01*
X67248800Y13356221D01*
X67248365Y13414695D01*
X67571881Y13414695D01*
X67571886Y13412091D01*
X67574392Y13369015D01*
X67583484Y13338861D01*
X67602049Y13311775D01*
X67604920Y13308521D01*
X67638291Y13281505D01*
X67675579Y13263879D01*
X67695221Y13259631D01*
X67739867Y13254003D01*
X67786587Y13251770D01*
X67854234Y13251705D01*
X67854234Y13410528D01*
X67854234Y13569352D01*
X67771503Y13569352D01*
X67759961Y13569266D01*
X67687171Y13563052D01*
X67633873Y13545965D01*
X67598163Y13516527D01*
X67578134Y13473263D01*
X67571881Y13414695D01*
X67248365Y13414695D01*
X67248352Y13416410D01*
X67248371Y13432874D01*
X67249105Y13488301D01*
X67251627Y13527723D01*
X67256913Y13557198D01*
X67265941Y13582781D01*
X67279688Y13610528D01*
X67313976Y13663779D01*
X67380007Y13732223D01*
X67460117Y13784171D01*
X67482679Y13794931D01*
X67522741Y13811519D01*
X67563646Y13824143D01*
X67609173Y13833319D01*
X67663099Y13839561D01*
X67729203Y13843382D01*
X67811263Y13845298D01*
X67913058Y13845822D01*
X68177764Y13845822D01*
X68179058Y13569352D01*
G37*
G36*
X65277764Y13595622D02*
G01*
X65277764Y13182502D01*
X65277764Y13075234D01*
X65277764Y12510528D01*
X65015999Y12510617D01*
X65009219Y12510622D01*
X64884732Y12511947D01*
X64780679Y12516002D01*
X64694205Y12523365D01*
X64622453Y12534612D01*
X64562567Y12550322D01*
X64511691Y12571071D01*
X64466968Y12597438D01*
X64425541Y12630000D01*
X64397055Y12657217D01*
X64353585Y12714628D01*
X64327489Y12779714D01*
X64315631Y12859010D01*
X64316475Y12926284D01*
X64317581Y12931271D01*
X64632649Y12931271D01*
X64638465Y12881405D01*
X64661927Y12835707D01*
X64703293Y12799454D01*
X64735379Y12786445D01*
X64783096Y12777450D01*
X64850161Y12771897D01*
X64960117Y12766146D01*
X64960117Y12920690D01*
X64960117Y13075234D01*
X64863058Y13074976D01*
X64808851Y13073180D01*
X64757244Y13065856D01*
X64715556Y13051823D01*
X64672931Y13022409D01*
X64644223Y12980031D01*
X64632649Y12931271D01*
X64317581Y12931271D01*
X64335403Y13011651D01*
X64374321Y13085516D01*
X64432444Y13146519D01*
X64508985Y13193301D01*
X64567369Y13220085D01*
X64517269Y13266265D01*
X64481603Y13303080D01*
X64444958Y13358966D01*
X64424987Y13422483D01*
X64422262Y13457496D01*
X64726949Y13457496D01*
X64734653Y13408057D01*
X64757599Y13364220D01*
X64795227Y13332325D01*
X64796049Y13331893D01*
X64842500Y13316327D01*
X64898168Y13310528D01*
X64960117Y13310528D01*
X64960117Y13453075D01*
X64960117Y13595622D01*
X64883773Y13590761D01*
X64866629Y13589407D01*
X64812108Y13579595D01*
X64774949Y13561792D01*
X64759511Y13547830D01*
X64735049Y13506200D01*
X64726949Y13457496D01*
X64422262Y13457496D01*
X64418940Y13500168D01*
X64418942Y13501670D01*
X64428903Y13590660D01*
X64458298Y13666572D01*
X64507304Y13729636D01*
X64576099Y13780080D01*
X64664859Y13818132D01*
X64689277Y13825423D01*
X64718820Y13832217D01*
X64752860Y13837403D01*
X64795203Y13841321D01*
X64849656Y13844308D01*
X64920025Y13846703D01*
X65010117Y13848846D01*
X65277764Y13854476D01*
X65277764Y13595622D01*
G37*
G36*
X73270927Y13025813D02*
G01*
X73309701Y12931459D01*
X73348447Y12836971D01*
X73383872Y12750349D01*
X73415022Y12673906D01*
X73440943Y12609955D01*
X73460679Y12560809D01*
X73473277Y12528781D01*
X73473938Y12522733D01*
X73467734Y12517414D01*
X73450862Y12513881D01*
X73420107Y12511787D01*
X73372255Y12510785D01*
X73304090Y12510528D01*
X73127900Y12510528D01*
X73082049Y12636999D01*
X73036198Y12763469D01*
X72793326Y12766646D01*
X72550454Y12769823D01*
X72507254Y12640175D01*
X72464054Y12510528D01*
X72281301Y12510528D01*
X72259708Y12510539D01*
X72196437Y12510862D01*
X72152497Y12511919D01*
X72124610Y12514090D01*
X72109495Y12517759D01*
X72103873Y12523307D01*
X72104465Y12531116D01*
X72105150Y12533179D01*
X72113047Y12553946D01*
X72128619Y12593470D01*
X72150897Y12649364D01*
X72178913Y12719241D01*
X72211697Y12800713D01*
X72248281Y12891394D01*
X72287697Y12988896D01*
X72302412Y13025234D01*
X72642359Y13025234D01*
X72642500Y13024854D01*
X72655834Y13021561D01*
X72687756Y13018878D01*
X72733807Y13017072D01*
X72789528Y13016410D01*
X72795883Y13016419D01*
X72850760Y13017269D01*
X72895472Y13019308D01*
X72925566Y13022251D01*
X72936587Y13025813D01*
X72936585Y13025887D01*
X72932630Y13039891D01*
X72921944Y13072326D01*
X72905768Y13119574D01*
X72885339Y13178018D01*
X72861895Y13244041D01*
X72787202Y13452866D01*
X72714726Y13243462D01*
X72714213Y13241979D01*
X72691517Y13175922D01*
X72671783Y13117599D01*
X72656213Y13070631D01*
X72646005Y13038636D01*
X72642359Y13025234D01*
X72302412Y13025234D01*
X72328975Y13090832D01*
X72371147Y13194815D01*
X72413244Y13298458D01*
X72454298Y13399373D01*
X72493340Y13495174D01*
X72529400Y13583473D01*
X72561512Y13661884D01*
X72588705Y13728018D01*
X72610011Y13779489D01*
X72624462Y13813909D01*
X72631089Y13828893D01*
X72633167Y13832454D01*
X72641647Y13841099D01*
X72656559Y13846704D01*
X72682176Y13849911D01*
X72722772Y13851363D01*
X72782619Y13851705D01*
X72830313Y13851267D01*
X72884422Y13848847D01*
X72918152Y13844151D01*
X72933349Y13836999D01*
X72937373Y13828490D01*
X72949638Y13800130D01*
X72969084Y13754193D01*
X72994755Y13692993D01*
X73025698Y13618842D01*
X73060957Y13534054D01*
X73099578Y13440941D01*
X73140607Y13341816D01*
X73183088Y13238992D01*
X73226067Y13134783D01*
X73268590Y13031501D01*
X73270927Y13025813D01*
G37*
G36*
X75064253Y13849123D02*
G01*
X75200605Y13845822D01*
X75319731Y13186999D01*
X75336305Y13094977D01*
X75357076Y12978578D01*
X75376112Y12870684D01*
X75393056Y12773385D01*
X75407551Y12688773D01*
X75419239Y12618939D01*
X75427762Y12565976D01*
X75432763Y12531974D01*
X75433884Y12519026D01*
X75432483Y12518084D01*
X75413857Y12515214D01*
X75377379Y12513328D01*
X75327489Y12512585D01*
X75268630Y12513143D01*
X75108346Y12516410D01*
X75071200Y12757900D01*
X75058998Y12837338D01*
X75045668Y12924330D01*
X75032897Y13007880D01*
X75021692Y13081383D01*
X75013065Y13138235D01*
X74992076Y13277081D01*
X74870399Y12943805D01*
X74861687Y12919946D01*
X74830526Y12834670D01*
X74801451Y12755195D01*
X74775658Y12684783D01*
X74754341Y12626694D01*
X74738696Y12584189D01*
X74729917Y12560528D01*
X74711112Y12510528D01*
X74630721Y12510528D01*
X74550330Y12510528D01*
X74494521Y12654646D01*
X74474215Y12707076D01*
X74426261Y12830781D01*
X74385853Y12934736D01*
X74352321Y13020541D01*
X74324998Y13089793D01*
X74303214Y13144090D01*
X74286301Y13185029D01*
X74273589Y13214208D01*
X74264409Y13233225D01*
X74258094Y13243679D01*
X74253974Y13247166D01*
X74251379Y13245284D01*
X74249642Y13239632D01*
X74249541Y13239150D01*
X74246245Y13218895D01*
X74240458Y13178820D01*
X74232637Y13122259D01*
X74223236Y13052546D01*
X74212709Y12973014D01*
X74201513Y12886999D01*
X74200812Y12881570D01*
X74189671Y12796039D01*
X74179254Y12717348D01*
X74170012Y12648799D01*
X74162393Y12593691D01*
X74156847Y12555325D01*
X74153824Y12536999D01*
X74152902Y12533105D01*
X74148960Y12523769D01*
X74140317Y12517443D01*
X74123207Y12513540D01*
X74093865Y12511477D01*
X74048525Y12510668D01*
X73983422Y12510528D01*
X73966357Y12510533D01*
X73906210Y12510801D01*
X73865128Y12511867D01*
X73839484Y12514268D01*
X73825654Y12518539D01*
X73820015Y12525217D01*
X73818940Y12534835D01*
X73819466Y12539884D01*
X73823281Y12565886D01*
X73830416Y12611121D01*
X73840432Y12672980D01*
X73852889Y12748860D01*
X73867346Y12836152D01*
X73883364Y12932252D01*
X73900504Y13034552D01*
X73918324Y13140447D01*
X73936385Y13247331D01*
X73954247Y13352596D01*
X73971470Y13453638D01*
X73987614Y13547849D01*
X74002240Y13632624D01*
X74014907Y13705356D01*
X74025176Y13763439D01*
X74032606Y13804267D01*
X74036758Y13825234D01*
X74038367Y13831343D01*
X74043708Y13840952D01*
X74055285Y13846938D01*
X74077422Y13850156D01*
X74114441Y13851460D01*
X74170665Y13851705D01*
X74201158Y13851498D01*
X74257928Y13849283D01*
X74293535Y13844506D01*
X74309566Y13836999D01*
X74314053Y13827938D01*
X74326500Y13798687D01*
X74345452Y13752131D01*
X74369855Y13690918D01*
X74398654Y13617697D01*
X74430796Y13535115D01*
X74465226Y13445822D01*
X74491942Y13376325D01*
X74524427Y13292114D01*
X74553643Y13216700D01*
X74578563Y13152720D01*
X74598161Y13102808D01*
X74611408Y13069601D01*
X74617278Y13055734D01*
X74617406Y13055576D01*
X74623550Y13064379D01*
X74636795Y13092787D01*
X74656193Y13138469D01*
X74680797Y13199091D01*
X74709658Y13272320D01*
X74741829Y13355825D01*
X74776362Y13447271D01*
X74927902Y13852425D01*
X75064253Y13849123D01*
G37*
%TD*%
%LPC*%
D12*
%TO.C,R27*%
X62632600Y101148324D03*
D13*
X55012599Y101148323D03*
%TD*%
D12*
%TO.C,R22*%
X66302600Y117241400D03*
D13*
X58682599Y117241399D03*
%TD*%
D14*
%TO.C,J2*%
X19234299Y20022792D03*
D15*
X19234299Y13542792D03*
D16*
X19234298Y24942791D03*
X19234298Y16642791D03*
%TD*%
D12*
%TO.C,RX2*%
X54022600Y29631400D03*
D13*
X54022599Y37251399D03*
%TD*%
D12*
%TO.C,RX32*%
X65857600Y38316400D03*
D13*
X73477599Y38316399D03*
%TD*%
D12*
%TO.C,R31*%
X76537600Y71336400D03*
D13*
X84157599Y71336399D03*
%TD*%
D14*
%TO.C,J1*%
X19556199Y42757629D03*
D15*
X19556199Y36277629D03*
D16*
X19556198Y47677628D03*
X19556198Y39377628D03*
%TD*%
D17*
%TO.C,REF\u002A\u002A*%
X86787600Y120176400D03*
%TD*%
D12*
%TO.C,R25*%
X62632600Y97810248D03*
D13*
X55012599Y97810247D03*
%TD*%
D18*
%TO.C,D4*%
X59588399Y18694399D03*
D13*
X51968399Y18694399D03*
%TD*%
D12*
%TO.C,RM4*%
X12677600Y69351400D03*
D13*
X12677599Y76971399D03*
%TD*%
D12*
%TO.C,R47*%
X51697600Y61556400D03*
D13*
X51697599Y69176399D03*
%TD*%
D19*
%TO.C,VR1*%
X57832600Y111541400D03*
X60372600Y114081400D03*
X60372600Y111541400D03*
X62912600Y111541400D03*
%TD*%
D12*
%TO.C,RX52*%
X76548200Y52120800D03*
D13*
X84168199Y52120799D03*
%TD*%
D12*
%TO.C,RX3*%
X55012600Y50975775D03*
D13*
X62632599Y50975774D03*
%TD*%
D17*
%TO.C,REF\u002A\u002A*%
X12307600Y120176400D03*
%TD*%
D12*
%TO.C,R20*%
X84157600Y104486400D03*
D13*
X76537599Y104486399D03*
%TD*%
D12*
%TO.C,R32*%
X62632600Y87796020D03*
D13*
X55012599Y87796019D03*
%TD*%
D12*
%TO.C,RX33*%
X73477600Y34796400D03*
D13*
X65857599Y34796399D03*
%TD*%
D12*
%TO.C,R19*%
X76537600Y101071400D03*
D13*
X84157599Y101071399D03*
%TD*%
D12*
%TO.C,RX46*%
X85192600Y38251400D03*
D13*
X85192599Y30631399D03*
%TD*%
D12*
%TO.C,C8*%
X56322600Y71105640D03*
X61322600Y71105640D03*
%TD*%
D18*
%TO.C,C2*%
X66417487Y108141399D03*
D12*
X68417488Y108141400D03*
%TD*%
D17*
%TO.C,REF\u002A\u002A*%
X52547600Y120176400D03*
%TD*%
D12*
%TO.C,R36*%
X51697600Y83376400D03*
D13*
X51697599Y90996399D03*
%TD*%
D12*
%TO.C,R24*%
X69062600Y117241400D03*
D13*
X76682599Y117241399D03*
%TD*%
D12*
%TO.C,R37*%
X55012600Y67767564D03*
D13*
X62632599Y67767563D03*
%TD*%
D12*
%TO.C,RM3*%
X12677600Y81081400D03*
D13*
X12677599Y88701399D03*
%TD*%
D18*
%TO.C,U2*%
X65867599Y101346399D03*
D13*
X65867599Y98806399D03*
X65867599Y96266399D03*
X65867599Y93726399D03*
X65867599Y91186399D03*
X65867599Y88646399D03*
X65867599Y86106399D03*
X73487599Y86106399D03*
X73487599Y88646399D03*
X73487599Y91186399D03*
X73487599Y93726399D03*
X73487599Y96266399D03*
X73487599Y98806399D03*
X73487599Y101346399D03*
%TD*%
D12*
%TO.C,C5*%
X77847600Y94241400D03*
X82847600Y94241400D03*
%TD*%
D18*
%TO.C,D2*%
X76537599Y80831399D03*
D13*
X84157599Y80831399D03*
%TD*%
D20*
%TO.C,QX2*%
X81617599Y38836399D03*
D21*
X80347600Y37566400D03*
X79077600Y38836400D03*
%TD*%
D12*
%TO.C,R1*%
X84157600Y97656400D03*
D13*
X76537599Y97656399D03*
%TD*%
D12*
%TO.C,RM1*%
X46177600Y81081400D03*
D13*
X46177599Y88701399D03*
%TD*%
D12*
%TO.C,CX5*%
X77847600Y44936400D03*
X82847600Y44936400D03*
%TD*%
D22*
%TO.C,VR2*%
X39350000Y102599395D03*
X39350000Y70099395D03*
D23*
X41225000Y62599395D03*
D24*
X37475000Y62599395D03*
X41225000Y112599395D03*
%TD*%
D12*
%TO.C,R21*%
X87322600Y104871400D03*
D13*
X87322599Y97251399D03*
%TD*%
D12*
%TO.C,R35*%
X87322600Y73851400D03*
D13*
X87322599Y81471399D03*
%TD*%
D12*
%TO.C,C6*%
X56322600Y94472172D03*
X61322600Y94472172D03*
%TD*%
D17*
%TO.C,REF\u002A\u002A*%
X52547600Y13206400D03*
%TD*%
D18*
%TO.C,C10*%
X59067487Y23166399D03*
D12*
X61067488Y23166400D03*
%TD*%
%TO.C,R38*%
X55012600Y57741400D03*
D13*
X62632599Y57741399D03*
%TD*%
D12*
%TO.C,R33*%
X62632600Y84457944D03*
D13*
X55012599Y84457943D03*
%TD*%
D18*
%TO.C,U3*%
X65867599Y76446399D03*
D13*
X65867599Y73906399D03*
X65867599Y71366399D03*
X65867599Y68826399D03*
X65867599Y66286399D03*
X65867599Y63746399D03*
X65867599Y61206399D03*
X73487599Y61206399D03*
X73487599Y63746399D03*
X73487599Y66286399D03*
X73487599Y68826399D03*
X73487599Y71366399D03*
X73487599Y73906399D03*
X73487599Y76446399D03*
%TD*%
D18*
%TO.C,D1*%
X84157599Y77916399D03*
D13*
X76537599Y77916399D03*
%TD*%
D18*
%TO.C,U1*%
X65867599Y50071399D03*
D13*
X65867599Y47531399D03*
X65867599Y44991399D03*
X65867599Y42451399D03*
X73487599Y42451399D03*
X73487599Y44991399D03*
X73487599Y47531399D03*
X73487599Y50071399D03*
%TD*%
D12*
%TO.C,C4*%
X68173600Y53263800D03*
X73173600Y53263800D03*
%TD*%
D25*
%TO.C,J4*%
X82240099Y25761399D03*
D26*
X82240100Y23221400D03*
X79700100Y25761400D03*
X79700100Y23221400D03*
X77160100Y25761400D03*
X77160100Y23221400D03*
X74620100Y25761400D03*
X74620100Y23221400D03*
X72080100Y25761400D03*
X72080100Y23221400D03*
%TD*%
D12*
%TO.C,RX1*%
X55012600Y47403900D03*
D13*
X62632599Y47403899D03*
%TD*%
D17*
%TO.C,REF\u002A\u002A*%
X46547600Y13206400D03*
%TD*%
D20*
%TO.C,Q6*%
X72612599Y109411399D03*
D21*
X73882600Y108141400D03*
X72612600Y106871400D03*
%TD*%
D12*
%TO.C,R28*%
X62632600Y91134096D03*
D13*
X55012599Y91134095D03*
%TD*%
D22*
%TO.C,VR3*%
X19567199Y102599395D03*
X19567199Y70099395D03*
D23*
X21442199Y62599395D03*
D24*
X17692199Y62599395D03*
X21442199Y112599395D03*
%TD*%
D12*
%TO.C,R39*%
X84157600Y61091400D03*
D13*
X76537599Y61091399D03*
%TD*%
D12*
%TO.C,R23*%
X51697600Y102936400D03*
D13*
X51697599Y95316399D03*
%TD*%
D12*
%TO.C,R34*%
X76537600Y74751400D03*
D13*
X84157599Y74751399D03*
%TD*%
D14*
%TO.C,J3*%
X39660900Y20022792D03*
D15*
X39660900Y13542792D03*
D16*
X39660899Y24942791D03*
X39660899Y16642791D03*
%TD*%
D12*
%TO.C,RX34*%
X84157600Y48186400D03*
D13*
X76537599Y48186399D03*
%TD*%
D17*
%TO.C,REF\u002A\u002A*%
X12307600Y13206400D03*
%TD*%
D12*
%TO.C,C7*%
X61322600Y42333900D03*
X56322600Y42333900D03*
%TD*%
%TO.C,C9*%
X77847600Y67921400D03*
X82847600Y67921400D03*
%TD*%
D20*
%TO.C,Q5*%
X53512599Y111511399D03*
D21*
X54782600Y110241400D03*
X53512600Y108971400D03*
%TD*%
D12*
%TO.C,R29*%
X62632600Y81119868D03*
D13*
X55012599Y81119867D03*
%TD*%
D18*
%TO.C,D3*%
X65172599Y20541399D03*
D13*
X65172599Y28161399D03*
%TD*%
D12*
%TO.C,RX35*%
X87322600Y41011400D03*
D13*
X87322599Y48631399D03*
%TD*%
D19*
%TO.C,VR4*%
X57482600Y33441400D03*
X60022600Y35981400D03*
X60022600Y33441400D03*
X62562600Y33441400D03*
%TD*%
D17*
%TO.C,REF\u002A\u002A*%
X86787600Y13206400D03*
%TD*%
D12*
%TO.C,R30*%
X84157600Y83996400D03*
D13*
X76537599Y83996399D03*
%TD*%
D12*
%TO.C,RX31*%
X65857600Y31246400D03*
D13*
X73477599Y31246399D03*
%TD*%
D17*
%TO.C,REF\u002A\u002A*%
X46547600Y120176400D03*
%TD*%
D19*
%TO.C,VRX1*%
X78032600Y111041400D03*
X80572600Y113581400D03*
X80572600Y111041400D03*
X83112600Y111041400D03*
%TD*%
D18*
%TO.C,C11*%
X53067487Y23166399D03*
D12*
X55067488Y23166400D03*
%TD*%
%TO.C,RM2*%
X46177600Y69351400D03*
D13*
X46177599Y76971399D03*
%TD*%
D12*
%TO.C,R45*%
X84157600Y64506400D03*
D13*
X76537599Y64506399D03*
%TD*%
D12*
%TO.C,R41*%
X55012600Y74443716D03*
D13*
X62632599Y74443715D03*
%TD*%
D12*
%TO.C,R40*%
X87322600Y91491400D03*
D13*
X87322599Y83871399D03*
%TD*%
D12*
%TO.C,C3*%
X82847600Y87411400D03*
X77847600Y87411400D03*
%TD*%
%TO.C,R26*%
X62632600Y104486400D03*
D13*
X55012599Y104486399D03*
%TD*%
D17*
%TO.C,REF\u002A\u002A*%
X29447600Y117935323D03*
%TD*%
D12*
%TO.C,C1*%
X69272600Y113241400D03*
X74272600Y113241400D03*
%TD*%
%TO.C,CX6*%
X87350600Y56718200D03*
X87350600Y51718200D03*
%TD*%
%TO.C,R44*%
X62632600Y77781792D03*
D13*
X55012599Y77781791D03*
%TD*%
D12*
%TO.C,R43*%
X55012600Y61091400D03*
D13*
X62632599Y61091399D03*
%TD*%
D12*
%TO.C,R46*%
X87322600Y62811400D03*
D13*
X87322599Y70431399D03*
%TD*%
D12*
%TO.C,R42*%
X62632600Y64429488D03*
D13*
X55012599Y64429487D03*
%TD*%
D12*
%TO.C,R18*%
X76537600Y90826400D03*
D13*
X84157599Y90826399D03*
%TD*%
D27*
%TO.C,J6*%
X51522599Y53761399D03*
D28*
X51522599Y51221399D03*
X51522599Y48681399D03*
X51522599Y46141399D03*
X51522599Y43601399D03*
%TD*%
D27*
%TO.C,J5*%
X47522599Y53901399D03*
D28*
X47522599Y51361399D03*
X47522599Y48821399D03*
X47522599Y46281399D03*
X47522599Y43741399D03*
%TD*%
M02*
