M48
; DRILL file {KiCad (7.0.0-0)} date Saturday, 25 February 2023 at 18:04:37
; FORMAT={-:-/ absolute / inch / decimal}
; #@! TF.CreationDate,2023-02-25T18:04:37+01:00
; #@! TF.GenerationSoftware,Kicad,Pcbnew,(7.0.0-0)
; #@! TF.FileFunction,Plated,1,2,PTH
FMAT,2
INCH
; #@! TA.AperFunction,Plated,PTH,ViaDrill
T1C0.0157
; #@! TA.AperFunction,Plated,PTH,ComponentDrill
T2C0.0197
; #@! TA.AperFunction,Plated,PTH,ComponentDrill
T3C0.0236
; #@! TA.AperFunction,Plated,PTH,ComponentDrill
T4C0.0295
; #@! TA.AperFunction,Plated,PTH,ComponentDrill
T5C0.0315
; #@! TA.AperFunction,Plated,PTH,ComponentDrill
T6C0.0320
; #@! TA.AperFunction,Plated,PTH,ComponentDrill
T7C0.0394
; #@! TA.AperFunction,Plated,PTH,ComponentDrill
T8C0.0433
; #@! TA.AperFunction,Plated,PTH,ComponentDrill
T9C0.0591
%
G90
G05
T1
X2.684Y2.7851
X2.6879Y2.6591
X2.689Y2.991
X2.6997Y1.8875
X2.739Y3.991
X2.759Y2.641
X2.8218Y3.4859
X2.8224Y2.8363
X2.8296Y1.5882
X3.1643Y2.6079
T4
X2.1068Y4.3902
X2.1068Y4.2902
X2.1568Y4.3402
X2.8588Y4.3075
X2.8588Y4.2075
X2.9088Y4.2575
X3.1133Y1.529
X3.1633Y1.479
X3.2133Y1.529
T5
X0.4991Y3.4922
X0.4991Y3.1922
X0.4991Y3.0304
X0.4991Y2.7304
X1.818Y3.4922
X1.818Y3.1922
X1.818Y3.0304
X1.818Y2.7304
X2.0353Y4.0526
X2.0353Y3.7526
X2.0353Y3.5825
X2.0353Y3.2825
X2.0353Y2.7235
X2.0353Y2.4235
X2.046Y0.736
X2.0893Y0.9121
X2.1269Y1.4666
X2.1269Y1.1666
X2.1659Y4.1136
X2.1659Y3.9822
X2.1659Y3.8508
X2.1659Y3.588
X2.1659Y3.4565
X2.1659Y3.3251
X2.1659Y3.1937
X2.1659Y3.0623
X2.1659Y2.9309
X2.1659Y2.668
X2.1659Y2.5366
X2.1659Y2.4052
X2.1659Y2.2733
X2.1659Y2.0069
X2.1659Y1.8663
X2.168Y0.9121
X2.2174Y3.7194
X2.2174Y2.7994
X2.2174Y1.6667
X2.3103Y4.6158
X2.3255Y0.9121
X2.346Y0.736
X2.4042Y0.9121
X2.4143Y3.7194
X2.4143Y2.7994
X2.4143Y1.6667
X2.4659Y4.1136
X2.4659Y3.9822
X2.4659Y3.8508
X2.4659Y3.588
X2.4659Y3.4565
X2.4659Y3.3251
X2.4659Y3.1937
X2.4659Y3.0623
X2.4659Y2.9309
X2.4659Y2.668
X2.4659Y2.5366
X2.4659Y2.4052
X2.4659Y2.2733
X2.4659Y2.0069
X2.4659Y1.8663
X2.5659Y1.1087
X2.5659Y0.8087
X2.5928Y1.5085
X2.5928Y1.3699
X2.5928Y1.2302
X2.5932Y3.99
X2.5932Y3.89
X2.5932Y3.79
X2.5932Y3.69
X2.5932Y3.59
X2.5932Y3.49
X2.5932Y3.39
X2.5932Y3.0097
X2.5932Y2.9097
X2.5932Y2.8097
X2.5932Y2.7097
X2.5932Y2.6097
X2.5932Y2.5097
X2.5932Y2.4097
X2.5932Y1.9713
X2.5932Y1.8713
X2.5932Y1.7713
X2.5932Y1.6713
X2.6103Y4.6158
X2.6149Y4.2575
X2.684Y2.097
X2.6936Y4.2575
X2.719Y4.6158
X2.7273Y4.4583
X2.8809Y2.097
X2.8928Y1.5085
X2.8928Y1.3699
X2.8928Y1.2302
X2.8932Y3.99
X2.8932Y3.89
X2.8932Y3.79
X2.8932Y3.69
X2.8932Y3.59
X2.8932Y3.49
X2.8932Y3.39
X2.8932Y3.0097
X2.8932Y2.9097
X2.8932Y2.8097
X2.8932Y2.7097
X2.8932Y2.6097
X2.8932Y2.5097
X2.8932Y2.4097
X2.8932Y1.9713
X2.8932Y1.8713
X2.8932Y1.7713
X2.8932Y1.6713
X2.9241Y4.4583
X3.0133Y4.1136
X3.0133Y3.9792
X3.0133Y3.8447
X3.0133Y3.5758
X3.0133Y3.3069
X3.0133Y3.1823
X3.0133Y3.0676
X3.0133Y2.943
X3.0133Y2.8085
X3.0133Y2.5396
X3.0133Y2.4052
X3.0133Y1.8971
X3.0137Y2.052
X3.019Y4.6158
X3.0649Y3.7103
X3.0649Y3.4414
X3.0649Y2.6741
X3.0649Y1.7691
X3.2617Y3.7103
X3.2617Y3.4414
X3.2617Y2.6741
X3.2617Y1.7691
X3.3133Y4.1136
X3.3133Y3.9792
X3.3133Y3.8447
X3.3133Y3.5758
X3.3133Y3.3069
X3.3133Y3.1823
X3.3133Y3.0676
X3.3133Y2.943
X3.3133Y2.8085
X3.3133Y2.5396
X3.3133Y2.4052
X3.3133Y1.8971
X3.3137Y2.052
X3.354Y1.506
X3.354Y1.206
X3.4379Y4.1288
X3.4379Y3.8288
X3.4379Y3.602
X3.4379Y3.302
X3.4379Y3.2075
X3.4379Y2.9075
X3.4379Y2.7729
X3.4379Y2.4729
X3.4379Y1.9146
X3.4379Y1.6146
X3.439Y2.233
X3.439Y2.0361
T6
X2.2631Y1.3166
X2.2769Y4.3914
X2.3631Y1.4166
X2.3631Y1.3166
X2.3769Y4.4914
X2.3769Y4.3914
X2.4631Y1.3166
X2.4769Y4.3914
X3.0721Y4.3717
X3.1721Y4.4717
X3.1721Y4.3717
X3.2721Y4.3717
T7
X1.871Y2.1221
X1.871Y2.0221
X1.871Y1.9221
X1.871Y1.8221
X1.871Y1.7221
X2.0284Y2.1166
X2.0284Y2.0166
X2.0284Y1.9166
X2.0284Y1.8166
X2.0284Y1.7166
T8
X2.8378Y1.0142
X2.8378Y0.9142
X2.9378Y1.0142
X2.9378Y0.9142
X3.0378Y1.0142
X3.0378Y0.9142
X3.1378Y1.0142
X3.1378Y0.9142
X3.2378Y1.0142
X3.2378Y0.9142
T9
X0.6965Y2.4645
X0.8442Y4.433
X0.8442Y2.4645
X1.4754Y2.4645
X1.623Y4.433
X1.623Y2.4645
T2
G00X0.7376Y0.982
M15
G01X0.7769Y0.982
M16
G05
G00X0.7376Y0.6552
M15
G01X0.7769Y0.6552
M16
G05
G00X0.7502Y1.8771
M15
G01X0.7896Y1.8771
M16
G05
G00X0.7502Y1.5503
M15
G01X0.7896Y1.5503
M16
G05
G00X1.5418Y0.982
M15
G01X1.5811Y0.982
M16
G05
G00X1.5418Y0.6552
M15
G01X1.5811Y0.6552
M16
G05
T3
G00X0.7435Y0.5332
M15
G01X0.771Y0.5332
M16
G05
G00X0.7561Y1.4283
M15
G01X0.7837Y1.4283
M16
G05
G00X1.5477Y0.5332
M15
G01X1.5752Y0.5332
M16
G05
T0
M30
