M48
; DRILL file {KiCad (7.0.0-0)} date Saturday, 25 February 2023 at 11:18:22
; FORMAT={-:-/ absolute / inch / decimal}
; #@! TF.CreationDate,2023-02-25T11:18:22+01:00
; #@! TF.GenerationSoftware,Kicad,Pcbnew,(7.0.0-0)
; #@! TF.FileFunction,Plated,1,2,PTH
FMAT,2
INCH
; #@! TA.AperFunction,Plated,PTH,ViaDrill
T1C0.0157
; #@! TA.AperFunction,Plated,PTH,ComponentDrill
T2C0.0197
; #@! TA.AperFunction,Plated,PTH,ComponentDrill
T3C0.0236
; #@! TA.AperFunction,Plated,PTH,ComponentDrill
T4C0.0295
; #@! TA.AperFunction,Plated,PTH,ComponentDrill
T5C0.0315
; #@! TA.AperFunction,Plated,PTH,ComponentDrill
T6C0.0320
; #@! TA.AperFunction,Plated,PTH,ComponentDrill
T7C0.0394
; #@! TA.AperFunction,Plated,PTH,ComponentDrill
T8C0.0433
; #@! TA.AperFunction,Plated,PTH,ComponentDrill
T9C0.0591
%
G90
G05
T1
X6.815Y-3.7559
X6.8189Y-3.8819
X6.82Y-3.55
X6.8307Y-4.6535
X6.87Y-2.55
X6.89Y-3.9
X6.9528Y-3.0551
X6.9534Y-3.7047
X6.9606Y-4.9528
X7.2953Y-3.9331
T4
X6.2378Y-2.1508
X6.2378Y-2.2508
X6.2878Y-2.2008
X6.9898Y-2.2335
X6.9898Y-2.3335
X7.0398Y-2.2835
X7.2443Y-5.012
X7.2943Y-5.062
X7.3443Y-5.012
T5
X4.4815Y-3.0543
X4.4815Y-3.3543
X4.4815Y-3.5161
X4.4815Y-3.8161
X5.8004Y-3.0543
X5.8004Y-3.3543
X5.8004Y-3.5161
X5.8004Y-3.8161
X6.1663Y-2.4884
X6.1663Y-2.7884
X6.1663Y-2.9585
X6.1663Y-3.2585
X6.1663Y-3.8175
X6.1663Y-4.1175
X6.2203Y-5.6289
X6.2579Y-5.0744
X6.2579Y-5.3744
X6.2969Y-2.4274
X6.2969Y-2.5588
X6.2969Y-2.6902
X6.2969Y-2.953
X6.2969Y-3.0845
X6.2969Y-3.2159
X6.2969Y-3.3473
X6.2969Y-3.4787
X6.2969Y-3.6101
X6.2969Y-3.873
X6.2969Y-4.0044
X6.2969Y-4.1358
X6.2969Y-4.2677
X6.2969Y-4.5341
X6.2969Y-4.6747
X6.299Y-5.6289
X6.3484Y-2.8216
X6.3484Y-3.7416
X6.3484Y-4.8743
X6.4413Y-1.9252
X6.4565Y-5.6289
X6.5352Y-5.6289
X6.5453Y-2.8216
X6.5453Y-3.7416
X6.5453Y-4.8743
X6.5969Y-2.4274
X6.5969Y-2.5588
X6.5969Y-2.6902
X6.5969Y-2.953
X6.5969Y-3.0845
X6.5969Y-3.2159
X6.5969Y-3.3473
X6.5969Y-3.4787
X6.5969Y-3.6101
X6.5969Y-3.873
X6.5969Y-4.0044
X6.5969Y-4.1358
X6.5969Y-4.2677
X6.5969Y-4.5341
X6.5969Y-4.6747
X6.6969Y-5.4323
X6.6969Y-5.7323
X6.7238Y-5.0325
X6.7238Y-5.1711
X6.7238Y-5.3108
X6.7242Y-2.551
X6.7242Y-2.651
X6.7242Y-2.751
X6.7242Y-2.851
X6.7242Y-2.951
X6.7242Y-3.051
X6.7242Y-3.151
X6.7242Y-3.5313
X6.7242Y-3.6313
X6.7242Y-3.7313
X6.7242Y-3.8313
X6.7242Y-3.9313
X6.7242Y-4.0313
X6.7242Y-4.1313
X6.7242Y-4.5697
X6.7242Y-4.6697
X6.7242Y-4.7697
X6.7242Y-4.8697
X6.7413Y-1.9252
X6.7459Y-2.2835
X6.8024Y-5.8346
X6.8157Y-4.3795
X6.8246Y-2.2835
X6.85Y-1.9252
X6.8583Y-2.0827
X7.0126Y-4.3795
X7.0238Y-5.0325
X7.0238Y-5.1711
X7.0238Y-5.3108
X7.0242Y-2.551
X7.0242Y-2.651
X7.0242Y-2.751
X7.0242Y-2.851
X7.0242Y-2.951
X7.0242Y-3.051
X7.0242Y-3.151
X7.0242Y-3.5313
X7.0242Y-3.6313
X7.0242Y-3.7313
X7.0242Y-3.8313
X7.0242Y-3.9313
X7.0242Y-4.0313
X7.0242Y-4.1313
X7.0242Y-4.5697
X7.0242Y-4.6697
X7.0242Y-4.7697
X7.0242Y-4.8697
X7.0551Y-2.0827
X7.1024Y-5.8346
X7.1443Y-2.4274
X7.1443Y-2.5618
X7.1443Y-2.6963
X7.1443Y-2.9652
X7.1443Y-3.2341
X7.1443Y-3.3587
X7.1443Y-3.4734
X7.1443Y-3.598
X7.1443Y-3.7325
X7.1443Y-4.0014
X7.1443Y-4.1358
X7.1443Y-4.4317
X7.1443Y-4.6439
X7.15Y-1.9252
X7.1959Y-2.8307
X7.1959Y-3.0996
X7.1959Y-3.8669
X7.1959Y-4.7719
X7.3927Y-2.8307
X7.3927Y-3.0996
X7.3927Y-3.8669
X7.3927Y-4.7719
X7.4443Y-2.4274
X7.4443Y-2.5618
X7.4443Y-2.6963
X7.4443Y-2.9652
X7.4443Y-3.2341
X7.4443Y-3.3587
X7.4443Y-3.4734
X7.4443Y-3.598
X7.4443Y-3.7325
X7.4443Y-4.0014
X7.4443Y-4.1358
X7.4443Y-4.4317
X7.4443Y-4.6439
X7.485Y-5.035
X7.485Y-5.335
X7.5689Y-2.4122
X7.5689Y-2.7122
X7.5689Y-2.939
X7.5689Y-3.239
X7.5689Y-3.3335
X7.5689Y-3.6335
X7.5689Y-3.7681
X7.5689Y-4.0681
X7.5689Y-4.2547
X7.5689Y-4.4516
X7.5689Y-4.6264
X7.5689Y-4.9264
T6
X6.3941Y-5.2244
X6.4079Y-2.1496
X6.4941Y-5.1244
X6.4941Y-5.2244
X6.5079Y-2.0496
X6.5079Y-2.1496
X6.5941Y-5.2244
X6.6079Y-2.1496
X7.2031Y-2.1693
X7.3031Y-2.0693
X7.3031Y-2.1693
X7.4031Y-2.1693
T7
X5.8533Y-4.4244
X5.8533Y-4.5244
X5.8533Y-4.6244
X5.8533Y-4.7244
X5.8533Y-4.8244
X6.1594Y-4.4244
X6.1594Y-4.5244
X6.1594Y-4.6244
X6.1594Y-4.7244
X6.1594Y-4.8244
T8
X6.9688Y-5.5268
X6.9688Y-5.6268
X7.0688Y-5.5268
X7.0688Y-5.6268
X7.1688Y-5.5268
X7.1688Y-5.6268
X7.2688Y-5.5268
X7.2688Y-5.6268
X7.3688Y-5.5268
X7.3688Y-5.6268
T9
X4.6789Y-4.082
X4.8266Y-2.1135
X4.8266Y-4.082
X5.4578Y-4.082
X5.6054Y-2.1135
X5.6054Y-4.082
T2
G00X4.7326Y-4.6694
M15
G01X4.772Y-4.6694
M16
G05
G00X4.7326Y-4.9962
M15
G01X4.772Y-4.9962
M16
G05
G00X4.7326Y-5.5645
M15
G01X4.772Y-5.5645
M16
G05
G00X4.7326Y-5.8913
M15
G01X4.772Y-5.8913
M16
G05
G00X5.5115Y-5.5645
M15
G01X5.5508Y-5.5645
M16
G05
G00X5.5115Y-5.8913
M15
G01X5.5508Y-5.8913
M16
G05
T3
G00X4.7385Y-5.1183
M15
G01X4.7661Y-5.1183
M16
G05
G00X4.7385Y-6.0133
M15
G01X4.7661Y-6.0133
M16
G05
G00X5.5174Y-6.0133
M15
G01X5.5449Y-6.0133
M16
G05
T0
M30
