M48
; DRILL file {KiCad (7.0.0-rc2-224-g3ecd6ec186)} date Friday, 31 March 2023 at 14:22:28
; FORMAT={-:-/ absolute / inch / decimal}
; #@! TF.CreationDate,2023-03-31T14:22:28+02:00
; #@! TF.GenerationSoftware,Kicad,Pcbnew,(7.0.0-rc2-224-g3ecd6ec186)
; #@! TF.FileFunction,Plated,1,2,PTH
FMAT,2
INCH
; #@! TA.AperFunction,Plated,PTH,ViaDrill
T1C0.0157
; #@! TA.AperFunction,Plated,PTH,ComponentDrill
T2C0.0197
; #@! TA.AperFunction,Plated,PTH,ComponentDrill
T3C0.0236
; #@! TA.AperFunction,Plated,PTH,ComponentDrill
T4C0.0295
; #@! TA.AperFunction,Plated,PTH,ComponentDrill
T5C0.0315
; #@! TA.AperFunction,Plated,PTH,ComponentDrill
T6C0.0320
; #@! TA.AperFunction,Plated,PTH,ComponentDrill
T7C0.0394
; #@! TA.AperFunction,Plated,PTH,ComponentDrill
T8C0.0433
; #@! TA.AperFunction,Plated,PTH,ComponentDrill
T9C0.0591
%
G90
G05
T1
X2.6781Y2.7894
X2.682Y2.6634
X2.6831Y2.9953
X2.6938Y1.8917
X2.7434Y3.98
X2.7531Y2.6453
X2.8159Y3.4902
X2.8165Y2.8313
X2.8237Y1.6173
T4
X2.1009Y4.3945
X2.1009Y4.2945
X2.1509Y4.3445
X2.9811Y4.3083
X3.0311Y4.2583
X3.0811Y4.3083
X3.1074Y1.5333
X3.1574Y1.4833
X3.2074Y1.5333
T5
X0.4932Y3.4965
X0.4932Y3.1965
X0.4932Y3.0346
X0.4932Y2.7346
X1.8121Y3.4965
X1.8121Y3.1965
X1.8121Y3.0346
X1.8121Y2.7346
X2.0294Y4.0569
X2.0294Y3.7569
X2.0294Y3.5868
X2.0294Y3.2868
X2.0294Y2.7278
X2.0294Y2.4278
X2.0834Y0.9163
X2.121Y1.4709
X2.121Y1.1709
X2.1599Y4.1179
X2.1599Y3.9865
X2.1599Y3.8551
X2.1599Y3.5922
X2.1599Y3.4608
X2.1599Y3.3294
X2.1599Y3.198
X2.1599Y3.0666
X2.1599Y2.9351
X2.1599Y2.6723
X2.1599Y2.5409
X2.1599Y2.4094
X2.1599Y2.2776
X2.1599Y2.0112
X2.1599Y1.8753
X2.1621Y0.7403
X2.1621Y0.9163
X2.2115Y2.8037
X2.2551Y3.7223
X2.2722Y1.6733
X2.3196Y0.9163
X2.3961Y4.6873
X2.3983Y0.9163
X2.4084Y2.8037
X2.4519Y3.7223
X2.4599Y4.1179
X2.4599Y3.9865
X2.4599Y3.8551
X2.4599Y3.5922
X2.4599Y3.4608
X2.4599Y3.3294
X2.4599Y3.198
X2.4599Y3.0666
X2.4599Y2.9351
X2.4599Y2.6723
X2.4599Y2.5409
X2.4599Y2.4094
X2.4599Y2.2776
X2.4599Y2.0112
X2.4599Y1.8753
X2.4621Y0.7403
X2.4691Y1.6733
X2.5599Y1.113
X2.5599Y0.813
X2.5869Y1.5128
X2.5869Y1.3742
X2.5869Y1.2344
X2.5873Y3.9943
X2.5873Y3.8943
X2.5873Y3.7943
X2.5873Y3.6943
X2.5873Y3.5943
X2.5873Y3.4943
X2.5873Y3.3943
X2.5873Y3.014
X2.5873Y2.914
X2.5873Y2.814
X2.5873Y2.714
X2.5873Y2.614
X2.5873Y2.514
X2.5873Y2.414
X2.5873Y1.9756
X2.5873Y1.8756
X2.5873Y1.7756
X2.5873Y1.6756
X2.6091Y4.5023
X2.6781Y2.1013
X2.6878Y4.5023
X2.6961Y4.6873
X2.8051Y4.6873
X2.8661Y4.4663
X2.8749Y2.1013
X2.8869Y1.5128
X2.8869Y1.3742
X2.8869Y1.2344
X2.8873Y3.9943
X2.8873Y3.8943
X2.8873Y3.7943
X2.8873Y3.6943
X2.8873Y3.5943
X2.8873Y3.4943
X2.8873Y3.3943
X2.8873Y3.014
X2.8873Y2.914
X2.8873Y2.814
X2.8873Y2.714
X2.8873Y2.614
X2.8873Y2.514
X2.8873Y2.414
X2.8873Y1.9756
X2.8873Y1.8756
X2.8873Y1.7756
X2.8873Y1.6756
X3.0074Y4.1179
X3.0074Y3.9835
X3.0074Y3.849
X3.0074Y3.5801
X3.0074Y3.3112
X3.0074Y3.1866
X3.0074Y3.0719
X3.0074Y2.9472
X3.0074Y2.8128
X3.0074Y2.5439
X3.0074Y2.4094
X3.0074Y1.9014
X3.0078Y2.0563
X3.059Y3.7146
X3.059Y3.4457
X3.059Y2.6783
X3.059Y1.7734
X3.0629Y4.4663
X3.1051Y4.6873
X3.2558Y3.7146
X3.2558Y3.4457
X3.2558Y2.6783
X3.2558Y1.7734
X3.3074Y4.1179
X3.3074Y3.9835
X3.3074Y3.849
X3.3074Y3.5801
X3.3074Y3.3112
X3.3074Y3.1866
X3.3074Y3.0719
X3.3074Y2.9472
X3.3074Y2.8128
X3.3074Y2.5439
X3.3074Y2.4094
X3.3074Y1.9014
X3.3078Y2.0563
X3.3481Y1.5102
X3.3481Y1.2102
X3.432Y4.1331
X3.432Y3.8331
X3.432Y3.6063
X3.432Y3.3063
X3.432Y3.2118
X3.432Y2.9118
X3.432Y2.7772
X3.432Y2.4772
X3.432Y1.9189
X3.432Y1.6189
X3.4331Y2.2373
X3.4331Y2.0404
T6
X2.2572Y1.3209
X2.2741Y4.4153
X2.3572Y1.4209
X2.3572Y1.3209
X2.3741Y4.5153
X2.3741Y4.4153
X2.4572Y1.3209
X2.4741Y4.4153
X3.2331Y4.4153
X3.3331Y4.5153
X3.3331Y4.4153
X3.4331Y4.4153
T7
X1.8651Y2.1264
X1.8651Y2.0264
X1.8651Y1.9264
X1.8651Y1.8264
X1.8651Y1.7264
X2.0225Y2.1209
X2.0225Y2.0209
X2.0225Y1.9209
X2.0225Y1.8209
X2.0225Y1.7209
T8
X2.8319Y1.0185
X2.8319Y0.9185
X2.9319Y1.0185
X2.9319Y0.9185
X3.0319Y1.0185
X3.0319Y0.9185
X3.1319Y1.0185
X3.1319Y0.9185
X3.2319Y1.0185
X3.2319Y0.9185
T9
X0.6757Y2.4688
X0.8233Y4.4373
X0.8233Y2.4688
X1.4844Y2.4688
X1.6321Y4.4373
X1.6321Y2.4688
T2
G00X0.7317Y0.9863
M15
G01X0.771Y0.9863
M16
G05
G00X0.7317Y0.6595
M15
G01X0.771Y0.6595
M16
G05
G00X0.7443Y1.8813
M15
G01X0.7837Y1.8813
M16
G05
G00X0.7443Y1.5546
M15
G01X0.7837Y1.5546
M16
G05
G00X1.5359Y0.9863
M15
G01X1.5752Y0.9863
M16
G05
G00X1.5359Y0.6595
M15
G01X1.5752Y0.6595
M16
G05
T3
G00X0.7376Y0.5375
M15
G01X0.7651Y0.5375
M16
G05
G00X0.7502Y1.4325
M15
G01X0.7778Y1.4325
M16
G05
G00X1.5418Y0.5375
M15
G01X1.5693Y0.5375
M16
G05
T0
M30
