%TF.GenerationSoftware,KiCad,Pcbnew,(7.0.0-rc2-224-g3ecd6ec186)*%
%TF.CreationDate,2023-03-31T14:22:28+02:00*%
%TF.ProjectId,208_Timbre_Workshop,3230385f-5469-46d6-9272-655f576f726b,1*%
%TF.SameCoordinates,Original*%
%TF.FileFunction,Soldermask,Bot*%
%TF.FilePolarity,Negative*%
%FSLAX46Y46*%
G04 Gerber Fmt 4.6, Leading zero omitted, Abs format (unit mm)*
G04 Created by KiCad (PCBNEW (7.0.0-rc2-224-g3ecd6ec186)) date 2023-03-31 14:22:28*
%MOMM*%
%LPD*%
G01*
G04 APERTURE LIST*
G04 Aperture macros list*
%AMRoundRect*
0 Rectangle with rounded corners*
0 $1 Rounding radius*
0 $2 $3 $4 $5 $6 $7 $8 $9 X,Y pos of 4 corners*
0 Add a 4 corners polygon primitive as box body*
4,1,4,$2,$3,$4,$5,$6,$7,$8,$9,$2,$3,0*
0 Add four circle primitives for the rounded corners*
1,1,$1+$1,$2,$3*
1,1,$1+$1,$4,$5*
1,1,$1+$1,$6,$7*
1,1,$1+$1,$8,$9*
0 Add four rect primitives between the rounded corners*
20,1,$1+$1,$2,$3,$4,$5,0*
20,1,$1+$1,$4,$5,$6,$7,0*
20,1,$1+$1,$6,$7,$8,$9,0*
20,1,$1+$1,$8,$9,$2,$3,0*%
G04 Aperture macros list end*
%ADD10C,1.600000*%
%ADD11O,1.600000X1.600000*%
%ADD12C,4.000000*%
%ADD13RoundRect,0.165000X-0.985000X-0.385000X0.985000X-0.385000X0.985000X0.385000X-0.985000X0.385000X0*%
%ADD14O,2.400000X1.300000*%
%ADD15R,1.600000X1.600000*%
%ADD16C,1.676400*%
%ADD17C,3.200000*%
%ADD18R,1.300000X1.300000*%
%ADD19C,1.300000*%
%ADD20C,2.000000*%
%ADD21RoundRect,0.125000X1.125000X1.125000X-1.125000X1.125000X-1.125000X-1.125000X1.125000X-1.125000X0*%
%ADD22C,2.500000*%
%ADD23R,1.650000X1.650000*%
%ADD24C,1.650000*%
%ADD25R,1.700000X1.700000*%
%ADD26O,1.700000X1.700000*%
G04 APERTURE END LIST*
D10*
%TO.C,R27*%
X62482600Y101256924D03*
D11*
X54862599Y101256923D03*
%TD*%
D10*
%TO.C,R22*%
X68480800Y119056800D03*
D11*
X60860799Y119056799D03*
%TD*%
D12*
%TO.C,J2*%
X19084299Y20131392D03*
D13*
X19084299Y13651392D03*
D14*
X19084298Y25051391D03*
X19084298Y16751391D03*
%TD*%
D10*
%TO.C,RX2*%
X53872600Y29740000D03*
D11*
X53872599Y37359999D03*
%TD*%
D10*
%TO.C,RX32*%
X65707600Y38425000D03*
D11*
X73327599Y38424999D03*
%TD*%
D10*
%TO.C,R31*%
X76387600Y71445000D03*
D11*
X84007599Y71444999D03*
%TD*%
D12*
%TO.C,J1*%
X19406199Y42866229D03*
D13*
X19406199Y36386229D03*
D14*
X19406198Y47786228D03*
X19406198Y39486228D03*
%TD*%
D10*
%TO.C,R25*%
X62482600Y97918848D03*
D11*
X54862599Y97918847D03*
%TD*%
D15*
%TO.C,D4*%
X62537199Y18802999D03*
D11*
X54917199Y18802999D03*
%TD*%
D10*
%TO.C,RM4*%
X12527600Y69460000D03*
D11*
X12527599Y77079999D03*
%TD*%
D10*
%TO.C,R47*%
X51547600Y61665000D03*
D11*
X51547599Y69284999D03*
%TD*%
D16*
%TO.C,VR1*%
X57762000Y112148000D03*
X60302000Y114688000D03*
X60302000Y112148000D03*
X62842000Y112148000D03*
%TD*%
D10*
%TO.C,RX52*%
X76398200Y52229400D03*
D11*
X84018199Y52229399D03*
%TD*%
D10*
%TO.C,RX3*%
X54862600Y51084375D03*
D11*
X62482599Y51084374D03*
%TD*%
D17*
%TO.C,REF\u002A\u002A*%
X29277600Y108338000D03*
%TD*%
D10*
%TO.C,R20*%
X84007600Y104595000D03*
D11*
X76387599Y104594999D03*
%TD*%
D10*
%TO.C,R32*%
X62482600Y87904620D03*
D11*
X54862599Y87904619D03*
%TD*%
D10*
%TO.C,RX33*%
X73327600Y34905000D03*
D11*
X65707599Y34904999D03*
%TD*%
D10*
%TO.C,R19*%
X76387600Y101180000D03*
D11*
X84007599Y101179999D03*
%TD*%
D10*
%TO.C,RX46*%
X85042600Y38360000D03*
D11*
X85042599Y30739999D03*
%TD*%
D10*
%TO.C,C8*%
X56172600Y71214240D03*
X61172600Y71214240D03*
%TD*%
D15*
%TO.C,C2*%
X66270999Y114357799D03*
D10*
X68271000Y114357800D03*
%TD*%
D17*
%TO.C,REF\u002A\u002A*%
X69517600Y108338000D03*
%TD*%
D10*
%TO.C,R36*%
X51547600Y83485000D03*
D11*
X51547599Y91104999D03*
%TD*%
D10*
%TO.C,R24*%
X71249400Y119056800D03*
D11*
X78869399Y119056799D03*
%TD*%
D10*
%TO.C,R37*%
X54862600Y67876164D03*
D11*
X62482599Y67876163D03*
%TD*%
D10*
%TO.C,RM3*%
X12527600Y81190000D03*
D11*
X12527599Y88809999D03*
%TD*%
D15*
%TO.C,U2*%
X65717599Y101454999D03*
D11*
X65717599Y98914999D03*
X65717599Y96374999D03*
X65717599Y93834999D03*
X65717599Y91294999D03*
X65717599Y88754999D03*
X65717599Y86214999D03*
X73337599Y86214999D03*
X73337599Y88754999D03*
X73337599Y91294999D03*
X73337599Y93834999D03*
X73337599Y96374999D03*
X73337599Y98914999D03*
X73337599Y101454999D03*
%TD*%
D10*
%TO.C,C5*%
X77697600Y94350000D03*
X82697600Y94350000D03*
%TD*%
D15*
%TO.C,D2*%
X76387599Y80939999D03*
D11*
X84007599Y80939999D03*
%TD*%
D18*
%TO.C,QX2*%
X81467599Y38944999D03*
D19*
X80197600Y37675000D03*
X78927600Y38945000D03*
%TD*%
D10*
%TO.C,R1*%
X84007600Y97765000D03*
D11*
X76387599Y97764999D03*
%TD*%
D10*
%TO.C,RM1*%
X46027600Y81190000D03*
D11*
X46027599Y88809999D03*
%TD*%
D10*
%TO.C,CX5*%
X77697600Y45045000D03*
X82697600Y45045000D03*
%TD*%
D20*
%TO.C,VR2*%
X39580000Y102707995D03*
X39580000Y70207995D03*
D21*
X41455000Y62707995D03*
D22*
X37705000Y62707995D03*
X41455000Y112707995D03*
%TD*%
D10*
%TO.C,R21*%
X87172600Y104980000D03*
D11*
X87172599Y97359999D03*
%TD*%
D10*
%TO.C,R35*%
X87172600Y73960000D03*
D11*
X87172599Y81579999D03*
%TD*%
D10*
%TO.C,C6*%
X57279400Y94545800D03*
X62279400Y94545800D03*
%TD*%
D15*
%TO.C,C10*%
X58917487Y23274999D03*
D10*
X60917488Y23275000D03*
%TD*%
%TO.C,R38*%
X54862600Y57850000D03*
D11*
X62482599Y57849999D03*
%TD*%
D10*
%TO.C,R33*%
X62482600Y84566544D03*
D11*
X54862599Y84566543D03*
%TD*%
D15*
%TO.C,U3*%
X65717599Y76554999D03*
D11*
X65717599Y74014999D03*
X65717599Y71474999D03*
X65717599Y68934999D03*
X65717599Y66394999D03*
X65717599Y63854999D03*
X65717599Y61314999D03*
X73337599Y61314999D03*
X73337599Y63854999D03*
X73337599Y66394999D03*
X73337599Y68934999D03*
X73337599Y71474999D03*
X73337599Y74014999D03*
X73337599Y76554999D03*
%TD*%
D15*
%TO.C,D1*%
X84007599Y78024999D03*
D11*
X76387599Y78024999D03*
%TD*%
D15*
%TO.C,U1*%
X65717599Y50179999D03*
D11*
X65717599Y47639999D03*
X65717599Y45099999D03*
X65717599Y42559999D03*
X73337599Y42559999D03*
X73337599Y45099999D03*
X73337599Y47639999D03*
X73337599Y50179999D03*
%TD*%
D10*
%TO.C,C4*%
X68023600Y53372400D03*
X73023600Y53372400D03*
%TD*%
D23*
%TO.C,J4*%
X82090099Y25869999D03*
D24*
X82090100Y23330000D03*
X79550100Y25870000D03*
X79550100Y23330000D03*
X77010100Y25870000D03*
X77010100Y23330000D03*
X74470100Y25870000D03*
X74470100Y23330000D03*
X71930100Y25870000D03*
X71930100Y23330000D03*
%TD*%
D10*
%TO.C,RX1*%
X54862600Y47632000D03*
D11*
X62482599Y47631999D03*
%TD*%
D17*
%TO.C,REF\u002A\u002A*%
X29277600Y16471000D03*
%TD*%
D18*
%TO.C,Q6*%
X78259799Y109430199D03*
D19*
X76989800Y108160200D03*
X75719800Y109430200D03*
%TD*%
D10*
%TO.C,R28*%
X62482600Y91242696D03*
D11*
X54862599Y91242695D03*
%TD*%
D20*
%TO.C,VR3*%
X19037199Y102707995D03*
X19037199Y70207995D03*
D21*
X20912199Y62707995D03*
D22*
X17162199Y62707995D03*
X20912199Y112707995D03*
%TD*%
D10*
%TO.C,R39*%
X84007600Y61200000D03*
D11*
X76387599Y61199999D03*
%TD*%
D10*
%TO.C,R23*%
X51547600Y103045000D03*
D11*
X51547599Y95424999D03*
%TD*%
D10*
%TO.C,R34*%
X76387600Y74860000D03*
D11*
X84007599Y74859999D03*
%TD*%
D12*
%TO.C,J3*%
X39510900Y20131392D03*
D13*
X39510900Y13651392D03*
D14*
X39510899Y25051391D03*
X39510899Y16751391D03*
%TD*%
D10*
%TO.C,RX34*%
X84007600Y48295000D03*
D11*
X76387599Y48294999D03*
%TD*%
D10*
%TO.C,C7*%
X62715000Y42501200D03*
X57715000Y42501200D03*
%TD*%
%TO.C,C9*%
X77697600Y68030000D03*
X82697600Y68030000D03*
%TD*%
D18*
%TO.C,Q5*%
X53362599Y111619999D03*
D19*
X54632600Y110350000D03*
X53362600Y109080000D03*
%TD*%
D10*
%TO.C,R29*%
X62482600Y81228468D03*
D11*
X54862599Y81228467D03*
%TD*%
D15*
%TO.C,D3*%
X65022599Y20649999D03*
D11*
X65022599Y28269999D03*
%TD*%
D10*
%TO.C,RX35*%
X87172600Y41120000D03*
D11*
X87172599Y48739999D03*
%TD*%
D16*
%TO.C,VR4*%
X57332600Y33550000D03*
X59872600Y36090000D03*
X59872600Y33550000D03*
X62412600Y33550000D03*
%TD*%
D17*
%TO.C,REF\u002A\u002A*%
X69517600Y16471000D03*
%TD*%
D10*
%TO.C,R30*%
X84007600Y84105000D03*
D11*
X76387599Y84104999D03*
%TD*%
D10*
%TO.C,RX31*%
X65707600Y31355000D03*
D11*
X73327599Y31354999D03*
%TD*%
D16*
%TO.C,VRX1*%
X82120600Y112148000D03*
X84660600Y114688000D03*
X84660600Y112148000D03*
X87200600Y112148000D03*
%TD*%
D15*
%TO.C,C11*%
X52917487Y23274999D03*
D10*
X54917488Y23275000D03*
%TD*%
%TO.C,RM2*%
X46027600Y69460000D03*
D11*
X46027599Y77079999D03*
%TD*%
D10*
%TO.C,R45*%
X84007600Y64615000D03*
D11*
X76387599Y64614999D03*
%TD*%
D10*
%TO.C,R41*%
X54862600Y74552316D03*
D11*
X62482599Y74552315D03*
%TD*%
D10*
%TO.C,R40*%
X87172600Y91600000D03*
D11*
X87172599Y83979999D03*
%TD*%
D10*
%TO.C,C3*%
X82697600Y87520000D03*
X77697600Y87520000D03*
%TD*%
%TO.C,R26*%
X62482600Y104595000D03*
D11*
X54862599Y104594999D03*
%TD*%
D17*
%TO.C,REF\u002A\u002A*%
X29297600Y118043923D03*
%TD*%
D10*
%TO.C,C1*%
X72798800Y113443400D03*
X77798800Y113443400D03*
%TD*%
%TO.C,CX6*%
X87200600Y56826800D03*
X87200600Y51826800D03*
%TD*%
%TO.C,R44*%
X62482600Y77890392D03*
D11*
X54862599Y77890391D03*
%TD*%
D10*
%TO.C,R43*%
X54862600Y61200000D03*
D11*
X62482599Y61199999D03*
%TD*%
D10*
%TO.C,R46*%
X87172600Y62920000D03*
D11*
X87172599Y70539999D03*
%TD*%
D10*
%TO.C,R42*%
X62482600Y64538088D03*
D11*
X54862599Y64538087D03*
%TD*%
D10*
%TO.C,R18*%
X76387600Y90935000D03*
D11*
X84007599Y90934999D03*
%TD*%
D25*
%TO.C,J6*%
X51372599Y53869999D03*
D26*
X51372599Y51329999D03*
X51372599Y48789999D03*
X51372599Y46249999D03*
X51372599Y43709999D03*
%TD*%
D25*
%TO.C,J5*%
X47372599Y54009999D03*
D26*
X47372599Y51469999D03*
X47372599Y48929999D03*
X47372599Y46389999D03*
X47372599Y43849999D03*
%TD*%
M02*
