%TF.GenerationSoftware,KiCad,Pcbnew,(7.0.0-rc2-224-g3ecd6ec186)*%
%TF.CreationDate,2023-03-31T14:22:28+02:00*%
%TF.ProjectId,208_Timbre_Workshop,3230385f-5469-46d6-9272-655f576f726b,1*%
%TF.SameCoordinates,Original*%
%TF.FileFunction,Legend,Bot*%
%TF.FilePolarity,Positive*%
%FSLAX46Y46*%
G04 Gerber Fmt 4.6, Leading zero omitted, Abs format (unit mm)*
G04 Created by KiCad (PCBNEW (7.0.0-rc2-224-g3ecd6ec186)) date 2023-03-31 14:22:28*
%MOMM*%
%LPD*%
G01*
G04 APERTURE LIST*
G04 Aperture macros list*
%AMRoundRect*
0 Rectangle with rounded corners*
0 $1 Rounding radius*
0 $2 $3 $4 $5 $6 $7 $8 $9 X,Y pos of 4 corners*
0 Add a 4 corners polygon primitive as box body*
4,1,4,$2,$3,$4,$5,$6,$7,$8,$9,$2,$3,0*
0 Add four circle primitives for the rounded corners*
1,1,$1+$1,$2,$3*
1,1,$1+$1,$4,$5*
1,1,$1+$1,$6,$7*
1,1,$1+$1,$8,$9*
0 Add four rect primitives between the rounded corners*
20,1,$1+$1,$2,$3,$4,$5,0*
20,1,$1+$1,$4,$5,$6,$7,0*
20,1,$1+$1,$6,$7,$8,$9,0*
20,1,$1+$1,$8,$9,$2,$3,0*%
G04 Aperture macros list end*
%ADD10C,0.150000*%
%ADD11C,0.120000*%
%ADD12C,1.600000*%
%ADD13O,1.600000X1.600000*%
%ADD14C,4.000000*%
%ADD15RoundRect,0.165000X-0.985000X-0.385000X0.985000X-0.385000X0.985000X0.385000X-0.985000X0.385000X0*%
%ADD16O,2.400000X1.300000*%
%ADD17R,1.600000X1.600000*%
%ADD18C,1.676400*%
%ADD19C,3.200000*%
%ADD20R,1.300000X1.300000*%
%ADD21C,1.300000*%
%ADD22C,2.000000*%
%ADD23RoundRect,0.125000X1.125000X1.125000X-1.125000X1.125000X-1.125000X-1.125000X1.125000X-1.125000X0*%
%ADD24C,2.500000*%
%ADD25R,1.650000X1.650000*%
%ADD26C,1.650000*%
%ADD27R,1.700000X1.700000*%
%ADD28O,1.700000X1.700000*%
G04 APERTURE END LIST*
D10*
X71817600Y16471000D02*
G75*
G03*
X71817600Y16471000I-2300000J0D01*
G01*
X31577600Y16471000D02*
G75*
G03*
X31577600Y16471000I-2300000J0D01*
G01*
X31577600Y108338000D02*
G75*
G03*
X31577600Y108338000I-2300000J0D01*
G01*
X71817600Y108338000D02*
G75*
G03*
X71817600Y108338000I-2300000J0D01*
G01*
%TO.C,J6*%
X51705933Y57272620D02*
X51705933Y56558334D01*
X51705933Y56558334D02*
X51753552Y56415477D01*
X51753552Y56415477D02*
X51848790Y56320239D01*
X51848790Y56320239D02*
X51991647Y56272620D01*
X51991647Y56272620D02*
X52086885Y56272620D01*
X50801171Y57272620D02*
X50991647Y57272620D01*
X50991647Y57272620D02*
X51086885Y57225000D01*
X51086885Y57225000D02*
X51134504Y57177381D01*
X51134504Y57177381D02*
X51229742Y57034524D01*
X51229742Y57034524D02*
X51277361Y56844048D01*
X51277361Y56844048D02*
X51277361Y56463096D01*
X51277361Y56463096D02*
X51229742Y56367858D01*
X51229742Y56367858D02*
X51182123Y56320239D01*
X51182123Y56320239D02*
X51086885Y56272620D01*
X51086885Y56272620D02*
X50896409Y56272620D01*
X50896409Y56272620D02*
X50801171Y56320239D01*
X50801171Y56320239D02*
X50753552Y56367858D01*
X50753552Y56367858D02*
X50705933Y56463096D01*
X50705933Y56463096D02*
X50705933Y56701191D01*
X50705933Y56701191D02*
X50753552Y56796429D01*
X50753552Y56796429D02*
X50801171Y56844048D01*
X50801171Y56844048D02*
X50896409Y56891667D01*
X50896409Y56891667D02*
X51086885Y56891667D01*
X51086885Y56891667D02*
X51182123Y56844048D01*
X51182123Y56844048D02*
X51229742Y56796429D01*
X51229742Y56796429D02*
X51277361Y56701191D01*
%TO.C,J5*%
X47705933Y57412620D02*
X47705933Y56698334D01*
X47705933Y56698334D02*
X47753552Y56555477D01*
X47753552Y56555477D02*
X47848790Y56460239D01*
X47848790Y56460239D02*
X47991647Y56412620D01*
X47991647Y56412620D02*
X48086885Y56412620D01*
X46753552Y57412620D02*
X47229742Y57412620D01*
X47229742Y57412620D02*
X47277361Y56936429D01*
X47277361Y56936429D02*
X47229742Y56984048D01*
X47229742Y56984048D02*
X47134504Y57031667D01*
X47134504Y57031667D02*
X46896409Y57031667D01*
X46896409Y57031667D02*
X46801171Y56984048D01*
X46801171Y56984048D02*
X46753552Y56936429D01*
X46753552Y56936429D02*
X46705933Y56841191D01*
X46705933Y56841191D02*
X46705933Y56603096D01*
X46705933Y56603096D02*
X46753552Y56507858D01*
X46753552Y56507858D02*
X46801171Y56460239D01*
X46801171Y56460239D02*
X46896409Y56412620D01*
X46896409Y56412620D02*
X47134504Y56412620D01*
X47134504Y56412620D02*
X47229742Y56460239D01*
X47229742Y56460239D02*
X47277361Y56507858D01*
D11*
%TO.C,J6*%
X52702600Y42380000D02*
X50042600Y42380000D01*
X52702600Y52600000D02*
X52702600Y42380000D01*
X52702600Y52600000D02*
X50042600Y52600000D01*
X51372600Y55200000D02*
X50042600Y55200000D01*
X50042600Y52600000D02*
X50042600Y42380000D01*
X50042600Y55200000D02*
X50042600Y53870000D01*
%TO.C,G\u002A\u002A\u002A*%
G36*
X20888122Y31758858D02*
G01*
X20888122Y31345612D01*
X21218683Y31758858D01*
X21549244Y32172105D01*
X21683389Y32172105D01*
X21817534Y32172105D01*
X21817534Y31501516D01*
X21817534Y30830928D01*
X21658710Y30830928D01*
X21499887Y30830928D01*
X21499887Y31250274D01*
X21499887Y31669619D01*
X21167534Y31253215D01*
X20835181Y30836810D01*
X20702828Y30833484D01*
X20570475Y30830158D01*
X20570475Y31501131D01*
X20570475Y32172105D01*
X20729298Y32172105D01*
X20888122Y32172105D01*
X20888122Y31758858D01*
G37*
G36*
X18461651Y32169495D02*
G01*
X18623416Y32166222D01*
X18626472Y31513281D01*
X18626797Y31435175D01*
X18627127Y31317248D01*
X18627243Y31207604D01*
X18627153Y31108419D01*
X18626864Y31021873D01*
X18626387Y30950143D01*
X18625728Y30895408D01*
X18624896Y30859846D01*
X18623900Y30845634D01*
X18623886Y30845598D01*
X18616758Y30841230D01*
X18597915Y30837752D01*
X18565389Y30835084D01*
X18517211Y30833147D01*
X18451412Y30831861D01*
X18366024Y30831148D01*
X18259079Y30830928D01*
X17899887Y30830928D01*
X17899887Y30983869D01*
X17899887Y31136810D01*
X18099887Y31136810D01*
X18299887Y31136810D01*
X18299887Y31654790D01*
X18299887Y32172769D01*
X18461651Y32169495D01*
G37*
G36*
X20002942Y31513281D02*
G01*
X20003267Y31435175D01*
X20003598Y31317248D01*
X20003714Y31207604D01*
X20003623Y31108419D01*
X20003335Y31021873D01*
X20002857Y30950143D01*
X20002198Y30895408D01*
X20001367Y30859846D01*
X20000370Y30845634D01*
X19998250Y30843451D01*
X19985968Y30839728D01*
X19961386Y30836761D01*
X19922634Y30834483D01*
X19867839Y30832827D01*
X19795131Y30831728D01*
X19702639Y30831117D01*
X19588491Y30830928D01*
X19182240Y30830928D01*
X19182240Y30972105D01*
X19182240Y31113281D01*
X19429298Y31113281D01*
X19676357Y31113281D01*
X19676357Y31260340D01*
X19676357Y31407399D01*
X19446946Y31407399D01*
X19217534Y31407399D01*
X19217534Y31542693D01*
X19217534Y31677987D01*
X19446946Y31677987D01*
X19676357Y31677987D01*
X19676357Y31783631D01*
X19676357Y31889274D01*
X19432240Y31892454D01*
X19188122Y31895634D01*
X19188122Y32030928D01*
X19188122Y32166222D01*
X19594004Y32166222D01*
X19999887Y32166222D01*
X20002942Y31513281D01*
G37*
G36*
X14724074Y32183363D02*
G01*
X14837531Y32153420D01*
X14944192Y32105354D01*
X15041750Y32040357D01*
X15127896Y31959623D01*
X15200326Y31864344D01*
X15256731Y31755712D01*
X15294804Y31634920D01*
X15301363Y31601273D01*
X15310156Y31482084D01*
X15297486Y31365435D01*
X15264959Y31253700D01*
X15214185Y31149255D01*
X15146770Y31054476D01*
X15064323Y30971737D01*
X14968451Y30903415D01*
X14860763Y30851885D01*
X14742867Y30819522D01*
X14730668Y30817539D01*
X14650038Y30812007D01*
X14559658Y30816106D01*
X14467691Y30828775D01*
X14382301Y30848953D01*
X14311651Y30875578D01*
X14270475Y30895634D01*
X14267227Y31075097D01*
X14263979Y31254561D01*
X14326051Y31207486D01*
X14400207Y31161259D01*
X14486506Y31131239D01*
X14582240Y31121586D01*
X14643746Y31125784D01*
X14734438Y31149435D01*
X14813955Y31192886D01*
X14880342Y31254947D01*
X14931647Y31334427D01*
X14948475Y31372126D01*
X14958626Y31406975D01*
X14963400Y31447069D01*
X14964593Y31501516D01*
X14963498Y31554140D01*
X14958887Y31594723D01*
X14948980Y31629615D01*
X14931999Y31667887D01*
X14920523Y31689188D01*
X14870252Y31757189D01*
X14806769Y31815666D01*
X14737248Y31857630D01*
X14730732Y31860424D01*
X14659358Y31879406D01*
X14578793Y31883915D01*
X14497369Y31874147D01*
X14423416Y31850295D01*
X14389892Y31833582D01*
X14344229Y31807219D01*
X14308710Y31782747D01*
X14264593Y31747466D01*
X14264593Y31928925D01*
X14264593Y32110384D01*
X14324796Y32136282D01*
X14365995Y32152533D01*
X14485999Y32184112D01*
X14606127Y32193992D01*
X14724074Y32183363D01*
G37*
G36*
X24754122Y31889752D02*
G01*
X24755884Y31513281D01*
X24756208Y31435175D01*
X24756539Y31317248D01*
X24756655Y31207604D01*
X24756565Y31108419D01*
X24756276Y31021873D01*
X24755798Y30950143D01*
X24755139Y30895408D01*
X24754308Y30859846D01*
X24753312Y30845634D01*
X24751870Y30843496D01*
X24737735Y30837671D01*
X24707419Y30833780D01*
X24658484Y30831605D01*
X24588491Y30830928D01*
X24429298Y30830928D01*
X24429298Y31066222D01*
X24429298Y31301516D01*
X24325888Y31301516D01*
X24293227Y31302126D01*
X24175824Y31315777D01*
X24072482Y31347066D01*
X23983997Y31395587D01*
X23911164Y31460931D01*
X23854779Y31542693D01*
X23850935Y31549986D01*
X23838419Y31576636D01*
X23830388Y31602588D01*
X23825863Y31633898D01*
X23823865Y31676621D01*
X23823429Y31735095D01*
X24146946Y31735095D01*
X24146950Y31732491D01*
X24149456Y31689415D01*
X24158548Y31659261D01*
X24177114Y31632175D01*
X24179985Y31628921D01*
X24213355Y31601905D01*
X24250643Y31584279D01*
X24270285Y31580031D01*
X24314931Y31574403D01*
X24361651Y31572170D01*
X24429298Y31572105D01*
X24429298Y31730928D01*
X24429298Y31889752D01*
X24346568Y31889752D01*
X24335025Y31889666D01*
X24262235Y31883452D01*
X24208938Y31866365D01*
X24173227Y31836927D01*
X24153198Y31793663D01*
X24146946Y31735095D01*
X23823429Y31735095D01*
X23823416Y31736810D01*
X23823435Y31753274D01*
X23824170Y31808701D01*
X23826691Y31848123D01*
X23831977Y31877598D01*
X23841005Y31903181D01*
X23854753Y31930928D01*
X23889040Y31984179D01*
X23955071Y32052623D01*
X24035181Y32104571D01*
X24057743Y32115331D01*
X24097805Y32131919D01*
X24138710Y32144543D01*
X24184237Y32153719D01*
X24238163Y32159961D01*
X24304267Y32163782D01*
X24386327Y32165698D01*
X24488122Y32166222D01*
X24752828Y32166222D01*
X24754122Y31889752D01*
G37*
G36*
X16660004Y31889752D02*
G01*
X16661766Y31513281D01*
X16662091Y31435175D01*
X16662421Y31317248D01*
X16662537Y31207604D01*
X16662447Y31108419D01*
X16662159Y31021873D01*
X16661681Y30950143D01*
X16661022Y30895408D01*
X16660190Y30859846D01*
X16659194Y30845634D01*
X16657752Y30843496D01*
X16643618Y30837671D01*
X16613301Y30833780D01*
X16564366Y30831605D01*
X16494374Y30830928D01*
X16335181Y30830928D01*
X16335181Y31066222D01*
X16335181Y31301516D01*
X16231770Y31301516D01*
X16199109Y31302126D01*
X16081706Y31315777D01*
X15978364Y31347066D01*
X15889879Y31395587D01*
X15817046Y31460931D01*
X15760661Y31542693D01*
X15756817Y31549986D01*
X15744302Y31576636D01*
X15736270Y31602588D01*
X15731745Y31633898D01*
X15729747Y31676621D01*
X15729311Y31735095D01*
X16052828Y31735095D01*
X16052832Y31732491D01*
X16055339Y31689415D01*
X16064430Y31659261D01*
X16082996Y31632175D01*
X16085867Y31628921D01*
X16119237Y31601905D01*
X16156525Y31584279D01*
X16176168Y31580031D01*
X16220814Y31574403D01*
X16267534Y31572170D01*
X16335181Y31572105D01*
X16335181Y31730928D01*
X16335181Y31889752D01*
X16252450Y31889752D01*
X16240907Y31889666D01*
X16168117Y31883452D01*
X16114820Y31866365D01*
X16079110Y31836927D01*
X16059081Y31793663D01*
X16052828Y31735095D01*
X15729311Y31735095D01*
X15729298Y31736810D01*
X15729318Y31753274D01*
X15730052Y31808701D01*
X15732573Y31848123D01*
X15737859Y31877598D01*
X15746887Y31903181D01*
X15760635Y31930928D01*
X15794923Y31984179D01*
X15860953Y32052623D01*
X15941063Y32104571D01*
X15963625Y32115331D01*
X16003688Y32131919D01*
X16044593Y32144543D01*
X16090119Y32153719D01*
X16144045Y32159961D01*
X16210149Y32163782D01*
X16292209Y32165698D01*
X16394004Y32166222D01*
X16658710Y32166222D01*
X16660004Y31889752D01*
G37*
G36*
X13758710Y31916022D02*
G01*
X13758710Y31502902D01*
X13758710Y31395634D01*
X13758710Y30830928D01*
X13496946Y30831017D01*
X13490166Y30831022D01*
X13365678Y30832347D01*
X13261626Y30836402D01*
X13175151Y30843765D01*
X13103400Y30855012D01*
X13043514Y30870722D01*
X12992637Y30891471D01*
X12947914Y30917838D01*
X12906488Y30950400D01*
X12878001Y30977617D01*
X12834532Y31035028D01*
X12808436Y31100114D01*
X12796577Y31179410D01*
X12797422Y31246684D01*
X12798528Y31251671D01*
X13113595Y31251671D01*
X13119411Y31201805D01*
X13142874Y31156107D01*
X13184239Y31119854D01*
X13216326Y31106845D01*
X13264043Y31097850D01*
X13331108Y31092297D01*
X13441063Y31086546D01*
X13441063Y31241090D01*
X13441063Y31395634D01*
X13344004Y31395376D01*
X13289798Y31393580D01*
X13238191Y31386256D01*
X13196503Y31372223D01*
X13153877Y31342809D01*
X13125169Y31300431D01*
X13113595Y31251671D01*
X12798528Y31251671D01*
X12816350Y31332051D01*
X12855268Y31405916D01*
X12913391Y31466919D01*
X12989932Y31513701D01*
X13048316Y31540485D01*
X12998216Y31586665D01*
X12962550Y31623480D01*
X12925905Y31679366D01*
X12905933Y31742883D01*
X12903208Y31777896D01*
X13207896Y31777896D01*
X13215599Y31728457D01*
X13238545Y31684620D01*
X13276174Y31652725D01*
X13276995Y31652293D01*
X13323446Y31636727D01*
X13379115Y31630928D01*
X13441063Y31630928D01*
X13441063Y31773475D01*
X13441063Y31916022D01*
X13364719Y31911161D01*
X13347576Y31909807D01*
X13293055Y31899995D01*
X13255896Y31882192D01*
X13240457Y31868230D01*
X13215995Y31826600D01*
X13207896Y31777896D01*
X12903208Y31777896D01*
X12899887Y31820568D01*
X12899889Y31822070D01*
X12909850Y31911060D01*
X12939245Y31986972D01*
X12988251Y32050036D01*
X13057046Y32100480D01*
X13145806Y32138532D01*
X13170224Y32145823D01*
X13199767Y32152617D01*
X13233806Y32157803D01*
X13276149Y32161721D01*
X13330602Y32164708D01*
X13400971Y32167103D01*
X13491063Y32169246D01*
X13758710Y32174876D01*
X13758710Y31916022D01*
G37*
G36*
X23398932Y31346213D02*
G01*
X23437707Y31251859D01*
X23476452Y31157371D01*
X23511877Y31070749D01*
X23543028Y30994306D01*
X23568948Y30930355D01*
X23588685Y30881209D01*
X23601282Y30849181D01*
X23601944Y30843133D01*
X23595740Y30837814D01*
X23578868Y30834281D01*
X23548112Y30832187D01*
X23500260Y30831185D01*
X23432096Y30830928D01*
X23255905Y30830928D01*
X23210055Y30957399D01*
X23164204Y31083869D01*
X22921332Y31087046D01*
X22678460Y31090223D01*
X22635259Y30960575D01*
X22592059Y30830928D01*
X22409307Y30830928D01*
X22387714Y30830939D01*
X22324442Y30831262D01*
X22280503Y30832319D01*
X22252615Y30834490D01*
X22237500Y30838159D01*
X22231878Y30843707D01*
X22232470Y30851516D01*
X22233155Y30853579D01*
X22241053Y30874346D01*
X22256625Y30913870D01*
X22278903Y30969764D01*
X22306918Y31039641D01*
X22339703Y31121113D01*
X22376287Y31211794D01*
X22415702Y31309296D01*
X22430417Y31345634D01*
X22770365Y31345634D01*
X22770505Y31345254D01*
X22783839Y31341961D01*
X22815761Y31339278D01*
X22861812Y31337472D01*
X22917534Y31336810D01*
X22923889Y31336819D01*
X22978765Y31337669D01*
X23023478Y31339708D01*
X23053571Y31342651D01*
X23064593Y31346213D01*
X23064591Y31346287D01*
X23060635Y31360291D01*
X23049950Y31392726D01*
X23033774Y31439974D01*
X23013344Y31498418D01*
X22989900Y31564441D01*
X22915208Y31773266D01*
X22842731Y31563862D01*
X22842218Y31562379D01*
X22819522Y31496322D01*
X22799789Y31437999D01*
X22784218Y31391031D01*
X22774010Y31359036D01*
X22770365Y31345634D01*
X22430417Y31345634D01*
X22456980Y31411232D01*
X22499152Y31515215D01*
X22541249Y31618858D01*
X22582303Y31719773D01*
X22621345Y31815574D01*
X22657406Y31903873D01*
X22689517Y31982284D01*
X22716710Y32048418D01*
X22738017Y32099889D01*
X22752468Y32134309D01*
X22759094Y32149293D01*
X22761172Y32152854D01*
X22769652Y32161499D01*
X22784564Y32167104D01*
X22810181Y32170311D01*
X22850777Y32171763D01*
X22910625Y32172105D01*
X22958318Y32171667D01*
X23012428Y32169247D01*
X23046157Y32164551D01*
X23061354Y32157399D01*
X23065378Y32148890D01*
X23077643Y32120530D01*
X23097089Y32074593D01*
X23122761Y32013393D01*
X23153703Y31939242D01*
X23188963Y31854454D01*
X23227584Y31761341D01*
X23268612Y31662216D01*
X23311093Y31559392D01*
X23354072Y31455183D01*
X23396595Y31351901D01*
X23398932Y31346213D01*
G37*
G36*
X29995307Y96535558D02*
G01*
X29995307Y95970852D01*
X27730601Y95970852D01*
X25465895Y95970852D01*
X25465895Y96535558D01*
X25465895Y97100264D01*
X27730601Y97100264D01*
X29995307Y97100264D01*
X29995307Y96535558D01*
G37*
G36*
X33171778Y84029675D02*
G01*
X33171778Y83864969D01*
X32507072Y83864969D01*
X31842366Y83864969D01*
X31842366Y84029675D01*
X31842366Y84194381D01*
X32507072Y84194381D01*
X33171778Y84194381D01*
X33171778Y84029675D01*
G37*
G36*
X33171778Y95735558D02*
G01*
X33171778Y95370852D01*
X33018836Y95370852D01*
X32865895Y95370852D01*
X32865895Y95570852D01*
X32865895Y95770852D01*
X32354131Y95770852D01*
X31842366Y95770852D01*
X31842366Y95935558D01*
X31842366Y96100264D01*
X32507072Y96100264D01*
X33171778Y96100264D01*
X33171778Y95735558D01*
G37*
G36*
X25980601Y101673917D02*
G01*
X26495307Y101670852D01*
X26498379Y101185558D01*
X26501450Y100700264D01*
X28248379Y100700264D01*
X29995307Y100700264D01*
X29995307Y100123793D01*
X29995307Y99547322D01*
X28248379Y99547322D01*
X26501450Y99547322D01*
X26498379Y99062028D01*
X26495307Y98576734D01*
X25980601Y98573669D01*
X25465895Y98570605D01*
X25465895Y100123793D01*
X25465895Y101676982D01*
X25980601Y101673917D01*
G37*
G36*
X31992366Y93462380D02*
G01*
X32142366Y93459087D01*
X32145680Y93320852D01*
X32148995Y93182617D01*
X32660386Y93182617D01*
X33171778Y93182617D01*
X33171778Y93012028D01*
X33171778Y92841440D01*
X32660375Y92841440D01*
X32148972Y92841440D01*
X32145669Y92697322D01*
X32142366Y92553205D01*
X31992366Y92549912D01*
X31842366Y92546619D01*
X31842366Y93006146D01*
X31842366Y93465672D01*
X31992366Y93462380D01*
G37*
G36*
X33171778Y81259238D02*
G01*
X33171778Y81100565D01*
X32758699Y81097473D01*
X32345621Y81094381D01*
X32758699Y80766008D01*
X33171778Y80437634D01*
X33171778Y80304243D01*
X33171778Y80170852D01*
X32507072Y80170852D01*
X31842366Y80170852D01*
X31842366Y80329523D01*
X31842366Y80488194D01*
X32249146Y80491288D01*
X32655927Y80494381D01*
X32249735Y80817911D01*
X31843544Y81141440D01*
X31842955Y81279675D01*
X31842366Y81417911D01*
X32507072Y81417911D01*
X33171778Y81417911D01*
X33171778Y81259238D01*
G37*
G36*
X33171778Y91700264D02*
G01*
X33171778Y91288499D01*
X33036484Y91288499D01*
X32901189Y91288499D01*
X32901189Y91535558D01*
X32901189Y91782617D01*
X32754385Y91782617D01*
X32607580Y91782617D01*
X32604385Y91556146D01*
X32601189Y91329675D01*
X32468836Y91326349D01*
X32336484Y91323022D01*
X32336484Y91552819D01*
X32336484Y91782617D01*
X32224719Y91782617D01*
X32112954Y91782617D01*
X32112954Y91541440D01*
X32112954Y91300264D01*
X31977660Y91300264D01*
X31842366Y91300264D01*
X31842366Y91706146D01*
X31842366Y92112028D01*
X32507072Y92112028D01*
X33171778Y92112028D01*
X33171778Y91700264D01*
G37*
G36*
X33171778Y88029675D02*
G01*
X33171778Y87617911D01*
X33036484Y87617911D01*
X32901189Y87617911D01*
X32901189Y87864969D01*
X32901189Y88112028D01*
X32754385Y88112028D01*
X32607580Y88112028D01*
X32604385Y87885558D01*
X32601189Y87659087D01*
X32468836Y87655761D01*
X32336484Y87652434D01*
X32336484Y87882231D01*
X32336484Y88112028D01*
X32224719Y88112028D01*
X32112954Y88112028D01*
X32112954Y87870852D01*
X32112954Y87629675D01*
X31977660Y87629675D01*
X31842366Y87629675D01*
X31842366Y88035558D01*
X31842366Y88441440D01*
X32507072Y88441440D01*
X33171778Y88441440D01*
X33171778Y88029675D01*
G37*
G36*
X29995307Y75694381D02*
G01*
X29995307Y74300264D01*
X29530601Y74300264D01*
X29065895Y74300264D01*
X29065895Y75135558D01*
X29065895Y75970852D01*
X28565895Y75970852D01*
X28065895Y75970852D01*
X28065895Y75188499D01*
X28065895Y74406146D01*
X27612954Y74406146D01*
X27160013Y74406146D01*
X27160013Y75188499D01*
X27160013Y75970852D01*
X26777660Y75970852D01*
X26395307Y75970852D01*
X26395307Y75147322D01*
X26395307Y74323793D01*
X25930601Y74323793D01*
X25465895Y74323793D01*
X25465895Y75706146D01*
X25465895Y77088499D01*
X27730601Y77088499D01*
X29995307Y77088499D01*
X29995307Y75694381D01*
G37*
G36*
X31898248Y90136638D02*
G01*
X31908277Y90132653D01*
X31941395Y90119447D01*
X31992856Y90098899D01*
X32060455Y90071888D01*
X32141986Y90039297D01*
X32235246Y90002007D01*
X32338030Y89960900D01*
X32448133Y89916856D01*
X32563351Y89870756D01*
X33172571Y89626981D01*
X33169233Y89507746D01*
X33165895Y89388511D01*
X32536484Y89133255D01*
X32445694Y89096449D01*
X32333970Y89051196D01*
X32229666Y89008992D01*
X32134837Y88970665D01*
X32051538Y88937045D01*
X31981822Y88908961D01*
X31927744Y88887242D01*
X31891358Y88872716D01*
X31874719Y88866214D01*
X31842366Y88854429D01*
X31842442Y89033229D01*
X31842519Y89212028D01*
X32180678Y89328932D01*
X32200623Y89335829D01*
X32289738Y89366701D01*
X32375110Y89396357D01*
X32453038Y89423507D01*
X32519822Y89446861D01*
X32571762Y89465127D01*
X32605158Y89477014D01*
X32691480Y89508193D01*
X32267039Y89654228D01*
X31842598Y89800264D01*
X31842482Y89979504D01*
X31842366Y90158744D01*
X31898248Y90136638D01*
G37*
G36*
X32665895Y94841115D02*
G01*
X32727870Y94866435D01*
X32830414Y94908218D01*
X32922685Y94945697D01*
X33002768Y94978099D01*
X33068748Y95004649D01*
X33118711Y95024572D01*
X33150743Y95037094D01*
X33162929Y95041440D01*
X33164417Y95038967D01*
X33167324Y95018346D01*
X33169659Y94980200D01*
X33171213Y94928629D01*
X33171778Y94867731D01*
X33171778Y94694022D01*
X33110013Y94672215D01*
X33090296Y94665208D01*
X33036452Y94645781D01*
X32986484Y94627432D01*
X32924719Y94604455D01*
X32924719Y94360557D01*
X32924719Y94116659D01*
X33048248Y94076734D01*
X33171778Y94036809D01*
X33171778Y93851841D01*
X33171778Y93666872D01*
X32704131Y93856025D01*
X32677486Y93866802D01*
X32568746Y93910776D01*
X32459929Y93954770D01*
X32354682Y93997310D01*
X32256654Y94036922D01*
X32169493Y94072131D01*
X32096848Y94101464D01*
X32042366Y94123446D01*
X31848248Y94201714D01*
X31848248Y94353831D01*
X31848248Y94354995D01*
X32246655Y94354995D01*
X32248248Y94349416D01*
X32262193Y94345480D01*
X32295956Y94334701D01*
X32344390Y94318613D01*
X32403387Y94298583D01*
X32468836Y94275979D01*
X32665895Y94207369D01*
X32665895Y94359191D01*
X32665895Y94511012D01*
X32551189Y94469003D01*
X32530815Y94461574D01*
X32462724Y94437072D01*
X32391846Y94411949D01*
X32330601Y94390618D01*
X32305585Y94381759D01*
X32266266Y94366025D01*
X32246655Y94354995D01*
X31848248Y94354995D01*
X31848248Y94505949D01*
X32501164Y94773694D01*
X32616967Y94821125D01*
X32665895Y94841115D01*
G37*
G36*
X33171778Y100942416D02*
G01*
X33171778Y100394381D01*
X33024973Y100394381D01*
X32878168Y100394381D01*
X32874973Y100620481D01*
X32871778Y100846580D01*
X32712626Y100693432D01*
X32665760Y100648699D01*
X32599781Y100587684D01*
X32544843Y100540189D01*
X32497860Y100503898D01*
X32455745Y100476494D01*
X32415411Y100455660D01*
X32373773Y100439080D01*
X32327159Y100426409D01*
X32250886Y100416449D01*
X32173685Y100416736D01*
X32106376Y100427729D01*
X32027184Y100461750D01*
X31956414Y100516160D01*
X31897047Y100588428D01*
X31851526Y100676171D01*
X31849351Y100681702D01*
X31839020Y100712031D01*
X31832119Y100743444D01*
X31827997Y100781549D01*
X31826002Y100831953D01*
X31825482Y100900264D01*
X31825505Y100918229D01*
X31826289Y100981538D01*
X31828681Y101028326D01*
X31833351Y101064254D01*
X31840969Y101094980D01*
X31852203Y101126165D01*
X31874344Y101171068D01*
X31920997Y101237880D01*
X31977997Y101297977D01*
X32038267Y101343107D01*
X32052842Y101351180D01*
X32108095Y101376255D01*
X32168980Y101397566D01*
X32226876Y101412367D01*
X32273158Y101417911D01*
X32313618Y101417911D01*
X32310345Y101257363D01*
X32307072Y101096815D01*
X32248248Y101079894D01*
X32222759Y101071124D01*
X32165725Y101037346D01*
X32126461Y100990667D01*
X32106701Y100933699D01*
X32108185Y100869058D01*
X32124730Y100821366D01*
X32158951Y100780440D01*
X32206729Y100756349D01*
X32265387Y100750352D01*
X32332248Y100763707D01*
X32358269Y100773785D01*
X32388727Y100789234D01*
X32422720Y100810668D01*
X32462114Y100839613D01*
X32508779Y100877594D01*
X32564580Y100926138D01*
X32631387Y100986771D01*
X32711066Y101061020D01*
X32805485Y101150410D01*
X32839029Y101182304D01*
X32906740Y101246494D01*
X32969799Y101306030D01*
X33025735Y101358593D01*
X33072074Y101401862D01*
X33106344Y101433517D01*
X33126073Y101451239D01*
X33171778Y101490450D01*
X33171778Y100942416D01*
G37*
G36*
X32485058Y83357606D02*
G01*
X32507072Y83359087D01*
X32579242Y83356151D01*
X32697443Y83336014D01*
X32804567Y83295955D01*
X32902908Y83234997D01*
X32994761Y83152169D01*
X33039106Y83101171D01*
X33107554Y82999883D01*
X33157756Y82892077D01*
X33187179Y82782617D01*
X33187907Y82777312D01*
X33190337Y82746642D01*
X33192398Y82702363D01*
X33193705Y82652146D01*
X33193413Y82614350D01*
X33178081Y82485188D01*
X33140708Y82363933D01*
X33081631Y82251469D01*
X33001189Y82148680D01*
X32946788Y82095258D01*
X32850054Y82022842D01*
X32745742Y81972219D01*
X32632024Y81942590D01*
X32507072Y81933159D01*
X32437469Y81936289D01*
X32317969Y81957614D01*
X32208470Y81999732D01*
X32107288Y82063380D01*
X32012737Y82149296D01*
X31949835Y82226125D01*
X31886507Y82335038D01*
X31843398Y82453012D01*
X31821177Y82577360D01*
X31821017Y82608246D01*
X32127316Y82608246D01*
X32142230Y82523002D01*
X32176845Y82448239D01*
X32232245Y82381015D01*
X32259825Y82356381D01*
X32331238Y82311235D01*
X32412471Y82285135D01*
X32507072Y82276734D01*
X32566156Y82280110D01*
X32657752Y82301140D01*
X32736446Y82340740D01*
X32800844Y82398114D01*
X32849553Y82472465D01*
X32854920Y82484223D01*
X32875587Y82551457D01*
X32886076Y82627180D01*
X32885616Y82701917D01*
X32873436Y82766189D01*
X32858265Y82805650D01*
X32811879Y82882962D01*
X32749790Y82943634D01*
X32673572Y82986655D01*
X32584803Y83011012D01*
X32485058Y83015692D01*
X32477749Y83015260D01*
X32380231Y82998896D01*
X32296840Y82964292D01*
X32228718Y82912565D01*
X32177007Y82844831D01*
X32142848Y82762206D01*
X32127383Y82665808D01*
X32127316Y82608246D01*
X31821017Y82608246D01*
X31820513Y82705394D01*
X31842077Y82834428D01*
X31859384Y82893287D01*
X31899840Y82988096D01*
X31955635Y83074664D01*
X32030598Y83159596D01*
X32092981Y83217051D01*
X32184754Y83281745D01*
X32281651Y83325847D01*
X32387735Y83351061D01*
X32485058Y83357606D01*
G37*
G36*
X32539216Y99948556D02*
G01*
X32615176Y99944912D01*
X32743090Y99923884D01*
X32856154Y99886212D01*
X32955894Y99831353D01*
X33043839Y99758762D01*
X33085603Y99713473D01*
X33140151Y99633484D01*
X33179555Y99541440D01*
X33185751Y99515410D01*
X33191289Y99456786D01*
X33191191Y99380070D01*
X33190145Y99354075D01*
X33186461Y99303646D01*
X33179721Y99265025D01*
X33168119Y99229900D01*
X33149845Y99189960D01*
X33145241Y99180860D01*
X33086712Y99092971D01*
X33009316Y99016079D01*
X32915672Y98952010D01*
X32808397Y98902588D01*
X32690112Y98869637D01*
X32670939Y98866131D01*
X32555883Y98854187D01*
X32436659Y98855545D01*
X32321420Y98869745D01*
X32218317Y98896325D01*
X32170065Y98914402D01*
X32068546Y98964668D01*
X31985280Y99026356D01*
X31917606Y99101689D01*
X31862859Y99192889D01*
X31859787Y99199282D01*
X31829897Y99288806D01*
X31818408Y99386189D01*
X31821193Y99428360D01*
X32115062Y99428360D01*
X32117094Y99373430D01*
X32118208Y99367148D01*
X32136154Y99317375D01*
X32170847Y99276084D01*
X32225681Y99239080D01*
X32242315Y99230550D01*
X32328760Y99200888D01*
X32433313Y99185891D01*
X32555700Y99185603D01*
X32637010Y99193490D01*
X32731078Y99214271D01*
X32806226Y99246367D01*
X32861706Y99289433D01*
X32896769Y99343123D01*
X32907015Y99374527D01*
X32909252Y99431401D01*
X32888706Y99483288D01*
X32845604Y99529743D01*
X32780176Y99570320D01*
X32717374Y99595315D01*
X32630899Y99615850D01*
X32539216Y99625119D01*
X32446823Y99623514D01*
X32358217Y99611428D01*
X32277896Y99589254D01*
X32210357Y99557384D01*
X32160097Y99516209D01*
X32130627Y99475482D01*
X32115062Y99428360D01*
X31821193Y99428360D01*
X31824970Y99485557D01*
X31849238Y99581036D01*
X31890865Y99666753D01*
X31895933Y99674529D01*
X31959145Y99751123D01*
X32038613Y99818542D01*
X32127895Y99871229D01*
X32167115Y99888987D01*
X32246315Y99918704D01*
X32323953Y99937668D01*
X32408162Y99947568D01*
X32507072Y99950098D01*
X32539216Y99948556D01*
G37*
G36*
X32109541Y87064969D02*
G01*
X32507072Y87064969D01*
X33171778Y87064969D01*
X33171778Y86900264D01*
X33171778Y86735558D01*
X32930601Y86735558D01*
X32909749Y86735546D01*
X32831302Y86735155D01*
X32773106Y86734084D01*
X32732491Y86732152D01*
X32706785Y86729182D01*
X32693320Y86724993D01*
X32689425Y86719409D01*
X32693716Y86713812D01*
X32715297Y86696688D01*
X32752570Y86670796D01*
X32802741Y86637994D01*
X32863016Y86600139D01*
X32930601Y86559087D01*
X33171778Y86414914D01*
X33171778Y86222295D01*
X33171583Y86176386D01*
X33170699Y86118039D01*
X33169225Y86071543D01*
X33167296Y86040791D01*
X33165048Y86029675D01*
X33156860Y86034419D01*
X33131735Y86051197D01*
X33092364Y86078346D01*
X33041375Y86114035D01*
X32981394Y86156437D01*
X32915048Y86203721D01*
X32859660Y86243311D01*
X32797449Y86287680D01*
X32743414Y86326112D01*
X32700292Y86356665D01*
X32670820Y86377394D01*
X32657735Y86386359D01*
X32652598Y86387322D01*
X32635293Y86374718D01*
X32612699Y86342067D01*
X32597811Y86319196D01*
X32554556Y86267281D01*
X32502689Y86218648D01*
X32448808Y86179103D01*
X32399511Y86154453D01*
X32365193Y86145870D01*
X32312402Y86138406D01*
X32258358Y86135558D01*
X32173745Y86142931D01*
X32084073Y86170316D01*
X32006916Y86217142D01*
X31943269Y86282581D01*
X31894131Y86365806D01*
X31860499Y86465989D01*
X31859721Y86469372D01*
X31853164Y86507387D01*
X31848329Y86556735D01*
X31845055Y86620458D01*
X31843179Y86701601D01*
X31842965Y86735558D01*
X32109541Y86735558D01*
X32116512Y86652408D01*
X32124295Y86595550D01*
X32143616Y86536209D01*
X32174300Y86495786D01*
X32217733Y86472643D01*
X32275303Y86465143D01*
X32331168Y86472204D01*
X32378841Y86496777D01*
X32410798Y86538558D01*
X32420115Y86564914D01*
X32430425Y86609048D01*
X32437538Y86656723D01*
X32445615Y86735558D01*
X32277578Y86735558D01*
X32109541Y86735558D01*
X31842965Y86735558D01*
X31842540Y86803205D01*
X31842366Y87064969D01*
X32109541Y87064969D01*
G37*
G36*
X32952588Y85664543D02*
G01*
X32966822Y85655526D01*
X32992278Y85634595D01*
X33023952Y85605831D01*
X33085988Y85534389D01*
X33139890Y85444116D01*
X33177428Y85346001D01*
X33184750Y85312565D01*
X33191311Y85245128D01*
X33191520Y85158378D01*
X33189914Y85115096D01*
X33186257Y85067193D01*
X33179675Y85029941D01*
X33168664Y84995725D01*
X33151717Y84956927D01*
X33109438Y84882056D01*
X33046544Y84808017D01*
X32972244Y84753955D01*
X32887448Y84720502D01*
X32793070Y84708291D01*
X32758334Y84708571D01*
X32677734Y84717537D01*
X32608947Y84739902D01*
X32545392Y84777505D01*
X32509714Y84807316D01*
X32470197Y84851723D01*
X32431619Y84909104D01*
X32391806Y84982753D01*
X32348585Y85075966D01*
X32318478Y85142408D01*
X32291909Y85194248D01*
X32268655Y85229530D01*
X32246368Y85251148D01*
X32222701Y85261997D01*
X32195307Y85264969D01*
X32172688Y85262833D01*
X32132656Y85243766D01*
X32105612Y85205586D01*
X32092252Y85149078D01*
X32091962Y85145897D01*
X32094363Y85079099D01*
X32115074Y85016296D01*
X32156019Y84951531D01*
X32173324Y84928101D01*
X32188716Y84905148D01*
X32193171Y84895178D01*
X32186207Y84889573D01*
X32164222Y84871669D01*
X32131081Y84844595D01*
X32090672Y84811524D01*
X31991920Y84730644D01*
X31957215Y84771336D01*
X31924713Y84811721D01*
X31873219Y84892236D01*
X31840101Y84974960D01*
X31823329Y85065848D01*
X31820870Y85170852D01*
X31822609Y85211771D01*
X31826537Y85260406D01*
X31833372Y85298279D01*
X31844694Y85333134D01*
X31862086Y85372718D01*
X31887146Y85419734D01*
X31945319Y85496007D01*
X32015749Y85552407D01*
X32097937Y85588584D01*
X32191384Y85604187D01*
X32255463Y85603757D01*
X32327240Y85590951D01*
X32390709Y85562924D01*
X32447869Y85518026D01*
X32500718Y85454607D01*
X32551253Y85371019D01*
X32601473Y85265612D01*
X32620049Y85224354D01*
X32644909Y85173145D01*
X32667370Y85130999D01*
X32684173Y85104273D01*
X32702899Y85083882D01*
X32746304Y85056798D01*
X32793820Y85046887D01*
X32840094Y85053840D01*
X32879770Y85077350D01*
X32907495Y85117109D01*
X32916712Y85143935D01*
X32924438Y85214628D01*
X32910835Y85287622D01*
X32876768Y85359732D01*
X32823102Y85427773D01*
X32758308Y85494381D01*
X32850337Y85579337D01*
X32880337Y85606582D01*
X32914648Y85636498D01*
X32939830Y85656965D01*
X32951894Y85664631D01*
X32952588Y85664543D01*
G37*
G36*
X32764117Y98420643D02*
G01*
X32769317Y98421613D01*
X32853473Y98418102D01*
X32931682Y98395775D01*
X32968297Y98376734D01*
X33037273Y98322717D01*
X33096757Y98251098D01*
X33144105Y98165406D01*
X33176667Y98069170D01*
X33191145Y97982692D01*
X33191854Y97863337D01*
X33171496Y97745708D01*
X33130642Y97635200D01*
X33124984Y97623887D01*
X33071773Y97542854D01*
X33006226Y97479422D01*
X32930930Y97434778D01*
X32848470Y97410103D01*
X32761433Y97406582D01*
X32672403Y97425400D01*
X32638504Y97441035D01*
X32586669Y97476664D01*
X32537575Y97522124D01*
X32499044Y97570852D01*
X32480336Y97600264D01*
X32432382Y97546021D01*
X32408250Y97521092D01*
X32342239Y97473744D01*
X32267901Y97448270D01*
X32183985Y97444158D01*
X32144064Y97448733D01*
X32077550Y97467325D01*
X32017749Y97501696D01*
X31957833Y97555196D01*
X31951590Y97561736D01*
X31888629Y97644049D01*
X31846340Y97735546D01*
X31824203Y97837738D01*
X31822749Y97904210D01*
X32079110Y97904210D01*
X32090152Y97848604D01*
X32119634Y97806626D01*
X32165948Y97780100D01*
X32227482Y97770852D01*
X32247521Y97771122D01*
X32280523Y97775105D01*
X32305136Y97787017D01*
X32331778Y97810852D01*
X32336847Y97815985D01*
X32359374Y97843309D01*
X32369457Y97870765D01*
X32371778Y97909949D01*
X32371115Y97926457D01*
X32595252Y97926457D01*
X32598714Y97870348D01*
X32622012Y97816709D01*
X32654169Y97779964D01*
X32704291Y97749582D01*
X32759938Y97738289D01*
X32816516Y97746054D01*
X32869431Y97772847D01*
X32914091Y97818638D01*
X32932463Y97852190D01*
X32944019Y97907113D01*
X32936649Y97961360D01*
X32912663Y98010775D01*
X32874372Y98051201D01*
X32824087Y98078480D01*
X32764117Y98088455D01*
X32732529Y98085279D01*
X32680264Y98064448D01*
X32638389Y98028023D01*
X32609264Y97980521D01*
X32595252Y97926457D01*
X32371115Y97926457D01*
X32370669Y97937543D01*
X32362074Y97973541D01*
X32341981Y98004458D01*
X32320925Y98025397D01*
X32273905Y98052052D01*
X32223380Y98060512D01*
X32174090Y98052003D01*
X32130779Y98027753D01*
X32098188Y97988988D01*
X32081059Y97936936D01*
X32079110Y97904210D01*
X31822749Y97904210D01*
X31821700Y97952138D01*
X31828088Y98010672D01*
X31854701Y98112827D01*
X31899205Y98203762D01*
X31960113Y98280776D01*
X32035939Y98341171D01*
X32052847Y98351157D01*
X32088492Y98367384D01*
X32127602Y98376368D01*
X32180178Y98380860D01*
X32182689Y98380983D01*
X32223380Y98380099D01*
X32258173Y98379343D01*
X32319416Y98364687D01*
X32373102Y98334432D01*
X32425919Y98285999D01*
X32431628Y98279911D01*
X32459310Y98251607D01*
X32476286Y98238321D01*
X32486690Y98237739D01*
X32494655Y98247548D01*
X32509705Y98270527D01*
X32553307Y98320119D01*
X32605505Y98364347D01*
X32657342Y98395091D01*
X32687371Y98406329D01*
X32764117Y98420643D01*
G37*
G36*
X26395307Y82100264D02*
G01*
X27730601Y82100264D01*
X29995307Y82100264D01*
X29995307Y81541440D01*
X29995307Y80982617D01*
X29165895Y80982617D01*
X28336484Y80982617D01*
X28336484Y80931525D01*
X28336484Y80880434D01*
X29165781Y80381525D01*
X29995079Y79882617D01*
X29995193Y79214969D01*
X29995145Y79121846D01*
X29994893Y79004267D01*
X29994445Y78895581D01*
X29993822Y78797881D01*
X29993042Y78713255D01*
X29992126Y78643796D01*
X29991095Y78591593D01*
X29989969Y78558739D01*
X29988767Y78547322D01*
X29988434Y78547462D01*
X29975500Y78556026D01*
X29944972Y78577190D01*
X29898197Y78609999D01*
X29836522Y78653497D01*
X29761296Y78706728D01*
X29673867Y78768736D01*
X29575581Y78838566D01*
X29467788Y78915262D01*
X29351834Y78997868D01*
X29229068Y79085428D01*
X29100836Y79176986D01*
X29083740Y79189199D01*
X28955905Y79280457D01*
X28833555Y79367695D01*
X28718054Y79449946D01*
X28610769Y79526242D01*
X28513063Y79595617D01*
X28426301Y79657102D01*
X28351850Y79709731D01*
X28291072Y79752535D01*
X28245334Y79784548D01*
X28216000Y79804802D01*
X28204436Y79812329D01*
X28203353Y79812577D01*
X28189451Y79802998D01*
X28168752Y79773721D01*
X28142725Y79726783D01*
X28075243Y79607046D01*
X27979690Y79467542D01*
X27873314Y79340304D01*
X27758765Y79228146D01*
X27638692Y79133884D01*
X27515743Y79060335D01*
X27375664Y79001552D01*
X27220428Y78958604D01*
X27056887Y78933013D01*
X26888860Y78924765D01*
X26720164Y78933846D01*
X26554617Y78960243D01*
X26396040Y79003941D01*
X26248248Y79064926D01*
X26195417Y79092591D01*
X26055272Y79183632D01*
X25929577Y79293089D01*
X25818501Y79420718D01*
X25722214Y79566276D01*
X25640884Y79729518D01*
X25574681Y79910202D01*
X25523774Y80108084D01*
X25517995Y80136127D01*
X25507904Y80188243D01*
X25499190Y80239152D01*
X25491756Y80290915D01*
X25485501Y80345594D01*
X25480327Y80405249D01*
X25476133Y80471942D01*
X25472821Y80547735D01*
X25470291Y80634689D01*
X25468443Y80734865D01*
X25467180Y80850324D01*
X25466403Y80982617D01*
X26395307Y80982617D01*
X26395511Y80856146D01*
X26395662Y80829787D01*
X26402100Y80669575D01*
X26418365Y80529951D01*
X26444975Y80410002D01*
X26482449Y80308812D01*
X26531304Y80225466D01*
X26592059Y80159051D01*
X26665232Y80108650D01*
X26751342Y80073349D01*
X26850906Y80052234D01*
X26964721Y80045932D01*
X27072984Y80057889D01*
X27171775Y80087370D01*
X27258184Y80133504D01*
X27329302Y80195421D01*
X27349309Y80218897D01*
X27397170Y80289336D01*
X27435394Y80371387D01*
X27466879Y80470852D01*
X27474865Y80504412D01*
X27483485Y80553909D01*
X27489880Y80611985D01*
X27494563Y80683619D01*
X27498048Y80773793D01*
X27504359Y80982617D01*
X26949833Y80982617D01*
X26395307Y80982617D01*
X25466403Y80982617D01*
X25466400Y80983128D01*
X25466005Y81135338D01*
X25465895Y81309015D01*
X25465895Y82100264D01*
X26395307Y82100264D01*
G37*
G36*
X26324719Y87088499D02*
G01*
X27731215Y87088499D01*
X28075279Y87088499D01*
X29996535Y87088499D01*
X29992008Y86097322D01*
X29991824Y86057199D01*
X29991013Y85885842D01*
X29990230Y85735966D01*
X29989432Y85605889D01*
X29988573Y85493929D01*
X29987610Y85398401D01*
X29986498Y85317625D01*
X29985193Y85249915D01*
X29983650Y85193591D01*
X29981825Y85146968D01*
X29979674Y85108365D01*
X29977153Y85076097D01*
X29974216Y85048484D01*
X29970820Y85023840D01*
X29966921Y85000485D01*
X29962473Y84976734D01*
X29957539Y84951688D01*
X29915380Y84770435D01*
X29865280Y84609126D01*
X29806171Y84465457D01*
X29736986Y84337125D01*
X29656658Y84221827D01*
X29564118Y84117260D01*
X29454012Y84018747D01*
X29331946Y83936185D01*
X29200363Y83873139D01*
X29057532Y83828937D01*
X28901721Y83802908D01*
X28731198Y83794381D01*
X28724279Y83794392D01*
X28629772Y83796827D01*
X28546337Y83803203D01*
X28480105Y83813066D01*
X28366405Y83843173D01*
X28222679Y83901950D01*
X28088787Y83981084D01*
X27966066Y84079465D01*
X27855857Y84195979D01*
X27759499Y84329515D01*
X27678330Y84478960D01*
X27670844Y84495268D01*
X27648731Y84546000D01*
X27630103Y84592271D01*
X27618372Y84625735D01*
X27603946Y84674735D01*
X27557063Y84604527D01*
X27484083Y84509271D01*
X27378401Y84404963D01*
X27256692Y84315291D01*
X27121474Y84242062D01*
X26975267Y84187084D01*
X26950173Y84180140D01*
X26849660Y84160878D01*
X26736559Y84150075D01*
X26618258Y84147940D01*
X26502142Y84154686D01*
X26395598Y84170523D01*
X26318767Y84188427D01*
X26197704Y84227858D01*
X26089891Y84279913D01*
X25989664Y84347547D01*
X25891358Y84433718D01*
X25845064Y84481173D01*
X25774843Y84566261D01*
X25712990Y84661066D01*
X25654691Y84772477D01*
X25651903Y84778363D01*
X25591943Y84925987D01*
X25543196Y85090664D01*
X25505313Y85273784D01*
X25477947Y85476734D01*
X25477690Y85479378D01*
X25475640Y85513671D01*
X25473704Y85568818D01*
X25471914Y85642435D01*
X25470305Y85732138D01*
X25468908Y85835543D01*
X25467756Y85950266D01*
X25467444Y85994381D01*
X26324719Y85994381D01*
X26324719Y85835062D01*
X26324942Y85804922D01*
X26332919Y85665603D01*
X26352665Y85546154D01*
X26384631Y85445900D01*
X26429268Y85364169D01*
X26487027Y85300287D01*
X26558357Y85253579D01*
X26643709Y85223373D01*
X26743535Y85208995D01*
X26846653Y85209092D01*
X26953979Y85226637D01*
X27047309Y85263083D01*
X27126808Y85318548D01*
X27192642Y85393153D01*
X27244977Y85487018D01*
X27283979Y85600264D01*
X27284689Y85603058D01*
X27292280Y85643938D01*
X27299467Y85700563D01*
X27305470Y85765825D01*
X27309509Y85832617D01*
X27316446Y85994381D01*
X28075279Y85994381D01*
X28080788Y85703205D01*
X28083062Y85609153D01*
X28087298Y85508837D01*
X28093654Y85425437D01*
X28102768Y85355278D01*
X28115276Y85294683D01*
X28131817Y85239976D01*
X28153028Y85187482D01*
X28179545Y85133524D01*
X28226117Y85059456D01*
X28291869Y84990052D01*
X28370502Y84939497D01*
X28463358Y84906961D01*
X28571778Y84891619D01*
X28581462Y84891100D01*
X28694532Y84895572D01*
X28795308Y84920051D01*
X28883566Y84964352D01*
X28959083Y85028288D01*
X29021633Y85111673D01*
X29070993Y85214321D01*
X29106938Y85336045D01*
X29113536Y85372612D01*
X29120142Y85429593D01*
X29125481Y85503116D01*
X29129716Y85595506D01*
X29133009Y85709087D01*
X29139577Y85994381D01*
X28607428Y85994381D01*
X28075279Y85994381D01*
X27316446Y85994381D01*
X26820582Y85994381D01*
X26324719Y85994381D01*
X25467444Y85994381D01*
X25466882Y86073922D01*
X25466319Y86204128D01*
X25466099Y86338499D01*
X25465895Y87088499D01*
X26324719Y87088499D01*
G37*
G36*
X29984597Y94289838D02*
G01*
X29987457Y94274583D01*
X29989797Y94247186D01*
X29991659Y94206019D01*
X29993087Y94149456D01*
X29994123Y94075871D01*
X29994809Y93983637D01*
X29995190Y93871127D01*
X29995307Y93736716D01*
X29995307Y93173907D01*
X29862954Y93153873D01*
X29671181Y93124791D01*
X29433205Y93088554D01*
X29203607Y93053425D01*
X28983379Y93019563D01*
X28773515Y92987126D01*
X28575007Y92956272D01*
X28388849Y92927158D01*
X28216033Y92899942D01*
X28057552Y92874782D01*
X27914399Y92851835D01*
X27787567Y92831260D01*
X27678049Y92813215D01*
X27586838Y92797856D01*
X27514926Y92785342D01*
X27463307Y92775830D01*
X27432973Y92769479D01*
X27424918Y92766446D01*
X27427302Y92765553D01*
X27448537Y92757739D01*
X27489960Y92742564D01*
X27550147Y92720546D01*
X27627675Y92692207D01*
X27721118Y92658067D01*
X27829051Y92618646D01*
X27950051Y92574463D01*
X28082693Y92526040D01*
X28225552Y92473897D01*
X28377205Y92418553D01*
X28536225Y92360530D01*
X28701189Y92300346D01*
X28759207Y92279181D01*
X28922185Y92219719D01*
X29078682Y92162612D01*
X29227277Y92108379D01*
X29366551Y92057539D01*
X29495084Y92010611D01*
X29611453Y91968113D01*
X29714240Y91930565D01*
X29802024Y91898484D01*
X29873384Y91872390D01*
X29926900Y91852802D01*
X29961152Y91840237D01*
X29974719Y91835216D01*
X29979265Y91832745D01*
X29984737Y91825713D01*
X29988811Y91812156D01*
X29991690Y91789241D01*
X29993576Y91754133D01*
X29994673Y91703999D01*
X29995182Y91636004D01*
X29995307Y91547315D01*
X29995307Y91267472D01*
X29921778Y91238284D01*
X29920669Y91237845D01*
X29897822Y91228894D01*
X29854705Y91212084D01*
X29792834Y91188004D01*
X29713728Y91157244D01*
X29618901Y91120392D01*
X29509871Y91078038D01*
X29388155Y91030770D01*
X29255270Y90979179D01*
X29112731Y90923852D01*
X28962057Y90865379D01*
X28804763Y90804350D01*
X28642366Y90741352D01*
X28614400Y90730503D01*
X28454480Y90668422D01*
X28300944Y90608744D01*
X28155207Y90552024D01*
X28018683Y90498816D01*
X27892787Y90449672D01*
X27778932Y90405148D01*
X27678534Y90365795D01*
X27593007Y90332169D01*
X27523765Y90304822D01*
X27472222Y90284308D01*
X27439794Y90271180D01*
X27427894Y90265993D01*
X27428022Y90265779D01*
X27442012Y90262755D01*
X27477605Y90256902D01*
X27533323Y90248428D01*
X27607685Y90237539D01*
X27699213Y90224443D01*
X27806427Y90209347D01*
X27927850Y90192458D01*
X28062000Y90173983D01*
X28207400Y90154129D01*
X28362571Y90133103D01*
X28526032Y90111113D01*
X28696306Y90088366D01*
X28721577Y90085000D01*
X28891453Y90062322D01*
X29054608Y90040447D01*
X29209534Y90019583D01*
X29354720Y89999936D01*
X29488656Y89981715D01*
X29609834Y89965126D01*
X29716743Y89950377D01*
X29807873Y89937675D01*
X29881716Y89927228D01*
X29936761Y89919242D01*
X29971499Y89913926D01*
X29984421Y89911485D01*
X29985709Y89907855D01*
X29988032Y89883592D01*
X29989935Y89837837D01*
X29991398Y89771952D01*
X29992403Y89687304D01*
X29992931Y89585255D01*
X29992963Y89467169D01*
X29992479Y89334412D01*
X29989425Y88764206D01*
X27742366Y89149287D01*
X27705108Y89155671D01*
X27479325Y89194351D01*
X27259858Y89231929D01*
X27047832Y89268214D01*
X26844371Y89303014D01*
X26650601Y89336137D01*
X26467647Y89367392D01*
X26296634Y89396586D01*
X26138686Y89423528D01*
X25994928Y89448025D01*
X25866487Y89469887D01*
X25754486Y89488921D01*
X25660050Y89504936D01*
X25584305Y89517739D01*
X25528376Y89527139D01*
X25493388Y89532944D01*
X25480465Y89534962D01*
X25479369Y89535306D01*
X25475714Y89542525D01*
X25472816Y89560484D01*
X25470628Y89591008D01*
X25469103Y89635925D01*
X25468194Y89697060D01*
X25467855Y89776241D01*
X25468039Y89875295D01*
X25468700Y89996047D01*
X25471778Y90456537D01*
X26823414Y90977333D01*
X26971887Y91034549D01*
X27137708Y91098471D01*
X27296480Y91159698D01*
X27446846Y91217705D01*
X27587453Y91271969D01*
X27716944Y91321967D01*
X27833964Y91367174D01*
X27937158Y91407068D01*
X28025171Y91441124D01*
X28096647Y91468820D01*
X28150231Y91489630D01*
X28184568Y91503033D01*
X28198303Y91508504D01*
X28199019Y91509236D01*
X28194528Y91513756D01*
X28179334Y91521995D01*
X28152563Y91534294D01*
X28113340Y91550993D01*
X28060788Y91572431D01*
X27994035Y91598949D01*
X27912204Y91630887D01*
X27814421Y91668584D01*
X27699810Y91712380D01*
X27567498Y91762615D01*
X27416608Y91819630D01*
X27246266Y91883764D01*
X27055597Y91955356D01*
X26843726Y92034747D01*
X25465895Y92550615D01*
X25465895Y93012882D01*
X25465895Y93021562D01*
X25465963Y93136794D01*
X25466218Y93230823D01*
X25466755Y93305829D01*
X25467672Y93363989D01*
X25469062Y93407484D01*
X25471023Y93438490D01*
X25473650Y93459187D01*
X25477038Y93471753D01*
X25481284Y93478366D01*
X25486484Y93481206D01*
X25486835Y93481295D01*
X25502713Y93484389D01*
X25540499Y93491418D01*
X25599062Y93502177D01*
X25677271Y93516461D01*
X25773996Y93534066D01*
X25888104Y93554786D01*
X26018466Y93578418D01*
X26163949Y93604757D01*
X26323424Y93633598D01*
X26495758Y93664736D01*
X26679821Y93697967D01*
X26874482Y93733085D01*
X27078610Y93769888D01*
X27291073Y93808168D01*
X27510742Y93847723D01*
X27736484Y93888348D01*
X27761627Y93892871D01*
X27986653Y93933369D01*
X28205427Y93972767D01*
X28416821Y94010859D01*
X28619709Y94047442D01*
X28812964Y94082311D01*
X28995457Y94115264D01*
X29166063Y94146096D01*
X29323655Y94174603D01*
X29467104Y94200580D01*
X29595284Y94223825D01*
X29707069Y94244133D01*
X29801330Y94261299D01*
X29876941Y94275121D01*
X29932774Y94285394D01*
X29967704Y94291915D01*
X29980601Y94294478D01*
X29981173Y94294576D01*
X29984597Y94289838D01*
G37*
%TO.C,J5*%
X48702600Y42520000D02*
X46042600Y42520000D01*
X48702600Y52740000D02*
X48702600Y42520000D01*
X48702600Y52740000D02*
X46042600Y52740000D01*
X47372600Y55340000D02*
X46042600Y55340000D01*
X46042600Y52740000D02*
X46042600Y42520000D01*
X46042600Y55340000D02*
X46042600Y54010000D01*
%TO.C,G\u002A\u002A\u002A*%
G36*
X60322881Y15481695D02*
G01*
X60484646Y15478422D01*
X60487702Y14825481D01*
X60488026Y14747375D01*
X60488357Y14629448D01*
X60488473Y14519804D01*
X60488383Y14420619D01*
X60488094Y14334073D01*
X60487616Y14262343D01*
X60486957Y14207608D01*
X60486126Y14172046D01*
X60485130Y14157834D01*
X60483688Y14155696D01*
X60469553Y14149871D01*
X60439237Y14145980D01*
X60390302Y14143805D01*
X60320309Y14143128D01*
X60161117Y14143128D01*
X60161117Y14814048D01*
X60161117Y15484969D01*
X60322881Y15481695D01*
G37*
G36*
X59455234Y15481025D02*
G01*
X59590528Y15478422D01*
X59593584Y14825481D01*
X59593908Y14747429D01*
X59594233Y14629479D01*
X59594340Y14519801D01*
X59594237Y14420573D01*
X59593933Y14333977D01*
X59593436Y14262191D01*
X59592756Y14207395D01*
X59591901Y14171768D01*
X59590880Y14157491D01*
X59588071Y14153996D01*
X59573269Y14148814D01*
X59543775Y14145850D01*
X59496662Y14144892D01*
X59429001Y14145726D01*
X59272881Y14149010D01*
X59272881Y14563719D01*
X59272858Y14650402D01*
X59272782Y14739578D01*
X59272659Y14818489D01*
X59272496Y14884482D01*
X59272299Y14934904D01*
X59272077Y14967103D01*
X59271834Y14978425D01*
X59266700Y14972218D01*
X59248281Y14949395D01*
X59217870Y14911526D01*
X59176931Y14860438D01*
X59126925Y14797955D01*
X59069314Y14725906D01*
X59005563Y14646116D01*
X58937132Y14560412D01*
X58603478Y14142401D01*
X58473474Y14145706D01*
X58343469Y14149010D01*
X58343469Y14813716D01*
X58343469Y15478422D01*
X58502293Y15478422D01*
X58661117Y15478422D01*
X58656973Y15068161D01*
X58656338Y14984561D01*
X58656165Y14896296D01*
X58656547Y14818495D01*
X58657445Y14753770D01*
X58658821Y14704734D01*
X58660637Y14673999D01*
X58662855Y14664178D01*
X58667891Y14669573D01*
X58686456Y14691648D01*
X58717031Y14728930D01*
X58758082Y14779521D01*
X58808078Y14841525D01*
X58865487Y14913044D01*
X58928775Y14992182D01*
X58996411Y15077042D01*
X59319940Y15483627D01*
X59455234Y15481025D01*
G37*
G36*
X55044127Y15495563D02*
G01*
X55157584Y15465620D01*
X55264245Y15417554D01*
X55361803Y15352557D01*
X55447950Y15271823D01*
X55520379Y15176544D01*
X55576784Y15067912D01*
X55614857Y14947120D01*
X55621416Y14913473D01*
X55630210Y14794284D01*
X55617539Y14677635D01*
X55585013Y14565900D01*
X55534238Y14461455D01*
X55466823Y14366676D01*
X55384376Y14283937D01*
X55288505Y14215615D01*
X55180817Y14164085D01*
X55062920Y14131722D01*
X55050721Y14129739D01*
X54970092Y14124207D01*
X54879711Y14128306D01*
X54787744Y14140975D01*
X54702354Y14161153D01*
X54631705Y14187778D01*
X54590528Y14207834D01*
X54587280Y14387297D01*
X54584033Y14566761D01*
X54646104Y14519686D01*
X54720260Y14473459D01*
X54806559Y14443439D01*
X54902293Y14433786D01*
X54963799Y14437984D01*
X55054492Y14461635D01*
X55134008Y14505086D01*
X55200396Y14567147D01*
X55251701Y14646627D01*
X55268528Y14684326D01*
X55278680Y14719175D01*
X55283454Y14759269D01*
X55284646Y14813716D01*
X55283552Y14866340D01*
X55278941Y14906923D01*
X55269033Y14941815D01*
X55252052Y14980087D01*
X55240576Y15001388D01*
X55190305Y15069389D01*
X55126822Y15127866D01*
X55057301Y15169830D01*
X55050785Y15172624D01*
X54979411Y15191606D01*
X54898846Y15196115D01*
X54817422Y15186347D01*
X54743469Y15162495D01*
X54709946Y15145782D01*
X54664282Y15119419D01*
X54628764Y15094947D01*
X54584646Y15059666D01*
X54584646Y15241125D01*
X54584646Y15422584D01*
X54644849Y15448482D01*
X54686048Y15464733D01*
X54806052Y15496312D01*
X54926181Y15506192D01*
X55044127Y15495563D01*
G37*
G36*
X56980058Y15201952D02*
G01*
X56981819Y14825481D01*
X56982144Y14747375D01*
X56982475Y14629448D01*
X56982591Y14519804D01*
X56982500Y14420619D01*
X56982212Y14334073D01*
X56981734Y14262343D01*
X56981075Y14207608D01*
X56980243Y14172046D01*
X56979247Y14157834D01*
X56977805Y14155696D01*
X56963671Y14149871D01*
X56933355Y14145980D01*
X56884419Y14143805D01*
X56814427Y14143128D01*
X56655234Y14143128D01*
X56655234Y14378422D01*
X56655234Y14613716D01*
X56551824Y14613716D01*
X56519163Y14614326D01*
X56401759Y14627977D01*
X56298418Y14659266D01*
X56209932Y14707787D01*
X56137100Y14773131D01*
X56080714Y14854893D01*
X56076871Y14862186D01*
X56064355Y14888836D01*
X56056324Y14914788D01*
X56051798Y14946098D01*
X56049800Y14988821D01*
X56049365Y15047295D01*
X56372881Y15047295D01*
X56372886Y15044691D01*
X56375392Y15001615D01*
X56384484Y14971461D01*
X56403049Y14944375D01*
X56405920Y14941121D01*
X56439291Y14914105D01*
X56476579Y14896479D01*
X56496221Y14892231D01*
X56540867Y14886603D01*
X56587587Y14884370D01*
X56655234Y14884305D01*
X56655234Y15043128D01*
X56655234Y15201952D01*
X56572503Y15201952D01*
X56560961Y15201866D01*
X56488171Y15195652D01*
X56434873Y15178565D01*
X56399163Y15149127D01*
X56379134Y15105863D01*
X56372881Y15047295D01*
X56049365Y15047295D01*
X56049352Y15049010D01*
X56049371Y15065474D01*
X56050105Y15120901D01*
X56052627Y15160323D01*
X56057913Y15189798D01*
X56066941Y15215381D01*
X56080688Y15243128D01*
X56114976Y15296379D01*
X56181007Y15364823D01*
X56261117Y15416771D01*
X56283679Y15427531D01*
X56323741Y15444119D01*
X56364646Y15456743D01*
X56410173Y15465919D01*
X56464099Y15472161D01*
X56530203Y15475982D01*
X56612263Y15477898D01*
X56714058Y15478422D01*
X56978764Y15478422D01*
X56980058Y15201952D01*
G37*
G36*
X54078764Y15228222D02*
G01*
X54078764Y14815102D01*
X54078764Y14707834D01*
X54078764Y14143128D01*
X53816999Y14143217D01*
X53810219Y14143222D01*
X53685732Y14144547D01*
X53581679Y14148602D01*
X53495205Y14155965D01*
X53423453Y14167212D01*
X53363567Y14182922D01*
X53312691Y14203671D01*
X53267968Y14230038D01*
X53226541Y14262600D01*
X53198055Y14289817D01*
X53154585Y14347228D01*
X53128489Y14412314D01*
X53116631Y14491610D01*
X53117475Y14558884D01*
X53118581Y14563871D01*
X53433649Y14563871D01*
X53439465Y14514005D01*
X53462927Y14468307D01*
X53504293Y14432054D01*
X53536379Y14419045D01*
X53584096Y14410050D01*
X53651161Y14404497D01*
X53761117Y14398746D01*
X53761117Y14553290D01*
X53761117Y14707834D01*
X53664058Y14707576D01*
X53609851Y14705780D01*
X53558244Y14698456D01*
X53516556Y14684423D01*
X53473931Y14655009D01*
X53445223Y14612631D01*
X53433649Y14563871D01*
X53118581Y14563871D01*
X53136403Y14644251D01*
X53175321Y14718116D01*
X53233444Y14779119D01*
X53309985Y14825901D01*
X53368369Y14852685D01*
X53318269Y14898865D01*
X53282603Y14935680D01*
X53245958Y14991566D01*
X53225987Y15055083D01*
X53223262Y15090096D01*
X53527949Y15090096D01*
X53535653Y15040657D01*
X53558599Y14996820D01*
X53596227Y14964925D01*
X53597049Y14964493D01*
X53643500Y14948927D01*
X53699168Y14943128D01*
X53761117Y14943128D01*
X53761117Y15085675D01*
X53761117Y15228222D01*
X53684773Y15223361D01*
X53667629Y15222007D01*
X53613108Y15212195D01*
X53575949Y15194392D01*
X53560511Y15180430D01*
X53536049Y15138800D01*
X53527949Y15090096D01*
X53223262Y15090096D01*
X53219940Y15132768D01*
X53219942Y15134270D01*
X53229903Y15223260D01*
X53259298Y15299172D01*
X53308304Y15362236D01*
X53377099Y15412680D01*
X53465859Y15450732D01*
X53490277Y15458023D01*
X53519820Y15464817D01*
X53553860Y15470003D01*
X53596203Y15473921D01*
X53650656Y15476908D01*
X53721025Y15479303D01*
X53811117Y15481446D01*
X54078764Y15487076D01*
X54078764Y15228222D01*
G37*
G36*
X62071927Y14658413D02*
G01*
X62110701Y14564059D01*
X62149447Y14469571D01*
X62184872Y14382949D01*
X62216022Y14306506D01*
X62241943Y14242555D01*
X62261679Y14193409D01*
X62274277Y14161381D01*
X62274938Y14155333D01*
X62268734Y14150014D01*
X62251862Y14146481D01*
X62221107Y14144387D01*
X62173255Y14143385D01*
X62105090Y14143128D01*
X61928900Y14143128D01*
X61883049Y14269599D01*
X61837198Y14396069D01*
X61594326Y14399246D01*
X61351454Y14402423D01*
X61308254Y14272775D01*
X61265054Y14143128D01*
X61082301Y14143128D01*
X61060708Y14143139D01*
X60997437Y14143462D01*
X60953497Y14144519D01*
X60925610Y14146690D01*
X60910495Y14150359D01*
X60904873Y14155907D01*
X60905465Y14163716D01*
X60906150Y14165779D01*
X60914047Y14186546D01*
X60929619Y14226070D01*
X60951897Y14281964D01*
X60979913Y14351841D01*
X61012697Y14433313D01*
X61049281Y14523994D01*
X61088697Y14621496D01*
X61103412Y14657834D01*
X61443359Y14657834D01*
X61443500Y14657454D01*
X61456834Y14654161D01*
X61488756Y14651478D01*
X61534807Y14649672D01*
X61590528Y14649010D01*
X61596883Y14649019D01*
X61651760Y14649869D01*
X61696472Y14651908D01*
X61726566Y14654851D01*
X61737587Y14658413D01*
X61737585Y14658487D01*
X61733630Y14672491D01*
X61722944Y14704926D01*
X61706768Y14752174D01*
X61686339Y14810618D01*
X61662895Y14876641D01*
X61588202Y15085466D01*
X61515726Y14876062D01*
X61515213Y14874579D01*
X61492517Y14808522D01*
X61472783Y14750199D01*
X61457213Y14703231D01*
X61447005Y14671236D01*
X61443359Y14657834D01*
X61103412Y14657834D01*
X61129975Y14723432D01*
X61172147Y14827415D01*
X61214244Y14931058D01*
X61255298Y15031973D01*
X61294340Y15127774D01*
X61330400Y15216073D01*
X61362512Y15294484D01*
X61389705Y15360618D01*
X61411011Y15412089D01*
X61425462Y15446509D01*
X61432089Y15461493D01*
X61434167Y15465054D01*
X61442647Y15473699D01*
X61457559Y15479304D01*
X61483176Y15482511D01*
X61523772Y15483963D01*
X61583619Y15484305D01*
X61631313Y15483867D01*
X61685422Y15481447D01*
X61719152Y15476751D01*
X61734349Y15469599D01*
X61738373Y15461090D01*
X61750638Y15432730D01*
X61770084Y15386793D01*
X61795755Y15325593D01*
X61826698Y15251442D01*
X61861957Y15166654D01*
X61900578Y15073541D01*
X61941607Y14974416D01*
X61984088Y14871592D01*
X62027067Y14767383D01*
X62069590Y14664101D01*
X62071927Y14658413D01*
G37*
G36*
X63865253Y15481723D02*
G01*
X64001605Y15478422D01*
X64120731Y14819599D01*
X64137305Y14727577D01*
X64158076Y14611178D01*
X64177112Y14503284D01*
X64194056Y14405985D01*
X64208551Y14321373D01*
X64220239Y14251539D01*
X64228762Y14198576D01*
X64233763Y14164574D01*
X64234884Y14151626D01*
X64233483Y14150684D01*
X64214857Y14147814D01*
X64178379Y14145928D01*
X64128489Y14145185D01*
X64069630Y14145743D01*
X63909346Y14149010D01*
X63872200Y14390500D01*
X63859998Y14469938D01*
X63846668Y14556930D01*
X63833897Y14640480D01*
X63822692Y14713983D01*
X63814065Y14770835D01*
X63793076Y14909681D01*
X63671399Y14576405D01*
X63662687Y14552546D01*
X63631526Y14467270D01*
X63602451Y14387795D01*
X63576658Y14317383D01*
X63555341Y14259294D01*
X63539696Y14216789D01*
X63530917Y14193128D01*
X63512112Y14143128D01*
X63431721Y14143128D01*
X63351330Y14143128D01*
X63295521Y14287246D01*
X63275215Y14339676D01*
X63227261Y14463381D01*
X63186853Y14567336D01*
X63153321Y14653141D01*
X63125998Y14722393D01*
X63104214Y14776690D01*
X63087301Y14817629D01*
X63074589Y14846808D01*
X63065409Y14865825D01*
X63059094Y14876279D01*
X63054974Y14879766D01*
X63052379Y14877884D01*
X63050642Y14872232D01*
X63050541Y14871750D01*
X63047245Y14851495D01*
X63041458Y14811420D01*
X63033637Y14754859D01*
X63024236Y14685146D01*
X63013709Y14605614D01*
X63002513Y14519599D01*
X63001812Y14514170D01*
X62990671Y14428639D01*
X62980254Y14349948D01*
X62971012Y14281399D01*
X62963393Y14226291D01*
X62957847Y14187925D01*
X62954824Y14169599D01*
X62953902Y14165705D01*
X62949960Y14156369D01*
X62941317Y14150043D01*
X62924207Y14146140D01*
X62894865Y14144077D01*
X62849525Y14143268D01*
X62784422Y14143128D01*
X62767357Y14143133D01*
X62707210Y14143401D01*
X62666128Y14144467D01*
X62640484Y14146868D01*
X62626654Y14151139D01*
X62621015Y14157817D01*
X62619940Y14167435D01*
X62620466Y14172484D01*
X62624281Y14198486D01*
X62631416Y14243721D01*
X62641432Y14305580D01*
X62653889Y14381460D01*
X62668346Y14468752D01*
X62684364Y14564852D01*
X62701504Y14667152D01*
X62719324Y14773047D01*
X62737385Y14879931D01*
X62755247Y14985196D01*
X62772470Y15086238D01*
X62788614Y15180449D01*
X62803240Y15265224D01*
X62815907Y15337956D01*
X62826176Y15396039D01*
X62833606Y15436867D01*
X62837758Y15457834D01*
X62839367Y15463943D01*
X62844708Y15473552D01*
X62856285Y15479538D01*
X62878422Y15482756D01*
X62915441Y15484060D01*
X62971665Y15484305D01*
X63002158Y15484098D01*
X63058928Y15481883D01*
X63094535Y15477106D01*
X63110566Y15469599D01*
X63115053Y15460538D01*
X63127500Y15431287D01*
X63146452Y15384731D01*
X63170855Y15323518D01*
X63199654Y15250297D01*
X63231796Y15167715D01*
X63266226Y15078422D01*
X63292942Y15008925D01*
X63325427Y14924714D01*
X63354643Y14849300D01*
X63379563Y14785320D01*
X63399161Y14735408D01*
X63412408Y14702201D01*
X63418278Y14688334D01*
X63418406Y14688176D01*
X63424550Y14696979D01*
X63437795Y14725387D01*
X63457193Y14771069D01*
X63481797Y14831691D01*
X63510658Y14904920D01*
X63542829Y14988425D01*
X63577362Y15079871D01*
X63728902Y15485025D01*
X63865253Y15481723D01*
G37*
%TD*%
%LPC*%
D12*
%TO.C,R27*%
X62482600Y101256924D03*
D13*
X54862599Y101256923D03*
%TD*%
D12*
%TO.C,R22*%
X68480800Y119056800D03*
D13*
X60860799Y119056799D03*
%TD*%
D14*
%TO.C,J2*%
X19084299Y20131392D03*
D15*
X19084299Y13651392D03*
D16*
X19084298Y25051391D03*
X19084298Y16751391D03*
%TD*%
D12*
%TO.C,RX2*%
X53872600Y29740000D03*
D13*
X53872599Y37359999D03*
%TD*%
D12*
%TO.C,RX32*%
X65707600Y38425000D03*
D13*
X73327599Y38424999D03*
%TD*%
D12*
%TO.C,R31*%
X76387600Y71445000D03*
D13*
X84007599Y71444999D03*
%TD*%
D14*
%TO.C,J1*%
X19406199Y42866229D03*
D15*
X19406199Y36386229D03*
D16*
X19406198Y47786228D03*
X19406198Y39486228D03*
%TD*%
D12*
%TO.C,R25*%
X62482600Y97918848D03*
D13*
X54862599Y97918847D03*
%TD*%
D17*
%TO.C,D4*%
X62537199Y18802999D03*
D13*
X54917199Y18802999D03*
%TD*%
D12*
%TO.C,RM4*%
X12527600Y69460000D03*
D13*
X12527599Y77079999D03*
%TD*%
D12*
%TO.C,R47*%
X51547600Y61665000D03*
D13*
X51547599Y69284999D03*
%TD*%
D18*
%TO.C,VR1*%
X57762000Y112148000D03*
X60302000Y114688000D03*
X60302000Y112148000D03*
X62842000Y112148000D03*
%TD*%
D12*
%TO.C,RX52*%
X76398200Y52229400D03*
D13*
X84018199Y52229399D03*
%TD*%
D12*
%TO.C,RX3*%
X54862600Y51084375D03*
D13*
X62482599Y51084374D03*
%TD*%
D19*
%TO.C,REF\u002A\u002A*%
X29277600Y108338000D03*
%TD*%
D12*
%TO.C,R20*%
X84007600Y104595000D03*
D13*
X76387599Y104594999D03*
%TD*%
D12*
%TO.C,R32*%
X62482600Y87904620D03*
D13*
X54862599Y87904619D03*
%TD*%
D12*
%TO.C,RX33*%
X73327600Y34905000D03*
D13*
X65707599Y34904999D03*
%TD*%
D12*
%TO.C,R19*%
X76387600Y101180000D03*
D13*
X84007599Y101179999D03*
%TD*%
D12*
%TO.C,RX46*%
X85042600Y38360000D03*
D13*
X85042599Y30739999D03*
%TD*%
D12*
%TO.C,C8*%
X56172600Y71214240D03*
X61172600Y71214240D03*
%TD*%
D17*
%TO.C,C2*%
X66270999Y114357799D03*
D12*
X68271000Y114357800D03*
%TD*%
D19*
%TO.C,REF\u002A\u002A*%
X69517600Y108338000D03*
%TD*%
D12*
%TO.C,R36*%
X51547600Y83485000D03*
D13*
X51547599Y91104999D03*
%TD*%
D12*
%TO.C,R24*%
X71249400Y119056800D03*
D13*
X78869399Y119056799D03*
%TD*%
D12*
%TO.C,R37*%
X54862600Y67876164D03*
D13*
X62482599Y67876163D03*
%TD*%
D12*
%TO.C,RM3*%
X12527600Y81190000D03*
D13*
X12527599Y88809999D03*
%TD*%
D17*
%TO.C,U2*%
X65717599Y101454999D03*
D13*
X65717599Y98914999D03*
X65717599Y96374999D03*
X65717599Y93834999D03*
X65717599Y91294999D03*
X65717599Y88754999D03*
X65717599Y86214999D03*
X73337599Y86214999D03*
X73337599Y88754999D03*
X73337599Y91294999D03*
X73337599Y93834999D03*
X73337599Y96374999D03*
X73337599Y98914999D03*
X73337599Y101454999D03*
%TD*%
D12*
%TO.C,C5*%
X77697600Y94350000D03*
X82697600Y94350000D03*
%TD*%
D17*
%TO.C,D2*%
X76387599Y80939999D03*
D13*
X84007599Y80939999D03*
%TD*%
D20*
%TO.C,QX2*%
X81467599Y38944999D03*
D21*
X80197600Y37675000D03*
X78927600Y38945000D03*
%TD*%
D12*
%TO.C,R1*%
X84007600Y97765000D03*
D13*
X76387599Y97764999D03*
%TD*%
D12*
%TO.C,RM1*%
X46027600Y81190000D03*
D13*
X46027599Y88809999D03*
%TD*%
D12*
%TO.C,CX5*%
X77697600Y45045000D03*
X82697600Y45045000D03*
%TD*%
D22*
%TO.C,VR2*%
X39580000Y102707995D03*
X39580000Y70207995D03*
D23*
X41455000Y62707995D03*
D24*
X37705000Y62707995D03*
X41455000Y112707995D03*
%TD*%
D12*
%TO.C,R21*%
X87172600Y104980000D03*
D13*
X87172599Y97359999D03*
%TD*%
D12*
%TO.C,R35*%
X87172600Y73960000D03*
D13*
X87172599Y81579999D03*
%TD*%
D12*
%TO.C,C6*%
X57279400Y94545800D03*
X62279400Y94545800D03*
%TD*%
D17*
%TO.C,C10*%
X58917487Y23274999D03*
D12*
X60917488Y23275000D03*
%TD*%
%TO.C,R38*%
X54862600Y57850000D03*
D13*
X62482599Y57849999D03*
%TD*%
D12*
%TO.C,R33*%
X62482600Y84566544D03*
D13*
X54862599Y84566543D03*
%TD*%
D17*
%TO.C,U3*%
X65717599Y76554999D03*
D13*
X65717599Y74014999D03*
X65717599Y71474999D03*
X65717599Y68934999D03*
X65717599Y66394999D03*
X65717599Y63854999D03*
X65717599Y61314999D03*
X73337599Y61314999D03*
X73337599Y63854999D03*
X73337599Y66394999D03*
X73337599Y68934999D03*
X73337599Y71474999D03*
X73337599Y74014999D03*
X73337599Y76554999D03*
%TD*%
D17*
%TO.C,D1*%
X84007599Y78024999D03*
D13*
X76387599Y78024999D03*
%TD*%
D17*
%TO.C,U1*%
X65717599Y50179999D03*
D13*
X65717599Y47639999D03*
X65717599Y45099999D03*
X65717599Y42559999D03*
X73337599Y42559999D03*
X73337599Y45099999D03*
X73337599Y47639999D03*
X73337599Y50179999D03*
%TD*%
D12*
%TO.C,C4*%
X68023600Y53372400D03*
X73023600Y53372400D03*
%TD*%
D25*
%TO.C,J4*%
X82090099Y25869999D03*
D26*
X82090100Y23330000D03*
X79550100Y25870000D03*
X79550100Y23330000D03*
X77010100Y25870000D03*
X77010100Y23330000D03*
X74470100Y25870000D03*
X74470100Y23330000D03*
X71930100Y25870000D03*
X71930100Y23330000D03*
%TD*%
D12*
%TO.C,RX1*%
X54862600Y47632000D03*
D13*
X62482599Y47631999D03*
%TD*%
D19*
%TO.C,REF\u002A\u002A*%
X29277600Y16471000D03*
%TD*%
D20*
%TO.C,Q6*%
X78259799Y109430199D03*
D21*
X76989800Y108160200D03*
X75719800Y109430200D03*
%TD*%
D12*
%TO.C,R28*%
X62482600Y91242696D03*
D13*
X54862599Y91242695D03*
%TD*%
D22*
%TO.C,VR3*%
X19037199Y102707995D03*
X19037199Y70207995D03*
D23*
X20912199Y62707995D03*
D24*
X17162199Y62707995D03*
X20912199Y112707995D03*
%TD*%
D12*
%TO.C,R39*%
X84007600Y61200000D03*
D13*
X76387599Y61199999D03*
%TD*%
D12*
%TO.C,R23*%
X51547600Y103045000D03*
D13*
X51547599Y95424999D03*
%TD*%
D12*
%TO.C,R34*%
X76387600Y74860000D03*
D13*
X84007599Y74859999D03*
%TD*%
D14*
%TO.C,J3*%
X39510900Y20131392D03*
D15*
X39510900Y13651392D03*
D16*
X39510899Y25051391D03*
X39510899Y16751391D03*
%TD*%
D12*
%TO.C,RX34*%
X84007600Y48295000D03*
D13*
X76387599Y48294999D03*
%TD*%
D12*
%TO.C,C7*%
X62715000Y42501200D03*
X57715000Y42501200D03*
%TD*%
%TO.C,C9*%
X77697600Y68030000D03*
X82697600Y68030000D03*
%TD*%
D20*
%TO.C,Q5*%
X53362599Y111619999D03*
D21*
X54632600Y110350000D03*
X53362600Y109080000D03*
%TD*%
D12*
%TO.C,R29*%
X62482600Y81228468D03*
D13*
X54862599Y81228467D03*
%TD*%
D17*
%TO.C,D3*%
X65022599Y20649999D03*
D13*
X65022599Y28269999D03*
%TD*%
D12*
%TO.C,RX35*%
X87172600Y41120000D03*
D13*
X87172599Y48739999D03*
%TD*%
D18*
%TO.C,VR4*%
X57332600Y33550000D03*
X59872600Y36090000D03*
X59872600Y33550000D03*
X62412600Y33550000D03*
%TD*%
D19*
%TO.C,REF\u002A\u002A*%
X69517600Y16471000D03*
%TD*%
D12*
%TO.C,R30*%
X84007600Y84105000D03*
D13*
X76387599Y84104999D03*
%TD*%
D12*
%TO.C,RX31*%
X65707600Y31355000D03*
D13*
X73327599Y31354999D03*
%TD*%
D18*
%TO.C,VRX1*%
X82120600Y112148000D03*
X84660600Y114688000D03*
X84660600Y112148000D03*
X87200600Y112148000D03*
%TD*%
D17*
%TO.C,C11*%
X52917487Y23274999D03*
D12*
X54917488Y23275000D03*
%TD*%
%TO.C,RM2*%
X46027600Y69460000D03*
D13*
X46027599Y77079999D03*
%TD*%
D12*
%TO.C,R45*%
X84007600Y64615000D03*
D13*
X76387599Y64614999D03*
%TD*%
D12*
%TO.C,R41*%
X54862600Y74552316D03*
D13*
X62482599Y74552315D03*
%TD*%
D12*
%TO.C,R40*%
X87172600Y91600000D03*
D13*
X87172599Y83979999D03*
%TD*%
D12*
%TO.C,C3*%
X82697600Y87520000D03*
X77697600Y87520000D03*
%TD*%
%TO.C,R26*%
X62482600Y104595000D03*
D13*
X54862599Y104594999D03*
%TD*%
D19*
%TO.C,REF\u002A\u002A*%
X29297600Y118043923D03*
%TD*%
D12*
%TO.C,C1*%
X72798800Y113443400D03*
X77798800Y113443400D03*
%TD*%
%TO.C,CX6*%
X87200600Y56826800D03*
X87200600Y51826800D03*
%TD*%
%TO.C,R44*%
X62482600Y77890392D03*
D13*
X54862599Y77890391D03*
%TD*%
D12*
%TO.C,R43*%
X54862600Y61200000D03*
D13*
X62482599Y61199999D03*
%TD*%
D12*
%TO.C,R46*%
X87172600Y62920000D03*
D13*
X87172599Y70539999D03*
%TD*%
D12*
%TO.C,R42*%
X62482600Y64538088D03*
D13*
X54862599Y64538087D03*
%TD*%
D12*
%TO.C,R18*%
X76387600Y90935000D03*
D13*
X84007599Y90934999D03*
%TD*%
D27*
%TO.C,J6*%
X51372599Y53869999D03*
D28*
X51372599Y51329999D03*
X51372599Y48789999D03*
X51372599Y46249999D03*
X51372599Y43709999D03*
%TD*%
D27*
%TO.C,J5*%
X47372599Y54009999D03*
D28*
X47372599Y51469999D03*
X47372599Y48929999D03*
X47372599Y46389999D03*
X47372599Y43849999D03*
%TD*%
M02*
